SplineFontDB: 3.2
FontName: Pretension-Light
FullName: Pretension Light
FamilyName: Pretension Light
Weight: Light
Copyright: Copyright 2016 The Inter Project Authors
Version: 4.000;git-a52131595
ItalicAngle: 0
UnderlinePosition: -363
UnderlineWidth: 109
Ascent: 1638
Descent: 410
InvalidEm: 0
sfntRevision: 0x00040000
LayerCount: 2
Layer: 0 1 "Back" 1
Layer: 1 1 "Fore" 0
XUID: [1021 89 -1234937351 9782031]
StyleMap: 0x0040
FSType: 0
OS2Version: 4
OS2_WeightWidthSlopeOnly: 0
OS2_UseTypoMetrics: 1
CreationTime: 1700438797
ModificationTime: 1707789951
PfmFamily: 17
TTFWeight: 300
TTFWidth: 5
LineGap: 0
VLineGap: 0
Panose: 2 0 5 3 0 0 0 2 0 4
OS2TypoAscent: 1984
OS2TypoAOffset: 0
OS2TypoDescent: -494
OS2TypoDOffset: 0
OS2TypoLinegap: 0
OS2WinAscent: 1984
OS2WinAOffset: 0
OS2WinDescent: 494
OS2WinDOffset: 0
HheadAscent: 1984
HheadAOffset: 0
HheadDescent: -494
HheadDOffset: 0
OS2SubXSize: 1331
OS2SubYSize: 1229
OS2SubXOff: 0
OS2SubYOff: 154
OS2SupXSize: 1331
OS2SupYSize: 1229
OS2SupXOff: 0
OS2SupYOff: 717
OS2StrikeYSize: 109
OS2StrikeYPos: 653
OS2CapHeight: 1490
OS2XHeight: 1087
OS2Vendor: 'RSMS'
OS2CodePages: 0000019f.00000000
OS2UnicodeRanges: e0000aff.5200a1ff.00000021.00000000
Lookup: 1 0 0 "'aalt' Access All Alternates in Latin lookup 0" { "'aalt' Access All Alternates in Latin lookup 0 subtable"  } ['aalt' ('DFLT' <'dflt' > 'latn' <'CAT ' 'MOL ' 'ROM ' 'dflt' > ) ]
Lookup: 3 0 0 "'aalt' Access All Alternates in Latin lookup 1" { "'aalt' Access All Alternates in Latin lookup 1 subtable"  } ['aalt' ('DFLT' <'dflt' > 'latn' <'CAT ' 'MOL ' 'ROM ' 'dflt' > ) ]
Lookup: 1 0 0 "Single Substitution lookup 2" { "Single Substitution lookup 2 subtable"  } []
Lookup: 4 0 0 "'ccmp' Glyph Composition/Decomposition in Latin lookup 3" { "'ccmp' Glyph Composition/Decomposition in Latin lookup 3 subtable"  } ['ccmp' ('DFLT' <'dflt' > 'latn' <'CAT ' 'MOL ' 'ROM ' 'dflt' > ) ]

StartChar: .notdef
Encoding: 1114112 -1 0
Width: 1344
Flags: W
LayerCount: 2
Fore
SplineSet
1016 -416 m 1,0,-1
 328 -416 l 1,1,-1
 328 1856 l 1,2,-1
 1016 1856 l 1,3,-1
 1016 -416 l 1,0,-1
512 -192 m 1,4,-1
 512 -256 l 1,5,-1
 832 -256 l 1,6,-1
 832 -192 l 1,7,-1
 617 -192 l 1,8,-1
 832 -65 l 1,9,-1
 832 0 l 1,10,-1
 512 0 l 1,11,-1
 512 -64 l 1,12,-1
 728 -64 l 1,13,-1
 512 -192 l 1,4,-1
512 320 m 1,14,-1
 512 64 l 1,15,-1
 832 64 l 1,16,-1
 832 320 l 1,17,-1
 512 320 l 1,14,-1
768 128 m 1,18,-1
 576 128 l 1,19,-1
 576 256 l 1,20,-1
 768 256 l 1,21,-1
 768 128 l 1,18,-1
512 704 m 1,22,-1
 512 448 l 1,23,-1
 832 448 l 1,24,-1
 832 704 l 1,25,-1
 640 704 l 1,26,-1
 640 576 l 1,27,-1
 704 576 l 1,28,-1
 704 640 l 1,29,-1
 768 640 l 1,30,-1
 768 512 l 1,31,-1
 576 512 l 1,32,-1
 576 704 l 1,33,-1
 512 704 l 1,22,-1
512 832 m 1,34,-1
 512 768 l 1,35,-1
 832 768 l 1,36,-1
 832 992 l 1,37,-1
 768 992 l 1,38,-1
 768 832 l 1,39,-1
 512 832 l 1,34,-1
512 960 m 1,40,-1
 512 896 l 1,41,-1
 704 896 l 1,42,-1
 704 1056 l 1,43,-1
 832 1056 l 1,44,-1
 832 1120 l 1,45,-1
 512 1120 l 1,46,-1
 512 1056 l 1,47,-1
 640 1056 l 1,48,-1
 640 960 l 1,49,-1
 512 960 l 1,40,-1
640 1248 m 1,50,-1
 576 1248 l 1,51,-1
 576 1344 l 1,52,-1
 640 1344 l 1,53,-1
 640 1248 l 1,50,-1
512 1408 m 1,54,-1
 512 1184 l 1,55,-1
 832 1184 l 1,56,-1
 832 1248 l 1,57,-1
 704 1248 l 1,58,-1
 704 1408 l 1,59,-1
 512 1408 l 1,54,-1
512 1536 m 1,60,-1
 512 1472 l 1,61,-1
 832 1472 l 1,62,-1
 832 1536 l 1,63,-1
 688 1536 l 1,64,-1
 688 1632 l 1,65,-1
 832 1632 l 1,66,-1
 832 1696 l 1,67,-1
 512 1696 l 1,68,-1
 512 1632 l 1,69,-1
 624 1632 l 1,70,-1
 624 1536 l 1,71,-1
 512 1536 l 1,60,-1
EndSplineSet
EndChar

StartChar: A
Encoding: 65 65 2
Width: 1339
GlyphClass: 2
Flags: W
AnchorPoint: "Anchor-4" 1301 0 basechar 0
AnchorPoint: "Anchor-1" 670 1490 basechar 0
AnchorPoint: "Anchor-0" 670 0 basechar 0
LayerCount: 2
Fore
SplineSet
38 0 m 1,0,-1
 588 1490 l 1,1,-1
 751 1490 l 1,2,-1
 1301 0 l 1,3,-1
 1154 0 l 1,4,-1
 799 979 l 2,5,6
 769 1063 769 1063 733.5 1168.5 c 128,-1,7
 698 1274 698 1274 651 1426 c 1,8,-1
 686 1426 l 1,9,10
 639 1274 639 1274 603.5 1167.5 c 128,-1,11
 568 1061 568 1061 538 979 c 2,12,-1
 185 0 l 1,13,-1
 38 0 l 1,0,-1
297 443 m 1,14,-1
 297 567 l 1,15,-1
 1042 567 l 1,16,-1
 1042 443 l 1,17,-1
 297 443 l 1,14,-1
EndSplineSet
Substitution2: "'c2sc' Capitals to Small Capitals in Latin lookup 68 subtable" a.sc
Substitution2: "'ss06' Style Set 6 in Latin lookup 52 subtable" A.squared
Substitution2: "'ss05' Style Set 5 in Latin lookup 51 subtable" uni24B6
Substitution2: "Single Substitution lookup 44 subtable" ordfeminine
AlternateSubs2: "'aalt' Access All Alternates in Latin lookup 1 subtable" ordfeminine a.sc
Position2: "'cpsp' Capital Spacing in Latin lookup 0 subtable" dx=0 dy=0 dh=0 dv=0
EndChar

StartChar: uni023A
Encoding: 570 570 46
Width: 1339
GlyphClass: 2
Flags: W
AnchorPoint: "Anchor-4" 1301 0 basechar 0
AnchorPoint: "Anchor-1" 670 1490 basechar 0
AnchorPoint: "Anchor-0" 670 0 basechar 0
LayerCount: 2
Fore
SplineSet
1071 1678 m 1,0,-1
 407 -190 l 1,1,-1
 280 -190 l 1,2,-1
 944 1678 l 1,3,-1
 1071 1678 l 1,0,-1
38 0 m 1,4,-1
 588 1490 l 1,5,-1
 751 1490 l 1,6,-1
 1301 0 l 1,7,-1
 1154 0 l 1,8,-1
 799 979 l 2,9,10
 769 1063 769 1063 733.5 1168.5 c 128,-1,11
 698 1274 698 1274 651 1426 c 1,12,-1
 686 1426 l 1,13,14
 639 1274 639 1274 603.5 1167.5 c 128,-1,15
 568 1061 568 1061 538 979 c 2,16,-1
 185 0 l 1,17,-1
 38 0 l 1,4,-1
297 443 m 1,18,-1
 297 567 l 1,19,-1
 1042 567 l 1,20,-1
 1042 443 l 1,21,-1
 297 443 l 1,18,-1
EndSplineSet
Position2: "'cpsp' Capital Spacing in Latin lookup 0 subtable" dx=0 dy=0 dh=0 dv=0
EndChar

StartChar: Lambda
Encoding: 923 923 60
Width: 1339
GlyphClass: 2
Flags: W
AnchorPoint: "Anchor-1" 670 1490 basechar 0
AnchorPoint: "Anchor-0" 670 0 basechar 0
LayerCount: 2
Fore
SplineSet
38 0 m 1,0,-1
 588 1490 l 1,1,-1
 751 1490 l 1,2,-1
 1301 0 l 1,3,-1
 1154 0 l 1,4,-1
 799 979 l 2,5,6
 769 1063 769 1063 733.5 1168.5 c 128,-1,7
 698 1274 698 1274 651 1426 c 1,8,-1
 686 1426 l 1,9,10
 639 1274 639 1274 603.5 1167.5 c 128,-1,11
 568 1061 568 1061 538 979 c 2,12,-1
 185 0 l 1,13,-1
 38 0 l 1,0,-1
EndSplineSet
Position2: "'cpsp' Capital Spacing in Latin lookup 0 subtable" dx=0 dy=0 dh=0 dv=0
EndChar

StartChar: AE
Encoding: 198 198 61
Width: 1973
GlyphClass: 2
Flags: W
AnchorPoint: "Anchor-1" 1290 1490 basechar 0
LayerCount: 2
Fore
SplineSet
38 0 m 1,0,-1
 756 1490 l 1,1,-1
 1857 1490 l 1,2,-1
 1857 1365 l 1,3,-1
 1106 1365 l 1,4,-1
 1106 810 l 1,5,-1
 1809 810 l 1,6,-1
 1809 685 l 1,7,-1
 1106 685 l 1,8,-1
 1106 125 l 1,9,-1
 1868 125 l 1,10,-1
 1868 0 l 1,11,-1
 970 0 l 1,12,-1
 970 1381 l 1,13,-1
 845 1381 l 1,14,-1
 188 0 l 1,15,-1
 38 0 l 1,0,-1
361 456 m 1,16,-1
 361 577 l 1,17,-1
 1039 577 l 1,18,-1
 1039 456 l 1,19,-1
 361 456 l 1,16,-1
EndSplineSet
Position2: "'cpsp' Capital Spacing in Latin lookup 0 subtable" dx=0 dy=0 dh=0 dv=0
EndChar

StartChar: B
Encoding: 66 66 65
Width: 1307
GlyphClass: 2
Flags: W
AnchorPoint: "Anchor-1" 624 1488 basechar 0
AnchorPoint: "Anchor-0" 635 0 basechar 0
LayerCount: 2
Fore
SplineSet
176 0 m 1,0,-1
 176 1490 l 1,1,-1
 686 1490 l 2,2,3
 831 1490 831 1490 932.5 1441 c 128,-1,4
 1034 1392 1034 1392 1086.5 1304 c 128,-1,5
 1139 1216 1139 1216 1139 1101 c 0,6,7
 1139 1011 1139 1011 1107.5 945 c 128,-1,8
 1076 879 1076 879 1021.5 835.5 c 128,-1,9
 967 792 967 792 896 771 c 1,10,-1
 896 765 l 1,11,12
 974 755 974 755 1043 710.5 c 128,-1,13
 1112 666 1112 666 1155.5 588.5 c 128,-1,14
 1199 511 1199 511 1199 402 c 0,15,16
 1199 283 1199 283 1145 192.5 c 128,-1,17
 1091 102 1091 102 982.5 51 c 128,-1,18
 874 0 874 0 712 0 c 2,19,-1
 176 0 l 1,0,-1
315 125 m 1,20,-1
 709 125 l 2,21,22
 883 125 883 125 972.5 200.5 c 128,-1,23
 1062 276 1062 276 1062 400 c 0,24,25
 1062 487 1062 487 1018.5 554 c 128,-1,26
 975 621 975 621 897.5 658.5 c 128,-1,27
 820 696 820 696 716 696 c 2,28,-1
 315 696 l 1,29,-1
 315 125 l 1,20,-1
315 817 m 1,30,-1
 702 817 l 2,31,32
 793 817 793 817 861 853.5 c 128,-1,33
 929 890 929 890 966.5 952.5 c 128,-1,34
 1004 1015 1004 1015 1004 1095 c 0,35,36
 1004 1219 1004 1219 921.5 1292 c 128,-1,37
 839 1365 839 1365 688 1365 c 2,38,-1
 315 1365 l 1,39,-1
 315 817 l 1,30,-1
EndSplineSet
Substitution2: "'ss06' Style Set 6 in Latin lookup 52 subtable" B.squared
Substitution2: "'ss05' Style Set 5 in Latin lookup 51 subtable" uni24B7
Position2: "'cpsp' Capital Spacing in Latin lookup 0 subtable" dx=0 dy=0 dh=0 dv=0
EndChar

StartChar: uni0181
Encoding: 385 385 70
Width: 1547
GlyphClass: 2
Flags: W
AnchorPoint: "Anchor-1" 864 1488 basechar 0
AnchorPoint: "Anchor-0" 875 0 basechar 0
LayerCount: 2
Fore
SplineSet
52 1094 m 1,0,-1
 52 1234 l 2,1,2
 52 1362 52 1362 118.5 1426 c 128,-1,3
 185 1490 185 1490 315 1490 c 2,4,-1
 416 1490 l 1,5,-1
 416 1366 l 1,6,-1
 317 1366 l 2,7,8
 247 1366 247 1366 214.5 1333.5 c 128,-1,9
 182 1301 182 1301 182 1232 c 2,10,-1
 182 1094 l 1,11,-1
 52 1094 l 1,0,-1
416 0 m 1,12,-1
 416 1490 l 1,13,-1
 926 1490 l 2,14,15
 1071 1490 1071 1490 1172.5 1441 c 128,-1,16
 1274 1392 1274 1392 1326.5 1304 c 128,-1,17
 1379 1216 1379 1216 1379 1101 c 0,18,19
 1379 1011 1379 1011 1347.5 945 c 128,-1,20
 1316 879 1316 879 1261.5 835.5 c 128,-1,21
 1207 792 1207 792 1136 771 c 1,22,-1
 1136 765 l 1,23,24
 1214 755 1214 755 1283 710.5 c 128,-1,25
 1352 666 1352 666 1395.5 588.5 c 128,-1,26
 1439 511 1439 511 1439 402 c 0,27,28
 1439 283 1439 283 1385 192.5 c 128,-1,29
 1331 102 1331 102 1222.5 51 c 128,-1,30
 1114 0 1114 0 952 0 c 2,31,-1
 416 0 l 1,12,-1
555 125 m 1,32,-1
 949 125 l 2,33,34
 1123 125 1123 125 1212.5 200.5 c 128,-1,35
 1302 276 1302 276 1302 400 c 0,36,37
 1302 487 1302 487 1258.5 554 c 128,-1,38
 1215 621 1215 621 1137.5 658.5 c 128,-1,39
 1060 696 1060 696 956 696 c 2,40,-1
 555 696 l 1,41,-1
 555 125 l 1,32,-1
555 817 m 1,42,-1
 942 817 l 2,43,44
 1033 817 1033 817 1101 853.5 c 128,-1,45
 1169 890 1169 890 1206.5 952.5 c 128,-1,46
 1244 1015 1244 1015 1244 1095 c 0,47,48
 1244 1219 1244 1219 1161.5 1292 c 128,-1,49
 1079 1365 1079 1365 928 1365 c 2,50,-1
 555 1365 l 1,51,-1
 555 817 l 1,42,-1
EndSplineSet
Position2: "'cpsp' Capital Spacing in Latin lookup 0 subtable" dx=0 dy=0 dh=0 dv=0
EndChar

StartChar: C
Encoding: 67 67 73
Width: 1464
GlyphClass: 2
Flags: W
AnchorPoint: "Anchor-3" 758 -3 basechar 0
AnchorPoint: "Anchor-1" 759 1490 basechar 0
LayerCount: 2
Fore
SplineSet
765 -21 m 0,0,1
 573 -21 573 -21 424.5 74.5 c 128,-1,2
 276 170 276 170 192.5 342.5 c 128,-1,3
 109 515 109 515 109 744 c 0,4,5
 109 975 109 975 192.5 1147.5 c 128,-1,6
 276 1320 276 1320 424.5 1415.5 c 128,-1,7
 573 1511 573 1511 765 1511 c 0,8,9
 886 1511 886 1511 987 1473.5 c 128,-1,10
 1088 1436 1088 1436 1165.5 1368 c 128,-1,11
 1243 1300 1243 1300 1292.5 1211 c 128,-1,12
 1342 1122 1342 1122 1361 1018 c 1,13,-1
 1221 1018 l 1,14,15
 1204 1097 1204 1097 1164.5 1163 c 128,-1,16
 1125 1229 1125 1229 1066.5 1278 c 128,-1,17
 1008 1327 1008 1327 931.5 1354 c 128,-1,18
 855 1381 855 1381 765 1381 c 0,19,20
 618 1381 618 1381 500.5 1305.5 c 128,-1,21
 383 1230 383 1230 315 1087.5 c 128,-1,22
 247 945 247 945 247 744 c 0,23,24
 247 544 247 544 315 402 c 128,-1,25
 383 260 383 260 500.5 184.5 c 128,-1,26
 618 109 618 109 765 109 c 0,27,28
 855 109 855 109 931 136.5 c 128,-1,29
 1007 164 1007 164 1066 213 c 128,-1,30
 1125 262 1125 262 1164.5 328 c 128,-1,31
 1204 394 1204 394 1220 472 c 1,32,-1
 1361 472 l 1,33,34
 1343 369 1343 369 1293 280 c 128,-1,35
 1243 191 1243 191 1166 123.5 c 128,-1,36
 1089 56 1089 56 988 17.5 c 128,-1,37
 887 -21 887 -21 765 -21 c 0,0,1
EndSplineSet
Substitution2: "'ss06' Style Set 6 in Latin lookup 52 subtable" C.squared
Substitution2: "'ss05' Style Set 5 in Latin lookup 51 subtable" uni24B8
Position2: "'cpsp' Capital Spacing in Latin lookup 0 subtable" dx=0 dy=0 dh=0 dv=0
EndChar

StartChar: uni0187
Encoding: 391 391 74
Width: 1464
GlyphClass: 2
Flags: W
AnchorPoint: "Anchor-3" 758 -3 basechar 0
AnchorPoint: "Anchor-1" 759 1490 basechar 0
LayerCount: 2
Fore
SplineSet
1232 1018 m 1,0,-1
 1232 1445 l 2,1,2
 1232 1561 1232 1561 1296 1620.5 c 128,-1,3
 1360 1680 1360 1680 1485 1680 c 0,4,5
 1511 1680 1511 1680 1535 1678.5 c 128,-1,6
 1559 1677 1559 1677 1577 1676 c 1,7,-1
 1577 1562 l 1,8,9
 1560 1563 1560 1563 1537 1563.5 c 128,-1,10
 1514 1564 1514 1564 1500 1564 c 0,11,12
 1427 1564 1427 1564 1394 1536 c 128,-1,13
 1361 1508 1361 1508 1361 1445 c 2,14,-1
 1361 1018 l 1,15,-1
 1232 1018 l 1,0,-1
765 -21 m 0,16,17
 573 -21 573 -21 424.5 74.5 c 128,-1,18
 276 170 276 170 192.5 342.5 c 128,-1,19
 109 515 109 515 109 744 c 0,20,21
 109 975 109 975 192.5 1147.5 c 128,-1,22
 276 1320 276 1320 424.5 1415.5 c 128,-1,23
 573 1511 573 1511 765 1511 c 0,24,25
 886 1511 886 1511 987 1473.5 c 128,-1,26
 1088 1436 1088 1436 1165.5 1368 c 128,-1,27
 1243 1300 1243 1300 1292.5 1211 c 128,-1,28
 1342 1122 1342 1122 1361 1018 c 1,29,-1
 1221 1018 l 1,30,31
 1204 1097 1204 1097 1164.5 1163 c 128,-1,32
 1125 1229 1125 1229 1066.5 1278 c 128,-1,33
 1008 1327 1008 1327 931.5 1354 c 128,-1,34
 855 1381 855 1381 765 1381 c 0,35,36
 618 1381 618 1381 500.5 1305.5 c 128,-1,37
 383 1230 383 1230 315 1087.5 c 128,-1,38
 247 945 247 945 247 744 c 0,39,40
 247 544 247 544 315 402 c 128,-1,41
 383 260 383 260 500.5 184.5 c 128,-1,42
 618 109 618 109 765 109 c 0,43,44
 855 109 855 109 931 136.5 c 128,-1,45
 1007 164 1007 164 1066 213 c 128,-1,46
 1125 262 1125 262 1164.5 328 c 128,-1,47
 1204 394 1204 394 1220 472 c 1,48,-1
 1361 472 l 1,49,50
 1343 369 1343 369 1293 280 c 128,-1,51
 1243 191 1243 191 1166 123.5 c 128,-1,52
 1089 56 1089 56 988 17.5 c 128,-1,53
 887 -21 887 -21 765 -21 c 0,16,17
EndSplineSet
Position2: "'cpsp' Capital Spacing in Latin lookup 0 subtable" dx=0 dy=0 dh=0 dv=0
EndChar

StartChar: uni023B
Encoding: 571 571 81
Width: 1464
GlyphClass: 2
Flags: W
AnchorPoint: "Anchor-3" 758 -3 basechar 0
AnchorPoint: "Anchor-1" 759 1490 basechar 0
LayerCount: 2
Fore
SplineSet
326 -190 m 1,0,-1
 1009 1678 l 1,1,-1
 1136 1678 l 1,2,-1
 453 -190 l 1,3,-1
 326 -190 l 1,0,-1
765 -21 m 0,4,5
 573 -21 573 -21 424.5 74.5 c 128,-1,6
 276 170 276 170 192.5 342.5 c 128,-1,7
 109 515 109 515 109 744 c 0,8,9
 109 975 109 975 192.5 1147.5 c 128,-1,10
 276 1320 276 1320 424.5 1415.5 c 128,-1,11
 573 1511 573 1511 765 1511 c 0,12,13
 886 1511 886 1511 987 1473.5 c 128,-1,14
 1088 1436 1088 1436 1165.5 1368 c 128,-1,15
 1243 1300 1243 1300 1292.5 1211 c 128,-1,16
 1342 1122 1342 1122 1361 1018 c 1,17,-1
 1221 1018 l 1,18,19
 1204 1097 1204 1097 1164.5 1163 c 128,-1,20
 1125 1229 1125 1229 1066.5 1278 c 128,-1,21
 1008 1327 1008 1327 931.5 1354 c 128,-1,22
 855 1381 855 1381 765 1381 c 0,23,24
 618 1381 618 1381 500.5 1305.5 c 128,-1,25
 383 1230 383 1230 315 1087.5 c 128,-1,26
 247 945 247 945 247 744 c 0,27,28
 247 544 247 544 315 402 c 128,-1,29
 383 260 383 260 500.5 184.5 c 128,-1,30
 618 109 618 109 765 109 c 0,31,32
 855 109 855 109 931 136.5 c 128,-1,33
 1007 164 1007 164 1066 213 c 128,-1,34
 1125 262 1125 262 1164.5 328 c 128,-1,35
 1204 394 1204 394 1220 472 c 1,36,-1
 1361 472 l 1,37,38
 1343 369 1343 369 1293 280 c 128,-1,39
 1243 191 1243 191 1166 123.5 c 128,-1,40
 1089 56 1089 56 988 17.5 c 128,-1,41
 887 -21 887 -21 765 -21 c 0,4,5
EndSplineSet
Ligature2: "'ccmp' Glyph Composition/Decomposition in Latin lookup 6 subtable" C uni0338
Position2: "'cpsp' Capital Spacing in Latin lookup 0 subtable" dx=0 dy=0 dh=0 dv=0
EndChar

StartChar: uni0186
Encoding: 390 390 82
Width: 1464
GlyphClass: 2
Flags: W
AnchorPoint: "Anchor-3" 706 1494 basechar 0
AnchorPoint: "Anchor-1" 705 0 basechar 0
LayerCount: 2
Fore
SplineSet
699 1511 m 0,0,1
 892 1511 892 1511 1040 1415.5 c 128,-1,2
 1188 1320 1188 1320 1271.5 1147.5 c 128,-1,3
 1355 975 1355 975 1355 746 c 256,4,5
 1355 517 1355 517 1271.5 344.5 c 128,-1,6
 1188 172 1188 172 1040.5 75.5 c 128,-1,7
 893 -21 893 -21 699 -21 c 0,8,9
 579 -21 579 -21 477.5 17 c 128,-1,10
 376 55 376 55 298.5 122.5 c 128,-1,11
 221 190 221 190 171.5 279.5 c 128,-1,12
 122 369 122 369 103 473 c 1,13,-1
 244 473 l 1,14,15
 260 395 260 395 299.5 328.5 c 128,-1,16
 339 262 339 262 397.5 213 c 128,-1,17
 456 164 456 164 532.5 136.5 c 128,-1,18
 609 109 609 109 699 109 c 0,19,20
 846 109 846 109 963.5 185.5 c 128,-1,21
 1081 262 1081 262 1149 404.5 c 128,-1,22
 1217 547 1217 547 1217 746 c 0,23,24
 1217 947 1217 947 1149.5 1089 c 128,-1,25
 1082 1231 1082 1231 964 1306 c 128,-1,26
 846 1381 846 1381 699 1381 c 0,27,28
 609 1381 609 1381 533 1354 c 128,-1,29
 457 1327 457 1327 398 1277.5 c 128,-1,30
 339 1228 339 1228 299.5 1162 c 128,-1,31
 260 1096 260 1096 244 1019 c 1,32,-1
 103 1019 l 1,33,34
 121 1122 121 1122 171 1211 c 128,-1,35
 221 1300 221 1300 298 1367.5 c 128,-1,36
 375 1435 375 1435 476.5 1473 c 128,-1,37
 578 1511 578 1511 699 1511 c 0,0,1
EndSplineSet
Position2: "'cpsp' Capital Spacing in Latin lookup 0 subtable" dx=0 dy=0 dh=0 dv=0
EndChar

StartChar: D
Encoding: 68 68 84
Width: 1429
GlyphClass: 2
Flags: W
AnchorPoint: "Anchor-1" 602 1490 basechar 0
AnchorPoint: "Anchor-0" 592 0 basechar 0
LayerCount: 2
Fore
SplineSet
615 0 m 2,0,-1
 254 0 l 1,1,-1
 254 125 l 1,2,-1
 607 125 l 2,3,4
 798 125 798 125 926.5 200 c 128,-1,5
 1055 275 1055 275 1119 415 c 128,-1,6
 1183 555 1183 555 1183 749 c 0,7,8
 1183 942 1183 942 1120.5 1080 c 128,-1,9
 1058 1218 1058 1218 935.5 1291.5 c 128,-1,10
 813 1365 813 1365 632 1365 c 2,11,-1
 248 1365 l 1,12,-1
 248 1490 l 1,13,-1
 640 1490 l 2,14,15
 854 1490 854 1490 1005.5 1401 c 128,-1,16
 1157 1312 1157 1312 1238.5 1146 c 128,-1,17
 1320 980 1320 980 1320 749 c 0,18,19
 1320 514 1320 514 1237 346.5 c 128,-1,20
 1154 179 1154 179 996.5 89.5 c 128,-1,21
 839 0 839 0 615 0 c 2,0,-1
315 1490 m 1,22,-1
 315 0 l 1,23,-1
 176 0 l 1,24,-1
 176 1490 l 1,25,-1
 315 1490 l 1,22,-1
EndSplineSet
Substitution2: "'ss06' Style Set 6 in Latin lookup 52 subtable" D.squared
Substitution2: "'ss05' Style Set 5 in Latin lookup 51 subtable" uni24B9
Position2: "'cpsp' Capital Spacing in Latin lookup 0 subtable" dx=0 dy=0 dh=0 dv=0
EndChar

StartChar: uni018A
Encoding: 394 394 85
Width: 1669
GlyphClass: 2
Flags: W
AnchorPoint: "Anchor-1" 842 1490 basechar 0
AnchorPoint: "Anchor-0" 832 0 basechar 0
LayerCount: 2
Fore
SplineSet
53 1094 m 1,0,-1
 53 1234 l 2,1,2
 53 1362 53 1362 119 1426 c 128,-1,3
 185 1490 185 1490 315 1490 c 2,4,-1
 416 1490 l 1,5,-1
 416 1366 l 1,6,-1
 318 1366 l 2,7,8
 247 1366 247 1366 215 1333.5 c 128,-1,9
 183 1301 183 1301 183 1232 c 2,10,-1
 183 1094 l 1,11,-1
 53 1094 l 1,0,-1
855 0 m 2,12,-1
 494 0 l 1,13,-1
 494 125 l 1,14,-1
 847 125 l 2,15,16
 1038 125 1038 125 1166.5 200 c 128,-1,17
 1295 275 1295 275 1359 415 c 128,-1,18
 1423 555 1423 555 1423 749 c 0,19,20
 1423 942 1423 942 1360.5 1080 c 128,-1,21
 1298 1218 1298 1218 1175.5 1291.5 c 128,-1,22
 1053 1365 1053 1365 872 1365 c 2,23,-1
 488 1365 l 1,24,-1
 488 1490 l 1,25,-1
 880 1490 l 2,26,27
 1094 1490 1094 1490 1246 1401 c 128,-1,28
 1398 1312 1398 1312 1479 1146 c 128,-1,29
 1560 980 1560 980 1560 749 c 0,30,31
 1560 514 1560 514 1477 346.5 c 128,-1,32
 1394 179 1394 179 1236.5 89.5 c 128,-1,33
 1079 0 1079 0 855 0 c 2,12,-1
555 1490 m 1,34,-1
 555 0 l 1,35,-1
 416 0 l 1,36,-1
 416 1490 l 1,37,-1
 555 1490 l 1,34,-1
EndSplineSet
Position2: "'cpsp' Capital Spacing in Latin lookup 0 subtable" dx=0 dy=0 dh=0 dv=0
EndChar

StartChar: E
Encoding: 69 69 95
Width: 1196
GlyphClass: 2
Flags: W
AnchorPoint: "Anchor-4" 1091 0 basechar 0
AnchorPoint: "Anchor-3" 637 0 basechar 0
AnchorPoint: "Anchor-1" 634 1490 basechar 0
AnchorPoint: "Anchor-0" 634 0 basechar 0
LayerCount: 2
Fore
SplineSet
176 0 m 1,0,-1
 176 1490 l 1,1,-1
 1085 1490 l 1,2,-1
 1085 1365 l 1,3,-1
 315 1365 l 1,4,-1
 315 819 l 1,5,-1
 1029 819 l 1,6,-1
 1029 694 l 1,7,-1
 315 694 l 1,8,-1
 315 125 l 1,9,-1
 1091 125 l 1,10,-1
 1091 0 l 1,11,-1
 176 0 l 1,0,-1
EndSplineSet
Substitution2: "'ss06' Style Set 6 in Latin lookup 52 subtable" E.squared
Substitution2: "'ss05' Style Set 5 in Latin lookup 51 subtable" uni24BA
Position2: "'cpsp' Capital Spacing in Latin lookup 0 subtable" dx=0 dy=0 dh=0 dv=0
EndChar

StartChar: uni0246
Encoding: 582 582 121
Width: 1196
GlyphClass: 2
Flags: W
AnchorPoint: "Anchor-4" 1091 0 basechar 0
AnchorPoint: "Anchor-3" 637 0 basechar 0
AnchorPoint: "Anchor-1" 634 1490 basechar 0
AnchorPoint: "Anchor-0" 634 0 basechar 0
LayerCount: 2
Fore
SplineSet
315 -190 m 1,0,-1
 855 1678 l 1,1,-1
 979 1678 l 1,2,-1
 440 -190 l 1,3,-1
 315 -190 l 1,0,-1
176 0 m 1,4,-1
 176 1490 l 1,5,-1
 1085 1490 l 1,6,-1
 1085 1365 l 1,7,-1
 315 1365 l 1,8,-1
 315 819 l 1,9,-1
 1029 819 l 1,10,-1
 1029 694 l 1,11,-1
 315 694 l 1,12,-1
 315 125 l 1,13,-1
 1091 125 l 1,14,-1
 1091 0 l 1,15,-1
 176 0 l 1,4,-1
EndSplineSet
Position2: "'cpsp' Capital Spacing in Latin lookup 0 subtable" dx=0 dy=0 dh=0 dv=0
EndChar

StartChar: Eturn
Encoding: 398 398 122
Width: 1196
GlyphClass: 2
Flags: W
AnchorPoint: "Anchor-4" 105 1490 basechar 0
AnchorPoint: "Anchor-3" 598 0 basechar 0
AnchorPoint: "Anchor-1" 611 1490 basechar 0
AnchorPoint: "Anchor-0" 595 0 basechar 0
LayerCount: 2
Fore
SplineSet
1020 1490 m 1,0,-1
 1020 0 l 1,1,-1
 112 0 l 1,2,-1
 112 125 l 1,3,-1
 882 125 l 1,4,-1
 882 672 l 1,5,-1
 167 672 l 1,6,-1
 167 797 l 1,7,-1
 882 797 l 1,8,-1
 882 1365 l 1,9,-1
 105 1365 l 1,10,-1
 105 1490 l 1,11,-1
 1020 1490 l 1,0,-1
EndSplineSet
Position2: "'cpsp' Capital Spacing in Latin lookup 0 subtable" dx=0 dy=0 dh=0 dv=0
EndChar

StartChar: F
Encoding: 70 70 137
Width: 1162
GlyphClass: 2
Flags: W
AnchorPoint: "Anchor-1" 621 1490 basechar 0
AnchorPoint: "Anchor-0" 246 0 basechar 0
LayerCount: 2
Fore
SplineSet
176 0 m 1,0,-1
 176 1490 l 1,1,-1
 1065 1490 l 1,2,-1
 1065 1365 l 1,3,-1
 315 1365 l 1,4,-1
 315 811 l 1,5,-1
 995 811 l 1,6,-1
 995 686 l 1,7,-1
 315 686 l 1,8,-1
 315 0 l 1,9,-1
 176 0 l 1,0,-1
EndSplineSet
Substitution2: "'ss06' Style Set 6 in Latin lookup 52 subtable" F.squared
Substitution2: "'ss05' Style Set 5 in Latin lookup 51 subtable" uni24BB
Position2: "'cpsp' Capital Spacing in Latin lookup 0 subtable" dx=0 dy=0 dh=0 dv=0
EndChar

StartChar: uni0191
Encoding: 401 401 138
Width: 1162
GlyphClass: 2
Flags: W
AnchorPoint: "Anchor-1" 621 1490 basechar 0
AnchorPoint: "Anchor-0" 246 0 basechar 0
LayerCount: 2
Fore
SplineSet
-33 -418 m 1,0,-1
 -33 -297 l 1,1,2
 -16 -299 -16 -299 7 -299 c 128,-1,3
 30 -299 30 -299 43 -299 c 0,4,5
 117 -299 117 -299 146.5 -271.5 c 128,-1,6
 176 -244 176 -244 176 -181 c 2,7,-1
 176 128 l 1,8,-1
 315 128 l 1,9,-1
 315 -186 l 2,10,11
 315 -303 315 -303 251 -361.5 c 128,-1,12
 187 -420 187 -420 62 -420 c 0,13,14
 36 -420 36 -420 10.5 -419.5 c 128,-1,15
 -15 -419 -15 -419 -33 -418 c 1,0,-1
176 0 m 1,16,-1
 176 1490 l 1,17,-1
 1065 1490 l 1,18,-1
 1065 1365 l 1,19,-1
 315 1365 l 1,20,-1
 315 811 l 1,21,-1
 995 811 l 1,22,-1
 995 686 l 1,23,-1
 315 686 l 1,24,-1
 315 0 l 1,25,-1
 176 0 l 1,16,-1
EndSplineSet
Position2: "'cpsp' Capital Spacing in Latin lookup 0 subtable" dx=0 dy=0 dh=0 dv=0
EndChar

StartChar: Fturn
Encoding: 8498 8498 140
Width: 1162
GlyphClass: 2
Flags: W
AnchorPoint: "Anchor-1" 912 1490 basechar 0
AnchorPoint: "Anchor-0" 551 0 basechar 0
LayerCount: 2
Fore
SplineSet
986 1490 m 1,0,-1
 986 0 l 1,1,-1
 97 0 l 1,2,-1
 97 125 l 1,3,-1
 848 125 l 1,4,-1
 848 680 l 1,5,-1
 167 680 l 1,6,-1
 167 805 l 1,7,-1
 848 805 l 1,8,-1
 848 1490 l 1,9,-1
 986 1490 l 1,0,-1
EndSplineSet
Position2: "'cpsp' Capital Spacing in Latin lookup 0 subtable" dx=0 dy=0 dh=0 dv=0
EndChar

StartChar: G
Encoding: 1114113 -1 141
Width: 1491
GlyphClass: 2
Flags: W
AnchorPoint: "Anchor-1" 754 1490 basechar 0
AnchorPoint: "Anchor-0" 752 0 basechar 0
LayerCount: 2
Fore
SplineSet
766 -21 m 0,0,1
 572 -21 572 -21 423.5 75 c 128,-1,2
 275 171 275 171 192 343.5 c 128,-1,3
 109 516 109 516 109 744 c 0,4,5
 109 976 109 976 192.5 1148 c 128,-1,6
 276 1320 276 1320 423 1415.5 c 128,-1,7
 570 1511 570 1511 761 1511 c 0,8,9
 884 1511 884 1511 986 1472 c 128,-1,10
 1088 1433 1088 1433 1166 1365 c 128,-1,11
 1244 1297 1244 1297 1294.5 1208 c 128,-1,12
 1345 1119 1345 1119 1361 1019 c 1,13,-1
 1220 1019 l 1,14,15
 1202 1093 1202 1093 1163 1158.5 c 128,-1,16
 1124 1224 1124 1224 1064.5 1274 c 128,-1,17
 1005 1324 1005 1324 929 1352.5 c 128,-1,18
 853 1381 853 1381 762 1381 c 0,19,20
 611 1381 611 1381 495 1303 c 128,-1,21
 379 1225 379 1225 313 1082 c 128,-1,22
 247 939 247 939 247 744 c 0,23,24
 247 552 247 552 312.5 409.5 c 128,-1,25
 378 267 378 267 495 188 c 128,-1,26
 612 109 612 109 766 109 c 0,27,28
 905 109 905 109 1010.5 170.5 c 128,-1,29
 1116 232 1116 232 1175.5 343.5 c 128,-1,30
 1235 455 1235 455 1235 606 c 1,31,-1
 1280 598 l 1,32,-1
 804 598 l 1,33,-1
 804 722 l 1,34,-1
 1371 722 l 1,35,-1
 1371 599 l 2,36,37
 1371 415 1371 415 1293.5 275 c 128,-1,38
 1216 135 1216 135 1079.5 57 c 128,-1,39
 943 -21 943 -21 766 -21 c 0,0,1
EndSplineSet
Substitution2: "'c2sc' Capitals to Small Capitals in Latin lookup 68 subtable" g.sc
Substitution2: "'cv10' Character Variants 10 in Latin lookup 64 subtable" G.1
Substitution2: "'ss06' Style Set 6 in Latin lookup 52 subtable" G.squared
Substitution2: "'ss05' Style Set 5 in Latin lookup 51 subtable" uni24BC
Substitution2: "'salt' Stylistic Alternatives in Latin lookup 46 subtable" G.1
Substitution2: "'aalt' Access All Alternates in Latin lookup 0 subtable" g.sc
Position2: "'cpsp' Capital Spacing in Latin lookup 0 subtable" dx=0 dy=0 dh=0 dv=0
EndChar

StartChar: uni0193
Encoding: 1114115 -1 143
Width: 1491
GlyphClass: 2
Flags: W
AnchorPoint: "Anchor-1" 754 1490 basechar 0
AnchorPoint: "Anchor-0" 752 0 basechar 0
LayerCount: 2
Fore
SplineSet
1233 1019 m 1,0,-1
 1233 1446 l 2,1,2
 1233 1562 1233 1562 1297.5 1620.5 c 128,-1,3
 1362 1679 1362 1679 1485 1679 c 0,4,5
 1513 1679 1513 1679 1537 1678.5 c 128,-1,6
 1561 1678 1561 1678 1578 1676 c 1,7,-1
 1578 1561 l 1,8,9
 1561 1562 1561 1562 1537.5 1562.5 c 128,-1,10
 1514 1563 1514 1563 1501 1563 c 0,11,12
 1427 1563 1427 1563 1394 1535 c 128,-1,13
 1361 1507 1361 1507 1361 1446 c 2,14,-1
 1361 1019 l 1,15,-1
 1233 1019 l 1,0,-1
766 -21 m 0,16,17
 572 -21 572 -21 423.5 75 c 128,-1,18
 275 171 275 171 192 343.5 c 128,-1,19
 109 516 109 516 109 744 c 0,20,21
 109 976 109 976 192.5 1148 c 128,-1,22
 276 1320 276 1320 423 1415.5 c 128,-1,23
 570 1511 570 1511 761 1511 c 0,24,25
 884 1511 884 1511 986 1472 c 128,-1,26
 1088 1433 1088 1433 1166 1365 c 128,-1,27
 1244 1297 1244 1297 1294.5 1208 c 128,-1,28
 1345 1119 1345 1119 1361 1019 c 1,29,-1
 1220 1019 l 1,30,31
 1202 1093 1202 1093 1163 1158.5 c 128,-1,32
 1124 1224 1124 1224 1064.5 1274 c 128,-1,33
 1005 1324 1005 1324 929 1352.5 c 128,-1,34
 853 1381 853 1381 762 1381 c 0,35,36
 611 1381 611 1381 495 1303 c 128,-1,37
 379 1225 379 1225 313 1082 c 128,-1,38
 247 939 247 939 247 744 c 0,39,40
 247 552 247 552 312.5 409.5 c 128,-1,41
 378 267 378 267 495 188 c 128,-1,42
 612 109 612 109 766 109 c 0,43,44
 905 109 905 109 1010.5 170.5 c 128,-1,45
 1116 232 1116 232 1175.5 343.5 c 128,-1,46
 1235 455 1235 455 1235 606 c 1,47,-1
 1280 598 l 1,48,-1
 804 598 l 1,49,-1
 804 722 l 1,50,-1
 1371 722 l 1,51,-1
 1371 599 l 2,52,53
 1371 415 1371 415 1293.5 275 c 128,-1,54
 1216 135 1216 135 1079.5 57 c 128,-1,55
 943 -21 943 -21 766 -21 c 0,16,17
EndSplineSet
Substitution2: "'c2sc' Capitals to Small Capitals in Latin lookup 68 subtable" uni0260.sc
Substitution2: "'cv10' Character Variants 10 in Latin lookup 64 subtable" uni0193.1
Substitution2: "'salt' Stylistic Alternatives in Latin lookup 46 subtable" uni0193.1
Substitution2: "'aalt' Access All Alternates in Latin lookup 0 subtable" uni0260.sc
Position2: "'cpsp' Capital Spacing in Latin lookup 0 subtable" dx=0 dy=0 dh=0 dv=0
EndChar

StartChar: G.1
Encoding: 57346 57346 151
AltUni2: 000047.ffffffff.0
Width: 1517
GlyphClass: 2
Flags: W
AnchorPoint: "Anchor-1" 754 1490 basechar 0
AnchorPoint: "Anchor-0" 753 0 basechar 0
LayerCount: 2
Fore
SplineSet
761 -21 m 0,0,1
 569 -21 569 -21 422 75 c 128,-1,2
 275 171 275 171 192 343.5 c 128,-1,3
 109 516 109 516 109 744 c 0,4,5
 109 976 109 976 192.5 1148 c 128,-1,6
 276 1320 276 1320 423 1415.5 c 128,-1,7
 570 1511 570 1511 761 1511 c 0,8,9
 884 1511 884 1511 986 1472 c 128,-1,10
 1088 1433 1088 1433 1166 1365 c 128,-1,11
 1244 1297 1244 1297 1294.5 1208 c 128,-1,12
 1345 1119 1345 1119 1361 1019 c 1,13,-1
 1220 1019 l 1,14,15
 1202 1093 1202 1093 1163 1158.5 c 128,-1,16
 1124 1224 1124 1224 1064.5 1274 c 128,-1,17
 1005 1324 1005 1324 929 1352.5 c 128,-1,18
 853 1381 853 1381 762 1381 c 0,19,20
 611 1381 611 1381 495 1303 c 128,-1,21
 379 1225 379 1225 313 1082 c 128,-1,22
 247 939 247 939 247 744 c 0,23,24
 247 552 247 552 312.5 409.5 c 128,-1,25
 378 267 378 267 495 188 c 128,-1,26
 612 109 612 109 766 109 c 0,27,28
 907 109 907 109 1013 171.5 c 128,-1,29
 1119 234 1119 234 1179 349 c 128,-1,30
 1239 464 1239 464 1239 622 c 1,31,-1
 1292 622 l 1,32,-1
 1292 535 l 2,33,34
 1292 424 1292 424 1259 323.5 c 128,-1,35
 1226 223 1226 223 1159.5 146 c 128,-1,36
 1093 69 1093 69 993.5 24 c 128,-1,37
 894 -21 894 -21 761 -21 c 0,0,1
1261 0 m 1,38,-1
 1240 369 l 1,39,-1
 1243 598 l 1,40,-1
 804 598 l 1,41,-1
 804 722 l 1,42,-1
 1372 722 l 1,43,-1
 1372 0 l 1,44,-1
 1261 0 l 1,38,-1
EndSplineSet
Substitution2: "'ss06' Style Set 6 in Latin lookup 52 subtable" G.1.squared
EndChar

StartChar: uni0193.1
Encoding: 57348 57348 153
AltUni2: 000193.ffffffff.0
Width: 1517
GlyphClass: 2
Flags: W
AnchorPoint: "Anchor-1" 754 1490 basechar 0
AnchorPoint: "Anchor-0" 753 0 basechar 0
LayerCount: 2
Fore
SplineSet
1233 1019 m 1,0,-1
 1233 1446 l 2,1,2
 1233 1562 1233 1562 1297.5 1620.5 c 128,-1,3
 1362 1679 1362 1679 1485 1679 c 0,4,5
 1513 1679 1513 1679 1537 1678.5 c 128,-1,6
 1561 1678 1561 1678 1578 1676 c 1,7,-1
 1578 1561 l 1,8,9
 1561 1562 1561 1562 1537.5 1562.5 c 128,-1,10
 1514 1563 1514 1563 1501 1563 c 0,11,12
 1427 1563 1427 1563 1394 1535 c 128,-1,13
 1361 1507 1361 1507 1361 1446 c 2,14,-1
 1361 1019 l 1,15,-1
 1233 1019 l 1,0,-1
761 -21 m 0,16,17
 569 -21 569 -21 422 75 c 128,-1,18
 275 171 275 171 192 343.5 c 128,-1,19
 109 516 109 516 109 744 c 0,20,21
 109 976 109 976 192.5 1148 c 128,-1,22
 276 1320 276 1320 423 1415.5 c 128,-1,23
 570 1511 570 1511 761 1511 c 0,24,25
 884 1511 884 1511 986 1472 c 128,-1,26
 1088 1433 1088 1433 1166 1365 c 128,-1,27
 1244 1297 1244 1297 1294.5 1208 c 128,-1,28
 1345 1119 1345 1119 1361 1019 c 1,29,-1
 1220 1019 l 1,30,31
 1202 1093 1202 1093 1163 1158.5 c 128,-1,32
 1124 1224 1124 1224 1064.5 1274 c 128,-1,33
 1005 1324 1005 1324 929 1352.5 c 128,-1,34
 853 1381 853 1381 762 1381 c 0,35,36
 611 1381 611 1381 495 1303 c 128,-1,37
 379 1225 379 1225 313 1082 c 128,-1,38
 247 939 247 939 247 744 c 0,39,40
 247 552 247 552 312.5 409.5 c 128,-1,41
 378 267 378 267 495 188 c 128,-1,42
 612 109 612 109 766 109 c 0,43,44
 907 109 907 109 1013 171.5 c 128,-1,45
 1119 234 1119 234 1179 349 c 128,-1,46
 1239 464 1239 464 1239 622 c 1,47,-1
 1292 622 l 1,48,-1
 1292 535 l 2,49,50
 1292 424 1292 424 1259 323.5 c 128,-1,51
 1226 223 1226 223 1159.5 146 c 128,-1,52
 1093 69 1093 69 993.5 24 c 128,-1,53
 894 -21 894 -21 761 -21 c 0,16,17
1261 0 m 1,54,-1
 1240 369 l 1,55,-1
 1243 598 l 1,56,-1
 804 598 l 1,57,-1
 804 722 l 1,58,-1
 1372 722 l 1,59,-1
 1372 0 l 1,60,-1
 1261 0 l 1,54,-1
EndSplineSet
EndChar

StartChar: H
Encoding: 72 72 161
Width: 1471
GlyphClass: 2
Flags: W
AnchorPoint: "Anchor-3" 246 1 basechar 0
AnchorPoint: "Anchor-1" 736 1490 basechar 0
AnchorPoint: "Anchor-0" 736 0 basechar 0
LayerCount: 2
Fore
SplineSet
176 0 m 1,0,-1
 176 1490 l 1,1,-1
 315 1490 l 1,2,-1
 315 825 l 1,3,-1
 1156 825 l 1,4,-1
 1156 1490 l 1,5,-1
 1295 1490 l 1,6,-1
 1295 0 l 1,7,-1
 1156 0 l 1,8,-1
 1156 700 l 1,9,-1
 315 700 l 1,10,-1
 315 0 l 1,11,-1
 176 0 l 1,0,-1
EndSplineSet
Substitution2: "'c2sc' Capitals to Small Capitals in Latin lookup 68 subtable" h.sc
Substitution2: "'ss06' Style Set 6 in Latin lookup 52 subtable" H.squared
Substitution2: "'ss05' Style Set 5 in Latin lookup 51 subtable" uni24BD
Substitution2: "'aalt' Access All Alternates in Latin lookup 0 subtable" h.sc
Position2: "'cpsp' Capital Spacing in Latin lookup 0 subtable" dx=0 dy=0 dh=0 dv=0
EndChar

StartChar: Hbar
Encoding: 294 294 169
Width: 1515
GlyphClass: 2
Flags: W
AnchorPoint: "Anchor-3" 270 1 basechar 0
AnchorPoint: "Anchor-1" 760 1490 basechar 0
AnchorPoint: "Anchor-0" 760 0 basechar 0
LayerCount: 2
Fore
SplineSet
1435 1144 m 1,0,-1
 1435 1027 l 1,1,-1
 81 1027 l 1,2,-1
 81 1144 l 1,3,-1
 1435 1144 l 1,0,-1
200 0 m 1,4,-1
 200 1490 l 1,5,-1
 339 1490 l 1,6,-1
 339 825 l 1,7,-1
 1180 825 l 1,8,-1
 1180 1490 l 1,9,-1
 1319 1490 l 1,10,-1
 1319 0 l 1,11,-1
 1180 0 l 1,12,-1
 1180 700 l 1,13,-1
 339 700 l 1,14,-1
 339 0 l 1,15,-1
 200 0 l 1,4,-1
EndSplineSet
Position2: "'cpsp' Capital Spacing in Latin lookup 0 subtable" dx=0 dy=0 dh=0 dv=0
EndChar

StartChar: uni04C7
Encoding: 1223 1223 170
Width: 1471
GlyphClass: 2
Flags: W
AnchorPoint: "Anchor-3" 246 1 basechar 0
AnchorPoint: "Anchor-1" 736 1490 basechar 0
AnchorPoint: "Anchor-0" 736 0 basechar 0
LayerCount: 2
Fore
SplineSet
947 -418 m 1,0,-1
 947 -297 l 1,1,2
 964 -299 964 -299 987 -299 c 128,-1,3
 1010 -299 1010 -299 1023 -299 c 0,4,5
 1097 -299 1097 -299 1126.5 -271.5 c 128,-1,6
 1156 -244 1156 -244 1156 -181 c 2,7,-1
 1156 128 l 1,8,-1
 1295 128 l 1,9,-1
 1295 -186 l 2,10,11
 1295 -303 1295 -303 1231 -361.5 c 128,-1,12
 1167 -420 1167 -420 1042 -420 c 0,13,14
 1016 -420 1016 -420 990.5 -419.5 c 128,-1,15
 965 -419 965 -419 947 -418 c 1,0,-1
176 0 m 1,16,-1
 176 1490 l 1,17,-1
 315 1490 l 1,18,-1
 315 825 l 1,19,-1
 1156 825 l 1,20,-1
 1156 1490 l 1,21,-1
 1295 1490 l 1,22,-1
 1295 0 l 1,23,-1
 1156 0 l 1,24,-1
 1156 700 l 1,25,-1
 315 700 l 1,26,-1
 315 0 l 1,27,-1
 176 0 l 1,16,-1
EndSplineSet
Position2: "'cpsp' Capital Spacing in Latin lookup 0 subtable" dx=0 dy=0 dh=0 dv=0
EndChar

StartChar: uni04A4
Encoding: 1188 1188 173
Width: 1957
GlyphClass: 2
Flags: W
AnchorPoint: "Anchor-3" 246 1 basechar 0
AnchorPoint: "Anchor-1" 736 1490 basechar 0
AnchorPoint: "Anchor-0" 736 0 basechar 0
LayerCount: 2
Fore
SplineSet
1877 1490 m 1,0,-1
 1877 1367 l 1,1,-1
 1246 1367 l 1,2,-1
 1161 1490 l 1,3,-1
 1877 1490 l 1,0,-1
176 0 m 1,4,-1
 176 1490 l 1,5,-1
 315 1490 l 1,6,-1
 315 825 l 1,7,-1
 1156 825 l 1,8,-1
 1156 1490 l 1,9,-1
 1295 1490 l 1,10,-1
 1295 0 l 1,11,-1
 1156 0 l 1,12,-1
 1156 700 l 1,13,-1
 315 700 l 1,14,-1
 315 0 l 1,15,-1
 176 0 l 1,4,-1
EndSplineSet
Position2: "'cpsp' Capital Spacing in Latin lookup 0 subtable" dx=0 dy=0 dh=0 dv=0
EndChar

StartChar: uni01F6
Encoding: 502 502 174
Width: 2198
Flags: W
LayerCount: 2
Fore
SplineSet
1605 -20 m 0,0,1
 1472 -20 1472 -20 1370.5 32 c 128,-1,2
 1269 84 1269 84 1212.5 184 c 128,-1,3
 1156 284 1156 284 1156 426 c 2,4,-1
 1156 692 l 1,5,-1
 315 692 l 1,6,-1
 315 0 l 1,7,-1
 176 0 l 1,8,-1
 176 1490 l 1,9,-1
 315 1490 l 1,10,-1
 315 817 l 1,11,-1
 1156 817 l 1,12,-1
 1156 1490 l 1,13,-1
 1296 1490 l 1,14,-1
 1296 429 l 2,15,16
 1296 324 1296 324 1332.5 251.5 c 128,-1,17
 1369 179 1369 179 1439 142.5 c 128,-1,18
 1509 106 1509 106 1605 106 c 0,19,20
 1703 106 1703 106 1772 142.5 c 128,-1,21
 1841 179 1841 179 1877 251.5 c 128,-1,22
 1913 324 1913 324 1913 429 c 2,23,-1
 1913 1091 l 1,24,-1
 2048 1091 l 1,25,-1
 2048 426 l 2,26,27
 2048 282 2048 282 1992 182 c 128,-1,28
 1936 82 1936 82 1836.5 31 c 128,-1,29
 1737 -20 1737 -20 1605 -20 c 0,0,1
EndSplineSet
Position2: "'cpsp' Capital Spacing in Latin lookup 0 subtable" dx=0 dy=0 dh=0 dv=0
EndChar

StartChar: I
Encoding: 73 73 197
Width: 491
GlyphClass: 2
Flags: W
AnchorPoint: "Anchor-4" 315 0 basechar 0
AnchorPoint: "Anchor-1" 246 1490 basechar 0
AnchorPoint: "Anchor-0" 246 0 basechar 0
LayerCount: 2
Fore
SplineSet
315 1490 m 1,0,-1
 315 0 l 1,1,-1
 176 0 l 1,2,-1
 176 1490 l 1,3,-1
 315 1490 l 1,0,-1
EndSplineSet
Substitution2: "'c2sc' Capitals to Small Capitals in Latin lookup 68 subtable" i.sc
Substitution2: "'cv08' Character Variants 08 in Latin lookup 62 subtable" I.1
Substitution2: "'ss06' Style Set 6 in Latin lookup 52 subtable" I.squared
Substitution2: "'ss05' Style Set 5 in Latin lookup 51 subtable" uni24BE
Substitution2: "'ss04' Style Set 4 in Latin lookup 50 subtable" I.1
Substitution2: "'ss02' Style Set 2 in Latin lookup 48 subtable" I.1
Substitution2: "'salt' Stylistic Alternatives in Latin lookup 46 subtable" I.1
Substitution2: "'aalt' Access All Alternates in Latin lookup 0 subtable" i.sc
Position2: "'cpsp' Capital Spacing in Latin lookup 0 subtable" dx=0 dy=0 dh=0 dv=0
EndChar

StartChar: I.1
Encoding: 57356 57356 235
Width: 746
GlyphClass: 2
Flags: W
AnchorPoint: "Anchor-4" 657 0 basechar 0
AnchorPoint: "Anchor-1" 373 1490 basechar 0
AnchorPoint: "Anchor-0" 373 0 basechar 0
LayerCount: 2
Fore
SplineSet
89 0 m 1,0,-1
 89 125 l 1,1,-1
 303 125 l 1,2,-1
 303 1365 l 1,3,-1
 89 1365 l 1,4,-1
 89 1490 l 1,5,-1
 657 1490 l 1,6,-1
 657 1365 l 1,7,-1
 442 1365 l 1,8,-1
 442 125 l 1,9,-1
 657 125 l 1,10,-1
 657 0 l 1,11,-1
 89 0 l 1,0,-1
EndSplineSet
EndChar

StartChar: J
Encoding: 74 74 267
Width: 1118
GlyphClass: 2
Flags: W
AnchorPoint: "Anchor-1" 885 1490 basechar 0
LayerCount: 2
Fore
SplineSet
529 -20 m 0,0,1
 339 -20 339 -20 221.5 94.5 c 128,-1,2
 104 209 104 209 104 415 c 2,3,-1
 104 491 l 1,4,-1
 243 491 l 1,5,-1
 243 415 l 2,6,7
 243 267 243 267 320.5 186 c 128,-1,8
 398 105 398 105 529 105 c 256,9,10
 660 105 660 105 738 186 c 128,-1,11
 816 267 816 267 816 415 c 2,12,-1
 816 1490 l 1,13,-1
 954 1490 l 1,14,-1
 954 415 l 2,15,16
 954 209 954 209 837 94.5 c 128,-1,17
 720 -20 720 -20 529 -20 c 0,0,1
EndSplineSet
Substitution2: "'ss06' Style Set 6 in Latin lookup 52 subtable" J.squared
Substitution2: "'ss05' Style Set 5 in Latin lookup 51 subtable" uni24BF
Position2: "'cpsp' Capital Spacing in Latin lookup 0 subtable" dx=0 dy=0 dh=0 dv=0
EndChar

StartChar: K
Encoding: 75 75 272
Width: 1283
GlyphClass: 2
Flags: W
AnchorPoint: "Anchor-1" 666 1490 basechar 0
AnchorPoint: "Anchor-0" 666 0 basechar 0
LayerCount: 2
Fore
SplineSet
274 463 m 1,0,-1
 269 626 l 1,1,2
 324 690 324 690 376 749.5 c 128,-1,3
 428 809 428 809 482 868.5 c 128,-1,4
 536 928 536 928 591 989 c 2,5,-1
 1057 1490 l 1,6,-1
 1239 1490 l 1,7,-1
 611 816 l 1,8,-1
 601 813 l 1,9,-1
 274 463 l 1,0,-1
176 0 m 1,10,-1
 176 1490 l 1,11,-1
 315 1490 l 1,12,-1
 315 971 l 1,13,-1
 314 635 l 1,14,-1
 315 565 l 1,15,-1
 315 0 l 1,16,-1
 176 0 l 1,10,-1
1075 0 m 1,17,-1
 517 784 l 1,18,-1
 605 889 l 1,19,-1
 1240 0 l 1,20,-1
 1075 0 l 1,17,-1
EndSplineSet
Substitution2: "'ss06' Style Set 6 in Latin lookup 52 subtable" K.squared
Substitution2: "'ss05' Style Set 5 in Latin lookup 51 subtable" uni24C0
Position2: "'cpsp' Capital Spacing in Latin lookup 0 subtable" dx=0 dy=0 dh=0 dv=0
EndChar

StartChar: uni04A0
Encoding: 1184 1184 278
Width: 1646
GlyphClass: 2
Flags: W
AnchorPoint: "Anchor-1" 994 1490 basechar 0
LayerCount: 2
Fore
SplineSet
587 1490 m 1,0,-1
 587 1368 l 1,1,-1
 81 1368 l 1,2,-1
 81 1490 l 1,3,-1
 587 1490 l 1,0,-1
518 0 m 1,4,-1
 518 1490 l 1,5,-1
 657 1490 l 1,6,-1
 657 822 l 1,7,-1
 893 822 l 1,8,-1
 1411 1490 l 1,9,-1
 1580 1490 l 1,10,-1
 1013 766 l 1,11,-1
 1603 0 l 1,12,-1
 1435 0 l 1,13,-1
 900 697 l 1,14,-1
 657 697 l 1,15,-1
 657 0 l 1,16,-1
 518 0 l 1,4,-1
EndSplineSet
Position2: "'cpsp' Capital Spacing in Latin lookup 0 subtable" dx=0 dy=0 dh=0 dv=0
EndChar

StartChar: uni0198
Encoding: 408 408 280
Width: 1327
Flags: W
LayerCount: 2
Fore
SplineSet
176 0 m 1,0,-1
 176 1490 l 1,1,-1
 315 1490 l 1,2,-1
 315 690 l 1,3,-1
 329 690 l 1,4,-1
 980 1408 l 2,5,6
 1032 1464 1032 1464 1093 1487 c 128,-1,7
 1154 1510 1154 1510 1216.5 1501 c 128,-1,8
 1279 1492 1279 1492 1330 1452 c 1,9,-1
 1271 1350 l 1,10,11
 1221 1383 1221 1383 1171.5 1374 c 128,-1,12
 1122 1365 1122 1365 1071 1309 c 2,13,-1
 601 802 l 1,14,-1
 1257 0 l 1,15,-1
 1087 0 l 1,16,-1
 514 703 l 1,17,-1
 315 482 l 1,18,-1
 315 0 l 1,19,-1
 176 0 l 1,0,-1
EndSplineSet
Position2: "'cpsp' Capital Spacing in Latin lookup 0 subtable" dx=0 dy=0 dh=0 dv=0
EndChar

StartChar: L
Encoding: 76 76 282
Width: 1117
GlyphClass: 2
Flags: W
AnchorPoint: "Anchor-1" 246 1490 basechar 0
AnchorPoint: "Anchor-0" 600 0 basechar 0
LayerCount: 2
Fore
SplineSet
176 0 m 1,0,-1
 176 1490 l 1,1,-1
 315 1490 l 1,2,-1
 315 125 l 1,3,-1
 1037 125 l 1,4,-1
 1037 0 l 1,5,-1
 176 0 l 1,0,-1
EndSplineSet
Substitution2: "'c2sc' Capitals to Small Capitals in Latin lookup 68 subtable" l.sc
Substitution2: "'ss06' Style Set 6 in Latin lookup 52 subtable" L.squared
Substitution2: "'ss05' Style Set 5 in Latin lookup 51 subtable" uni24C1
Substitution2: "'aalt' Access All Alternates in Latin lookup 0 subtable" l.sc
Position2: "'cpsp' Capital Spacing in Latin lookup 0 subtable" dx=0 dy=0 dh=0 dv=0
EndChar

StartChar: M
Encoding: 77 77 293
Width: 1791
GlyphClass: 2
Flags: W
AnchorPoint: "Anchor-1" 895 1490 basechar 0
AnchorPoint: "Anchor-0" 895 0 basechar 0
LayerCount: 2
Fore
SplineSet
176 0 m 1,0,-1
 176 1490 l 1,1,-1
 370 1490 l 1,2,-1
 789 461 l 2,3,4
 803 428 803 428 819.5 384.5 c 128,-1,5
 836 341 836 341 853 293 c 128,-1,6
 870 245 870 245 886 199 c 128,-1,7
 902 153 902 153 916 115 c 1,8,-1
 879 115 l 1,9,10
 892 153 892 153 908.5 198.5 c 128,-1,11
 925 244 925 244 942 291.5 c 128,-1,12
 959 339 959 339 975.5 383 c 128,-1,13
 992 427 992 427 1006 461 c 2,14,-1
 1422 1490 l 1,15,-1
 1615 1490 l 1,16,-1
 1615 0 l 1,17,-1
 1479 0 l 1,18,-1
 1479 951 l 2,19,20
 1479 996 1479 996 1479 1047.5 c 128,-1,21
 1479 1099 1479 1099 1480.5 1153.5 c 128,-1,22
 1482 1208 1482 1208 1483 1263.5 c 128,-1,23
 1484 1319 1484 1319 1484 1371 c 1,24,-1
 1503 1371 l 1,25,26
 1482 1312 1482 1312 1460.5 1252.5 c 128,-1,27
 1439 1193 1439 1193 1418.5 1138 c 128,-1,28
 1398 1083 1398 1083 1379.5 1035 c 128,-1,29
 1361 987 1361 987 1346 951 c 2,30,-1
 956 0 l 1,31,-1
 836 0 l 1,32,-1
 443 951 l 2,33,34
 428 988 428 988 410 1035 c 128,-1,35
 392 1082 392 1082 371 1136.5 c 128,-1,36
 350 1191 350 1191 328 1251 c 128,-1,37
 306 1311 306 1311 283 1371 c 1,38,-1
 305 1371 l 1,39,40
 306 1321 306 1321 307.5 1266 c 128,-1,41
 309 1211 309 1211 309.5 1156 c 128,-1,42
 310 1101 310 1101 311 1048.5 c 128,-1,43
 312 996 312 996 312 951 c 2,44,-1
 312 0 l 1,45,-1
 176 0 l 1,0,-1
EndSplineSet
Substitution2: "'c2sc' Capitals to Small Capitals in Latin lookup 68 subtable" m.sc
Substitution2: "'ss06' Style Set 6 in Latin lookup 52 subtable" M.squared
Substitution2: "'ss05' Style Set 5 in Latin lookup 51 subtable" uni24C2
Substitution2: "'aalt' Access All Alternates in Latin lookup 0 subtable" m.sc
Position2: "'cpsp' Capital Spacing in Latin lookup 0 subtable" dx=0 dy=0 dh=0 dv=0
EndChar

StartChar: N
Encoding: 78 78 301
Width: 1505
GlyphClass: 2
Flags: W
AnchorPoint: "Anchor-1" 753 1490 basechar 0
AnchorPoint: "Anchor-0" 753 0 basechar 0
LayerCount: 2
Fore
SplineSet
176 0 m 1,0,-1
 176 1490 l 1,1,-1
 335 1490 l 1,2,-1
 1016 473 l 2,3,4
 1043 433 1043 433 1076.5 379 c 128,-1,5
 1110 325 1110 325 1147.5 263.5 c 128,-1,6
 1185 202 1185 202 1221 138 c 1,7,-1
 1201 126 l 1,8,9
 1196 189 1196 189 1194 256.5 c 128,-1,10
 1192 324 1192 324 1191 384.5 c 128,-1,11
 1190 445 1190 445 1190 488 c 2,12,-1
 1190 1490 l 1,13,-1
 1329 1490 l 1,14,-1
 1329 0 l 1,15,-1
 1169 0 l 1,16,-1
 533 946 l 2,17,18
 501 995 501 995 464 1054 c 128,-1,19
 427 1113 427 1113 382 1186 c 128,-1,20
 337 1259 337 1259 281 1352 c 1,21,-1
 305 1368 l 1,22,23
 308 1274 308 1274 310 1195.5 c 128,-1,24
 312 1117 312 1117 314 1054 c 128,-1,25
 316 991 316 991 316 948 c 2,26,-1
 316 0 l 1,27,-1
 176 0 l 1,0,-1
EndSplineSet
Substitution2: "'c2sc' Capitals to Small Capitals in Latin lookup 68 subtable" n.sc
Substitution2: "'ss06' Style Set 6 in Latin lookup 52 subtable" N.squared
Substitution2: "'ss05' Style Set 5 in Latin lookup 51 subtable" uni24C3
Substitution2: "'aalt' Access All Alternates in Latin lookup 0 subtable" n.sc
Position2: "'cpsp' Capital Spacing in Latin lookup 0 subtable" dx=0 dy=0 dh=0 dv=0
EndChar

StartChar: Nhook
Encoding: 413 413 311
Width: 1505
GlyphClass: 2
Flags: W
AnchorPoint: "Anchor-1" 753 1490 basechar 0
AnchorPoint: "Anchor-0" 753 0 basechar 0
LayerCount: 2
Fore
SplineSet
-33 -418 m 1,0,-1
 -33 -297 l 1,1,2
 -16 -299 -16 -299 7 -299 c 128,-1,3
 30 -299 30 -299 43 -299 c 0,4,5
 117 -299 117 -299 146.5 -271.5 c 128,-1,6
 176 -244 176 -244 176 -181 c 2,7,-1
 176 128 l 1,8,-1
 315 128 l 1,9,-1
 315 -186 l 2,10,11
 315 -303 315 -303 251 -361.5 c 128,-1,12
 187 -420 187 -420 62 -420 c 0,13,14
 36 -420 36 -420 10.5 -419.5 c 128,-1,15
 -15 -419 -15 -419 -33 -418 c 1,0,-1
176 0 m 1,16,-1
 176 1490 l 1,17,-1
 335 1490 l 1,18,-1
 1016 473 l 2,19,20
 1043 433 1043 433 1076.5 379 c 128,-1,21
 1110 325 1110 325 1147.5 263.5 c 128,-1,22
 1185 202 1185 202 1221 138 c 1,23,-1
 1201 126 l 1,24,25
 1196 189 1196 189 1194 256.5 c 128,-1,26
 1192 324 1192 324 1191 384.5 c 128,-1,27
 1190 445 1190 445 1190 488 c 2,28,-1
 1190 1490 l 1,29,-1
 1329 1490 l 1,30,-1
 1329 0 l 1,31,-1
 1169 0 l 1,32,-1
 533 946 l 2,33,34
 501 995 501 995 464 1054 c 128,-1,35
 427 1113 427 1113 382 1186 c 128,-1,36
 337 1259 337 1259 281 1352 c 1,37,-1
 305 1368 l 1,38,39
 308 1274 308 1274 310 1195.5 c 128,-1,40
 312 1117 312 1117 314 1054 c 128,-1,41
 316 991 316 991 316 948 c 2,42,-1
 316 0 l 1,43,-1
 176 0 l 1,16,-1
EndSplineSet
Position2: "'cpsp' Capital Spacing in Latin lookup 0 subtable" dx=0 dy=0 dh=0 dv=0
EndChar

StartChar: Eng
Encoding: 330 330 312
Width: 1505
GlyphClass: 2
Flags: W
AnchorPoint: "Anchor-1" 753 1490 basechar 0
AnchorPoint: "Anchor-0" 753 0 basechar 0
LayerCount: 2
Fore
SplineSet
984 -418 m 1,0,-1
 984 -297 l 1,1,2
 1001 -299 1001 -299 1024.5 -299 c 128,-1,3
 1048 -299 1048 -299 1061 -299 c 0,4,5
 1134 -299 1134 -299 1163.5 -271.5 c 128,-1,6
 1193 -244 1193 -244 1193 -181 c 2,7,-1
 1193 128 l 1,8,-1
 1332 128 l 1,9,-1
 1332 -186 l 2,10,11
 1332 -303 1332 -303 1268 -361.5 c 128,-1,12
 1204 -420 1204 -420 1080 -420 c 0,13,14
 1053 -420 1053 -420 1027.5 -419.5 c 128,-1,15
 1002 -419 1002 -419 984 -418 c 1,0,-1
176 0 m 1,16,-1
 176 1490 l 1,17,-1
 335 1490 l 1,18,-1
 1016 473 l 2,19,20
 1043 433 1043 433 1076.5 379 c 128,-1,21
 1110 325 1110 325 1147.5 263.5 c 128,-1,22
 1185 202 1185 202 1221 138 c 1,23,-1
 1201 126 l 1,24,25
 1196 189 1196 189 1194 256.5 c 128,-1,26
 1192 324 1192 324 1191 384.5 c 128,-1,27
 1190 445 1190 445 1190 488 c 2,28,-1
 1190 1490 l 1,29,-1
 1329 1490 l 1,30,-1
 1329 0 l 1,31,-1
 1169 0 l 1,32,-1
 533 946 l 2,33,34
 501 995 501 995 464 1054 c 128,-1,35
 427 1113 427 1113 382 1186 c 128,-1,36
 337 1259 337 1259 281 1352 c 1,37,-1
 305 1368 l 1,38,39
 308 1274 308 1274 310 1195.5 c 128,-1,40
 312 1117 312 1117 314 1054 c 128,-1,41
 316 991 316 991 316 948 c 2,42,-1
 316 0 l 1,43,-1
 176 0 l 1,16,-1
EndSplineSet
Position2: "'cpsp' Capital Spacing in Latin lookup 0 subtable" dx=0 dy=0 dh=0 dv=0
EndChar

StartChar: uni0418
Encoding: 1048 1048 313
Width: 1505
GlyphClass: 2
Flags: W
AnchorPoint: "Anchor-1" 755 1490 basechar 0
AnchorPoint: "Anchor-0" 752 0 basechar 0
LayerCount: 2
Fore
SplineSet
1329 0 m 1,0,-1
 1189 0 l 1,1,-1
 1189 948 l 2,2,3
 1189 991 1189 991 1191 1054 c 128,-1,4
 1193 1117 1193 1117 1195.5 1195.5 c 128,-1,5
 1198 1274 1198 1274 1200 1368 c 1,6,-1
 1224 1352 l 1,7,8
 1168 1259 1168 1259 1123 1186 c 128,-1,9
 1078 1113 1078 1113 1041.5 1054 c 128,-1,10
 1005 995 1005 995 972 946 c 2,11,-1
 336 0 l 1,12,-1
 176 0 l 1,13,-1
 176 1490 l 1,14,-1
 315 1490 l 1,15,-1
 315 488 l 2,16,17
 315 445 315 445 314 384.5 c 128,-1,18
 313 324 313 324 310.5 256.5 c 128,-1,19
 308 189 308 189 304 126 c 1,20,-1
 284 138 l 1,21,22
 321 202 321 202 358 263.5 c 128,-1,23
 395 325 395 325 429 379 c 128,-1,24
 463 433 463 433 489 473 c 2,25,-1
 1170 1490 l 1,26,-1
 1329 1490 l 1,27,-1
 1329 0 l 1,0,-1
EndSplineSet
Position2: "'cpsp' Capital Spacing in Latin lookup 0 subtable" dx=0 dy=0 dh=0 dv=0
EndChar

StartChar: O
Encoding: 79 79 322
Width: 1522
GlyphClass: 2
Flags: W
AnchorPoint: "Anchor-4" 1413 744 basechar 0
AnchorPoint: "Anchor-1" 762 1490 basechar 0
AnchorPoint: "Anchor-0" 762 0 basechar 0
LayerCount: 2
Fore
SplineSet
762 -21 m 256,0,1
 572 -21 572 -21 424 75.5 c 128,-1,2
 276 172 276 172 192.5 344 c 128,-1,3
 109 516 109 516 109 744 c 0,4,5
 109 974 109 974 193 1146.5 c 128,-1,6
 277 1319 277 1319 424.5 1415 c 128,-1,7
 572 1511 572 1511 762 1511 c 256,8,9
 952 1511 952 1511 1099.5 1415 c 128,-1,10
 1247 1319 1247 1319 1330 1146.5 c 128,-1,11
 1413 974 1413 974 1413 744 c 0,12,13
 1413 516 1413 516 1330 343.5 c 128,-1,14
 1247 171 1247 171 1099.5 75 c 128,-1,15
 952 -21 952 -21 762 -21 c 256,0,1
762 109 m 0,16,17
 908 109 908 109 1024 185 c 128,-1,18
 1140 261 1140 261 1208 403.5 c 128,-1,19
 1276 546 1276 546 1276 744 c 0,20,21
 1276 944 1276 944 1208 1086.5 c 128,-1,22
 1140 1229 1140 1229 1024 1305 c 128,-1,23
 908 1381 908 1381 762 1381 c 256,24,25
 616 1381 616 1381 499 1305.5 c 128,-1,26
 382 1230 382 1230 314.5 1087.5 c 128,-1,27
 247 945 247 945 247 744 c 0,28,29
 247 546 247 546 314.5 404 c 128,-1,30
 382 262 382 262 498.5 185.5 c 128,-1,31
 615 109 615 109 762 109 c 0,16,17
EndSplineSet
Substitution2: "'ss06' Style Set 6 in Latin lookup 52 subtable" O.squared
Substitution2: "'ss05' Style Set 5 in Latin lookup 51 subtable" uni24C4
Substitution2: "Single Substitution lookup 44 subtable" ordmasculine
Substitution2: "'aalt' Access All Alternates in Latin lookup 0 subtable" ordmasculine
Position2: "'cpsp' Capital Spacing in Latin lookup 0 subtable" dx=0 dy=0 dh=0 dv=0
EndChar

StartChar: Ohorn
Encoding: 416 416 326
Width: 1520
GlyphClass: 2
Flags: W
AnchorPoint: "Anchor-4" 1413 744 basechar 0
AnchorPoint: "Anchor-1" 762 1490 basechar 0
AnchorPoint: "Anchor-0" 762 0 basechar 0
LayerCount: 2
Fore
SplineSet
761 1408 m 1,0,-1
 761 1511 l 1,1,2
 821 1511 821 1511 860.5 1508.5 c 128,-1,3
 900 1506 900 1506 943.5 1501.5 c 128,-1,4
 987 1497 987 1497 1056.5 1493.5 c 128,-1,5
 1126 1490 1126 1490 1244 1490 c 0,6,7
 1282 1490 1282 1490 1282 1528 c 2,8,-1
 1282 1714 l 1,9,-1
 1411 1714 l 1,10,-1
 1411 1534 l 2,11,12
 1411 1458 1411 1458 1372 1419 c 128,-1,13
 1333 1380 1333 1380 1256 1380 c 0,14,15
 1202 1380 1202 1380 1158 1384.5 c 128,-1,16
 1114 1389 1114 1389 1062.5 1394.5 c 128,-1,17
 1011 1400 1011 1400 940 1403.5 c 128,-1,18
 869 1407 869 1407 761 1408 c 1,0,-1
762 -21 m 256,19,20
 572 -21 572 -21 424 75.5 c 128,-1,21
 276 172 276 172 192.5 344 c 128,-1,22
 109 516 109 516 109 744 c 0,23,24
 109 974 109 974 193 1146.5 c 128,-1,25
 277 1319 277 1319 424.5 1415 c 128,-1,26
 572 1511 572 1511 762 1511 c 256,27,28
 952 1511 952 1511 1099.5 1415 c 128,-1,29
 1247 1319 1247 1319 1330 1146.5 c 128,-1,30
 1413 974 1413 974 1413 744 c 0,31,32
 1413 516 1413 516 1330 343.5 c 128,-1,33
 1247 171 1247 171 1099.5 75 c 128,-1,34
 952 -21 952 -21 762 -21 c 256,19,20
762 109 m 0,35,36
 908 109 908 109 1024 185 c 128,-1,37
 1140 261 1140 261 1208 403.5 c 128,-1,38
 1276 546 1276 546 1276 744 c 0,39,40
 1276 944 1276 944 1208 1086.5 c 128,-1,41
 1140 1229 1140 1229 1024 1305 c 128,-1,42
 908 1381 908 1381 762 1381 c 256,43,44
 616 1381 616 1381 499 1305.5 c 128,-1,45
 382 1230 382 1230 314.5 1087.5 c 128,-1,46
 247 945 247 945 247 744 c 0,47,48
 247 546 247 546 314.5 404 c 128,-1,49
 382 262 382 262 498.5 185.5 c 128,-1,50
 615 109 615 109 762 109 c 0,35,36
EndSplineSet
Position2: "'cpsp' Capital Spacing in Latin lookup 0 subtable" dx=0 dy=0 dh=0 dv=0
EndChar

StartChar: uni03F4
Encoding: 1012 1012 368
Width: 1522
GlyphClass: 2
Flags: W
AnchorPoint: "Anchor-4" 1413 744 basechar 0
AnchorPoint: "Anchor-1" 762 1490 basechar 0
AnchorPoint: "Anchor-0" 762 0 basechar 0
LayerCount: 2
Fore
SplineSet
1291 805 m 1,0,-1
 1291 683 l 1,1,-1
 217 683 l 1,2,-1
 217 805 l 1,3,-1
 1291 805 l 1,0,-1
762 -21 m 256,4,5
 572 -21 572 -21 424 75.5 c 128,-1,6
 276 172 276 172 192.5 344 c 128,-1,7
 109 516 109 516 109 744 c 0,8,9
 109 974 109 974 193 1146.5 c 128,-1,10
 277 1319 277 1319 424.5 1415 c 128,-1,11
 572 1511 572 1511 762 1511 c 256,12,13
 952 1511 952 1511 1099.5 1415 c 128,-1,14
 1247 1319 1247 1319 1330 1146.5 c 128,-1,15
 1413 974 1413 974 1413 744 c 0,16,17
 1413 516 1413 516 1330 343.5 c 128,-1,18
 1247 171 1247 171 1099.5 75 c 128,-1,19
 952 -21 952 -21 762 -21 c 256,4,5
762 109 m 0,20,21
 908 109 908 109 1024 185 c 128,-1,22
 1140 261 1140 261 1208 403.5 c 128,-1,23
 1276 546 1276 546 1276 744 c 0,24,25
 1276 944 1276 944 1208 1086.5 c 128,-1,26
 1140 1229 1140 1229 1024 1305 c 128,-1,27
 908 1381 908 1381 762 1381 c 256,28,29
 616 1381 616 1381 499 1305.5 c 128,-1,30
 382 1230 382 1230 314.5 1087.5 c 128,-1,31
 247 945 247 945 247 744 c 0,32,33
 247 546 247 546 314.5 404 c 128,-1,34
 382 262 382 262 498.5 185.5 c 128,-1,35
 615 109 615 109 762 109 c 0,20,21
EndSplineSet
Position2: "'cpsp' Capital Spacing in Latin lookup 0 subtable" dx=0 dy=0 dh=0 dv=0
EndChar

StartChar: OE
Encoding: 338 338 375
Width: 1982
GlyphClass: 2
Flags: W
AnchorPoint: "Anchor-4" 1877 0 basechar 0
AnchorPoint: "Anchor-3" 1422 0 basechar 0
AnchorPoint: "Anchor-1" 1419 1490 basechar 0
AnchorPoint: "Anchor-0" 1419 0 basechar 0
LayerCount: 2
Fore
SplineSet
776 0 m 2,0,1
 573 0 573 0 423.5 93 c 128,-1,2
 274 186 274 186 191.5 353.5 c 128,-1,3
 109 521 109 521 109 745 c 0,4,5
 109 971 109 971 191.5 1138.5 c 128,-1,6
 274 1306 274 1306 421.5 1398 c 128,-1,7
 569 1490 569 1490 769 1490 c 2,8,-1
 1022 1490 l 1,9,-1
 1022 1365 l 1,10,-1
 773 1365 l 2,11,12
 610 1365 610 1365 491.5 1289 c 128,-1,13
 373 1213 373 1213 309 1074 c 128,-1,14
 245 935 245 935 245 745 c 0,15,16
 245 558 245 558 309 418.5 c 128,-1,17
 373 279 373 279 492.5 202 c 128,-1,18
 612 125 612 125 780 125 c 2,19,-1
 1020 125 l 1,20,-1
 1020 0 l 1,21,-1
 776 0 l 2,0,1
962 0 m 1,22,-1
 962 1490 l 1,23,-1
 1869 1490 l 1,24,-1
 1869 1365 l 1,25,-1
 1100 1365 l 1,26,-1
 1100 819 l 1,27,-1
 1814 819 l 1,28,-1
 1814 694 l 1,29,-1
 1100 694 l 1,30,-1
 1100 125 l 1,31,-1
 1877 125 l 1,32,-1
 1877 0 l 1,33,-1
 962 0 l 1,22,-1
EndSplineSet
Substitution2: "'c2sc' Capitals to Small Capitals in Latin lookup 68 subtable" oe.sc
Substitution2: "'aalt' Access All Alternates in Latin lookup 0 subtable" oe.sc
Position2: "'cpsp' Capital Spacing in Latin lookup 0 subtable" dx=0 dy=0 dh=0 dv=0
EndChar

StartChar: P
Encoding: 80 80 376
Width: 1249
GlyphClass: 2
Flags: W
AnchorPoint: "Anchor-1" 625 1490 basechar 0
LayerCount: 2
Fore
SplineSet
176 0 m 1,0,-1
 176 1490 l 1,1,-1
 678 1490 l 2,2,3
 830 1490 830 1490 937 1432.5 c 128,-1,4
 1044 1375 1044 1375 1101 1273 c 128,-1,5
 1158 1171 1158 1171 1158 1038 c 256,6,7
 1158 905 1158 905 1100.5 803 c 128,-1,8
 1043 701 1043 701 935.5 643 c 128,-1,9
 828 585 828 585 676 585 c 2,10,-1
 264 585 l 1,11,-1
 264 710 l 1,12,-1
 673 710 l 2,13,14
 785 710 785 710 862.5 751.5 c 128,-1,15
 940 793 940 793 980.5 867 c 128,-1,16
 1021 941 1021 941 1021 1038 c 0,17,18
 1021 1136 1021 1136 980.5 1209.5 c 128,-1,19
 940 1283 940 1283 862.5 1324.5 c 128,-1,20
 785 1366 785 1366 673 1366 c 2,21,-1
 315 1366 l 1,22,-1
 315 0 l 1,23,-1
 176 0 l 1,0,-1
EndSplineSet
Substitution2: "'ss06' Style Set 6 in Latin lookup 52 subtable" P.squared
Substitution2: "'ss05' Style Set 5 in Latin lookup 51 subtable" uni24C5
Position2: "'cpsp' Capital Spacing in Latin lookup 0 subtable" dx=0 dy=0 dh=0 dv=0
EndChar

StartChar: uni048E
Encoding: 1166 1166 379
Width: 1239
GlyphClass: 2
Flags: W
AnchorPoint: "Anchor-1" 622 1490 basechar 0
LayerCount: 2
Fore
SplineSet
806 945 m 1,0,-1
 1085 517 l 1,1,-1
 983 451 l 1,2,-1
 703 880 l 1,3,-1
 806 945 l 1,0,-1
173 0 m 1,4,-1
 173 1490 l 1,5,-1
 675 1490 l 2,6,7
 827 1490 827 1490 934.5 1432.5 c 128,-1,8
 1042 1375 1042 1375 1098.5 1273 c 128,-1,9
 1155 1171 1155 1171 1155 1038 c 256,10,11
 1155 905 1155 905 1097.5 803 c 128,-1,12
 1040 701 1040 701 932.5 643 c 128,-1,13
 825 585 825 585 674 585 c 2,14,-1
 261 585 l 1,15,-1
 261 710 l 1,16,-1
 671 710 l 2,17,18
 782 710 782 710 859.5 751.5 c 128,-1,19
 937 793 937 793 977.5 867 c 128,-1,20
 1018 941 1018 941 1018 1038 c 0,21,22
 1018 1136 1018 1136 977.5 1209.5 c 128,-1,23
 937 1283 937 1283 859.5 1324.5 c 128,-1,24
 782 1366 782 1366 670 1366 c 2,25,-1
 312 1366 l 1,26,-1
 312 0 l 1,27,-1
 173 0 l 1,4,-1
EndSplineSet
Position2: "'cpsp' Capital Spacing in Latin lookup 0 subtable" dx=0 dy=0 dh=0 dv=0
EndChar

StartChar: uni01A4
Encoding: 420 420 380
Width: 1489
GlyphClass: 2
Flags: W
AnchorPoint: "Anchor-1" 865 1490 basechar 0
LayerCount: 2
Fore
SplineSet
53 1094 m 1,0,-1
 53 1234 l 2,1,2
 53 1362 53 1362 119 1426 c 128,-1,3
 185 1490 185 1490 315 1490 c 2,4,-1
 416 1490 l 1,5,-1
 416 1366 l 1,6,-1
 318 1366 l 2,7,8
 247 1366 247 1366 215 1333.5 c 128,-1,9
 183 1301 183 1301 183 1232 c 2,10,-1
 183 1094 l 1,11,-1
 53 1094 l 1,0,-1
416 0 m 1,12,-1
 416 1490 l 1,13,-1
 918 1490 l 2,14,15
 1070 1490 1070 1490 1177 1432.5 c 128,-1,16
 1284 1375 1284 1375 1341 1273 c 128,-1,17
 1398 1171 1398 1171 1398 1038 c 256,18,19
 1398 905 1398 905 1340.5 803 c 128,-1,20
 1283 701 1283 701 1175.5 643 c 128,-1,21
 1068 585 1068 585 916 585 c 2,22,-1
 504 585 l 1,23,-1
 504 710 l 1,24,-1
 913 710 l 2,25,26
 1025 710 1025 710 1102.5 751.5 c 128,-1,27
 1180 793 1180 793 1220.5 867 c 128,-1,28
 1261 941 1261 941 1261 1038 c 0,29,30
 1261 1136 1261 1136 1220.5 1209.5 c 128,-1,31
 1180 1283 1180 1283 1102.5 1324.5 c 128,-1,32
 1025 1366 1025 1366 913 1366 c 2,33,-1
 555 1366 l 1,34,-1
 555 0 l 1,35,-1
 416 0 l 1,12,-1
EndSplineSet
Position2: "'cpsp' Capital Spacing in Latin lookup 0 subtable" dx=0 dy=0 dh=0 dv=0
EndChar

StartChar: Q
Encoding: 81 81 383
Width: 1522
GlyphClass: 2
Flags: W
AnchorPoint: "Anchor-4" 1413 744 basechar 0
AnchorPoint: "Anchor-1" 762 1490 basechar 0
AnchorPoint: "Anchor-0" 762 0 basechar 0
LayerCount: 2
Fore
SplineSet
735 466 m 1,0,-1
 886 466 l 1,1,-1
 1077 214 l 1,2,-1
 1108 171 l 1,3,-1
 1342 -140 l 1,4,-1
 1191 -140 l 1,5,-1
 1020 89 l 1,6,-1
 989 130 l 1,7,-1
 735 466 l 1,0,-1
762 -21 m 256,8,9
 572 -21 572 -21 424 75.5 c 128,-1,10
 276 172 276 172 192.5 344 c 128,-1,11
 109 516 109 516 109 744 c 0,12,13
 109 974 109 974 193 1146.5 c 128,-1,14
 277 1319 277 1319 424.5 1415 c 128,-1,15
 572 1511 572 1511 762 1511 c 256,16,17
 952 1511 952 1511 1099.5 1415 c 128,-1,18
 1247 1319 1247 1319 1330 1146.5 c 128,-1,19
 1413 974 1413 974 1413 744 c 0,20,21
 1413 516 1413 516 1330 343.5 c 128,-1,22
 1247 171 1247 171 1099.5 75 c 128,-1,23
 952 -21 952 -21 762 -21 c 256,8,9
762 109 m 0,24,25
 908 109 908 109 1024 185 c 128,-1,26
 1140 261 1140 261 1208 403.5 c 128,-1,27
 1276 546 1276 546 1276 744 c 0,28,29
 1276 944 1276 944 1208 1086.5 c 128,-1,30
 1140 1229 1140 1229 1024 1305 c 128,-1,31
 908 1381 908 1381 762 1381 c 256,32,33
 616 1381 616 1381 499 1305.5 c 128,-1,34
 382 1230 382 1230 314.5 1087.5 c 128,-1,35
 247 945 247 945 247 744 c 0,36,37
 247 546 247 546 314.5 404 c 128,-1,38
 382 262 382 262 498.5 185.5 c 128,-1,39
 615 109 615 109 762 109 c 0,24,25
EndSplineSet
Substitution2: "'ss06' Style Set 6 in Latin lookup 52 subtable" Q.squared
Substitution2: "'ss05' Style Set 5 in Latin lookup 51 subtable" uni24C6
Position2: "'cpsp' Capital Spacing in Latin lookup 0 subtable" dx=0 dy=0 dh=0 dv=0
EndChar

StartChar: Q_rthook
Encoding: 586 586 384
Width: 1520
GlyphClass: 2
Flags: W
LayerCount: 2
Fore
SplineSet
1344 1490 m 1,0,-1
 1344 0 l 1,1,-1
 1212 0 l 1,2,-1
 1212 285 l 1,3,-1
 1205 285 l 1,4,5
 1148 138 1148 138 1026 57.5 c 128,-1,6
 904 -23 904 -23 743 -23 c 0,7,8
 604 -23 604 -23 488 33.5 c 128,-1,9
 372 90 372 90 287 193 c 128,-1,10
 202 296 202 296 155.5 437.5 c 128,-1,11
 109 579 109 579 109 747 c 256,12,13
 109 915 109 915 156 1054.5 c 128,-1,14
 203 1194 203 1194 288 1297 c 128,-1,15
 373 1400 373 1400 489.5 1455.5 c 128,-1,16
 606 1511 606 1511 746 1511 c 0,17,18
 906 1511 906 1511 1027 1432 c 128,-1,19
 1148 1353 1148 1353 1205 1210 c 1,20,-1
 1212 1210 l 1,21,-1
 1212 1490 l 1,22,-1
 1344 1490 l 1,0,-1
747 109 m 0,23,24
 899 109 899 109 1003 189 c 128,-1,25
 1107 269 1107 269 1161 412.5 c 128,-1,26
 1215 556 1215 556 1215 746 c 256,27,28
 1215 936 1215 936 1160 1079.5 c 128,-1,29
 1105 1223 1105 1223 1000.5 1303 c 128,-1,30
 896 1383 896 1383 748 1383 c 256,31,32
 600 1383 600 1383 486.5 1301.5 c 128,-1,33
 373 1220 373 1220 310.5 1077 c 128,-1,34
 248 934 248 934 248 746 c 0,35,36
 248 555 248 555 311 411.5 c 128,-1,37
 374 268 374 268 487 188.5 c 128,-1,38
 600 109 600 109 747 109 c 0,23,24
1465 -420 m 0,39,40
 1341 -420 1341 -420 1276.5 -361.5 c 128,-1,41
 1212 -303 1212 -303 1212 -186 c 2,42,-1
 1212 0 l 1,43,-1
 1344 0 l 1,44,-1
 1344 -186 l 2,45,46
 1344 -249 1344 -249 1375.5 -277 c 128,-1,47
 1407 -305 1407 -305 1480 -305 c 0,48,49
 1494 -305 1494 -305 1517.5 -304.5 c 128,-1,50
 1541 -304 1541 -304 1558 -303 c 1,51,-1
 1558 -418 l 1,52,53
 1540 -419 1540 -419 1516 -419.5 c 128,-1,54
 1492 -420 1492 -420 1465 -420 c 0,39,40
EndSplineSet
Position2: "'cpsp' Capital Spacing in Latin lookup 0 subtable" dx=0 dy=0 dh=0 dv=0
EndChar

StartChar: R
Encoding: 82 82 385
Width: 1279
GlyphClass: 2
Flags: W
AnchorPoint: "Anchor-1" 635 1490 basechar 0
AnchorPoint: "Anchor-0" 650 0 basechar 0
LayerCount: 2
Fore
SplineSet
176 0 m 1,0,-1
 176 1490 l 1,1,-1
 685 1490 l 2,2,3
 836 1490 836 1490 943.5 1434.5 c 128,-1,4
 1051 1379 1051 1379 1108 1278 c 128,-1,5
 1165 1177 1165 1177 1165 1044 c 256,6,7
 1165 911 1165 911 1107 811.5 c 128,-1,8
 1049 712 1049 712 940.5 657 c 128,-1,9
 832 602 832 602 680 602 c 2,10,-1
 253 602 l 1,11,-1
 253 727 l 1,12,-1
 681 727 l 2,13,14
 791 727 791 727 868.5 766 c 128,-1,15
 946 805 946 805 986.5 876.5 c 128,-1,16
 1027 948 1027 948 1027 1044 c 0,17,18
 1027 1142 1027 1142 986.5 1214.5 c 128,-1,19
 946 1287 946 1287 868.5 1326.5 c 128,-1,20
 791 1366 791 1366 680 1366 c 2,21,-1
 315 1366 l 1,22,-1
 315 0 l 1,23,-1
 176 0 l 1,0,-1
1044 0 m 1,24,-1
 683 674 l 1,25,-1
 840 674 l 1,26,-1
 1204 0 l 1,27,-1
 1044 0 l 1,24,-1
EndSplineSet
Substitution2: "'c2sc' Capitals to Small Capitals in Latin lookup 68 subtable" r.sc
Substitution2: "'ss06' Style Set 6 in Latin lookup 52 subtable" R.squared
Substitution2: "'ss05' Style Set 5 in Latin lookup 51 subtable" uni24C7
Substitution2: "'aalt' Access All Alternates in Latin lookup 0 subtable" r.sc
Position2: "'cpsp' Capital Spacing in Latin lookup 0 subtable" dx=0 dy=0 dh=0 dv=0
EndChar

StartChar: uni211F
Encoding: 8479 8479 395
Width: 1251
GlyphClass: 2
Flags: W
AnchorPoint: "Anchor-1" 633 1490 basechar 0
AnchorPoint: "Anchor-0" 648 0 basechar 0
LayerCount: 2
Fore
SplineSet
966 1674 m 1,0,-1
 349 -344 l 1,1,-1
 258 -325 l 1,2,-1
 854 1618 l 1,3,-1
 531 1723 l 1,4,-1
 563 1809 l 1,5,-1
 966 1674 l 1,0,-1
174 0 m 1,6,-1
 174 1490 l 1,7,-1
 683 1490 l 2,8,9
 834 1490 834 1490 941.5 1434.5 c 128,-1,10
 1049 1379 1049 1379 1106 1278 c 128,-1,11
 1163 1177 1163 1177 1163 1044 c 256,12,13
 1163 911 1163 911 1105 811.5 c 128,-1,14
 1047 712 1047 712 938.5 657 c 128,-1,15
 830 602 830 602 678 602 c 2,16,-1
 251 602 l 1,17,-1
 251 727 l 1,18,-1
 679 727 l 2,19,20
 789 727 789 727 866.5 766 c 128,-1,21
 944 805 944 805 984.5 876.5 c 128,-1,22
 1025 948 1025 948 1025 1044 c 0,23,24
 1025 1142 1025 1142 984.5 1214.5 c 128,-1,25
 944 1287 944 1287 866.5 1326.5 c 128,-1,26
 789 1366 789 1366 678 1366 c 2,27,-1
 313 1366 l 1,28,-1
 313 0 l 1,29,-1
 174 0 l 1,6,-1
1042 0 m 1,30,-1
 681 674 l 1,31,-1
 838 674 l 1,32,-1
 1202 0 l 1,33,-1
 1042 0 l 1,30,-1
EndSplineSet
EndChar

StartChar: Rx
Encoding: 8478 8478 396
Width: 1295
Flags: W
LayerCount: 2
Fore
SplineSet
176 1490 m 1,0,-1
 656 1490 l 2,1,2
 816 1490 816 1490 922 1431 c 128,-1,3
 1028 1372 1028 1372 1080.5 1270.5 c 128,-1,4
 1133 1169 1133 1169 1133 1043 c 0,5,6
 1133 924 1133 924 1087.5 834 c 128,-1,7
 1042 744 1042 744 959 686.5 c 128,-1,8
 876 629 876 629 760 610 c 1,9,-1
 718 599 l 1,10,-1
 280 599 l 1,11,-1
 280 728 l 1,12,-1
 644 728 l 2,13,14
 767 728 767 728 844.5 768 c 128,-1,15
 922 808 922 808 959 879 c 128,-1,16
 996 950 996 950 996 1043 c 0,17,18
 996 1128 996 1128 962.5 1201 c 128,-1,19
 929 1274 929 1274 855 1320 c 128,-1,20
 781 1366 781 1366 656 1366 c 2,21,-1
 315 1366 l 1,22,-1
 315 0 l 1,23,-1
 176 0 l 1,24,-1
 176 1490 l 1,0,-1
1097 0 m 1,25,-1
 616 663 l 1,26,-1
 772 663 l 1,27,-1
 1259 0 l 1,28,-1
 1097 0 l 1,25,-1
776 0 m 1,29,-1
 617 0 l 1,30,-1
 1102 664 l 1,31,-1
 1257 664 l 1,32,-1
 776 0 l 1,29,-1
EndSplineSet
EndChar

StartChar: uni024C
Encoding: 588 588 397
Width: 1265
GlyphClass: 2
Flags: W
AnchorPoint: "Anchor-1" 648 1490 basechar 0
AnchorPoint: "Anchor-0" 662 0 basechar 0
LayerCount: 2
Fore
SplineSet
262 602 m 1,0,-1
 5 602 l 1,1,-1
 5 726 l 1,2,-1
 262 726 l 1,3,-1
 262 602 l 1,0,-1
189 0 m 1,4,-1
 189 1490 l 1,5,-1
 698 1490 l 2,6,7
 849 1490 849 1490 956.5 1434.5 c 128,-1,8
 1064 1379 1064 1379 1121 1278 c 128,-1,9
 1178 1177 1178 1177 1178 1044 c 256,10,11
 1178 911 1178 911 1119.5 811.5 c 128,-1,12
 1061 712 1061 712 953 657 c 128,-1,13
 845 602 845 602 693 602 c 2,14,-1
 265 602 l 1,15,-1
 265 727 l 1,16,-1
 694 727 l 2,17,18
 804 727 804 727 881 766 c 128,-1,19
 958 805 958 805 998.5 876.5 c 128,-1,20
 1039 948 1039 948 1039 1044 c 0,21,22
 1039 1142 1039 1142 998.5 1214.5 c 128,-1,23
 958 1287 958 1287 880.5 1326.5 c 128,-1,24
 803 1366 803 1366 692 1366 c 2,25,-1
 327 1366 l 1,26,-1
 327 0 l 1,27,-1
 189 0 l 1,4,-1
1056 0 m 1,28,-1
 696 674 l 1,29,-1
 852 674 l 1,30,-1
 1217 0 l 1,31,-1
 1056 0 l 1,28,-1
EndSplineSet
Position2: "'cpsp' Capital Spacing in Latin lookup 0 subtable" dx=0 dy=0 dh=0 dv=0
EndChar

StartChar: S
Encoding: 83 83 398
Width: 1254
GlyphClass: 2
Flags: W
AnchorPoint: "Anchor-3" 630 0 basechar 0
AnchorPoint: "Anchor-1" 625 1490 basechar 0
AnchorPoint: "Anchor-0" 630 0 basechar 0
LayerCount: 2
Fore
SplineSet
630 -24 m 0,0,1
 473 -24 473 -24 358 29.5 c 128,-1,2
 243 83 243 83 178 180 c 128,-1,3
 113 277 113 277 107 407 c 1,4,-1
 249 407 l 1,5,6
 254 311 254 311 302.5 243 c 128,-1,7
 351 175 351 175 435.5 139 c 128,-1,8
 520 103 520 103 630 103 c 0,9,10
 743 103 743 103 828.5 139.5 c 128,-1,11
 914 176 914 176 962.5 242 c 128,-1,12
 1011 308 1011 308 1011 397 c 0,13,14
 1011 468 1011 468 976 518.5 c 128,-1,15
 941 569 941 569 872.5 606 c 128,-1,16
 804 643 804 643 701 671 c 2,17,-1
 529 719 l 2,18,19
 334 773 334 773 238 866.5 c 128,-1,20
 142 960 142 960 142 1103 c 0,21,22
 142 1224 142 1224 205.5 1316.5 c 128,-1,23
 269 1409 269 1409 379.5 1460.5 c 128,-1,24
 490 1512 490 1512 631 1512 c 0,25,26
 775 1512 775 1512 883 1459 c 128,-1,27
 991 1406 991 1406 1053 1312 c 128,-1,28
 1115 1218 1115 1218 1120 1094 c 1,29,-1
 983 1094 l 1,30,31
 973 1228 973 1228 877 1307 c 128,-1,32
 781 1386 781 1386 627 1386 c 0,33,34
 526 1386 526 1386 447 1350 c 128,-1,35
 368 1314 368 1314 323.5 1252 c 128,-1,36
 279 1190 279 1190 279 1109 c 0,37,38
 279 1039 279 1039 316 988 c 128,-1,39
 353 937 353 937 420.5 902.5 c 128,-1,40
 488 868 488 868 577 843 c 2,41,-1
 740 797 l 2,42,43
 829 774 829 774 903 739.5 c 128,-1,44
 977 705 977 705 1032 657 c 128,-1,45
 1087 609 1087 609 1117 545.5 c 128,-1,46
 1147 482 1147 482 1147 398 c 0,47,48
 1147 276 1147 276 1083.5 180.5 c 128,-1,49
 1020 85 1020 85 904 30.5 c 128,-1,50
 788 -24 788 -24 630 -24 c 0,0,1
EndSplineSet
Substitution2: "'ss06' Style Set 6 in Latin lookup 52 subtable" S.squared
Substitution2: "'ss05' Style Set 5 in Latin lookup 51 subtable" uni24C8
Position2: "'cpsp' Capital Spacing in Latin lookup 0 subtable" dx=0 dy=0 dh=0 dv=0
EndChar

StartChar: uni01A7
Encoding: 423 423 410
Width: 1254
GlyphClass: 2
Flags: W
AnchorPoint: "Anchor-3" 626 0 basechar 0
AnchorPoint: "Anchor-1" 629 1490 basechar 0
AnchorPoint: "Anchor-0" 626 0 basechar 0
LayerCount: 2
Fore
SplineSet
626 -24 m 0,0,1
 467 -24 467 -24 350.5 30.5 c 128,-1,2
 234 85 234 85 170.5 180.5 c 128,-1,3
 107 276 107 276 107 398 c 0,4,5
 107 482 107 482 137.5 545.5 c 128,-1,6
 168 609 168 609 222.5 657 c 128,-1,7
 277 705 277 705 351.5 739.5 c 128,-1,8
 426 774 426 774 514 797 c 2,9,-1
 677 843 l 2,10,11
 767 868 767 868 834.5 902.5 c 128,-1,12
 902 937 902 937 939 988 c 128,-1,13
 976 1039 976 1039 976 1109 c 0,14,15
 976 1190 976 1190 931 1252 c 128,-1,16
 886 1314 886 1314 807.5 1350 c 128,-1,17
 729 1386 729 1386 627 1386 c 0,18,19
 474 1386 474 1386 378 1307 c 128,-1,20
 282 1228 282 1228 271 1094 c 1,21,-1
 134 1094 l 1,22,23
 140 1218 140 1218 202 1312 c 128,-1,24
 264 1406 264 1406 372 1459 c 128,-1,25
 480 1512 480 1512 623 1512 c 0,26,27
 765 1512 765 1512 876 1460.5 c 128,-1,28
 987 1409 987 1409 1049.5 1316.5 c 128,-1,29
 1112 1224 1112 1224 1112 1103 c 0,30,31
 1112 960 1112 960 1016 866.5 c 128,-1,32
 920 773 920 773 725 719 c 2,33,-1
 554 671 l 2,34,35
 452 643 452 643 382.5 606 c 128,-1,36
 313 569 313 569 278.5 518.5 c 128,-1,37
 244 468 244 468 244 397 c 0,38,39
 244 308 244 308 292.5 242 c 128,-1,40
 341 176 341 176 427 139.5 c 128,-1,41
 513 103 513 103 626 103 c 0,42,43
 736 103 736 103 819.5 139 c 128,-1,44
 903 175 903 175 952 243 c 128,-1,45
 1001 311 1001 311 1006 407 c 1,46,-1
 1147 407 l 1,47,48
 1142 277 1142 277 1077.5 180 c 128,-1,49
 1013 83 1013 83 897.5 29.5 c 128,-1,50
 782 -24 782 -24 626 -24 c 0,0,1
EndSplineSet
Position2: "'cpsp' Capital Spacing in Latin lookup 0 subtable" dx=0 dy=0 dh=0 dv=0
EndChar

StartChar: uni1E9E
Encoding: 7838 7838 411
Width: 1307
Flags: W
LayerCount: 2
Fore
SplineSet
176 0 m 1,0,-1
 176 1034 l 2,1,2
 176 1188 176 1188 226.5 1294.5 c 128,-1,3
 277 1401 277 1401 373.5 1455.5 c 128,-1,4
 470 1510 470 1510 610 1510 c 0,5,6
 705 1510 705 1510 788.5 1483 c 128,-1,7
 872 1456 872 1456 944 1409 c 128,-1,8
 1016 1362 1016 1362 1078 1302 c 1,9,-1
 733 835 l 1,10,11
 883 829 883 829 987 778 c 128,-1,12
 1091 727 1091 727 1145.5 636 c 128,-1,13
 1200 545 1200 545 1200 418 c 0,14,15
 1200 280 1200 280 1139.5 184 c 128,-1,16
 1079 88 1079 88 971.5 37.5 c 128,-1,17
 864 -13 864 -13 722 -13 c 0,18,19
 660 -13 660 -13 597 -2 c 128,-1,20
 534 9 534 9 471 32 c 1,21,-1
 515 154 l 1,22,23
 556 137 556 137 608.5 124.5 c 128,-1,24
 661 112 661 112 727 112 c 0,25,26
 879 112 879 112 964 194 c 128,-1,27
 1049 276 1049 276 1049 418 c 0,28,29
 1049 515 1049 515 1013 574.5 c 128,-1,30
 977 634 977 634 920.5 665 c 128,-1,31
 864 696 864 696 801 706.5 c 128,-1,32
 738 717 738 717 683 717 c 2,33,-1
 579 717 l 1,34,-1
 579 838 l 1,35,-1
 898 1280 l 1,36,37
 843 1323 843 1323 772 1354.5 c 128,-1,38
 701 1386 701 1386 612 1386 c 0,39,40
 504 1386 504 1386 438.5 1338 c 128,-1,41
 373 1290 373 1290 344 1209 c 128,-1,42
 315 1128 315 1128 315 1030 c 2,43,-1
 315 0 l 1,44,-1
 176 0 l 1,0,-1
EndSplineSet
Position2: "'cpsp' Capital Spacing in Latin lookup 0 subtable" dx=0 dy=0 dh=0 dv=0
EndChar

StartChar: T
Encoding: 84 84 412
Width: 1269
GlyphClass: 2
Flags: W
AnchorPoint: "Anchor-3" 636 0 basechar 0
AnchorPoint: "Anchor-1" 635 1490 basechar 0
AnchorPoint: "Anchor-0" 635 0 basechar 0
LayerCount: 2
Fore
SplineSet
81 1365 m 1,0,-1
 81 1490 l 1,1,-1
 1188 1490 l 1,2,-1
 1188 1365 l 1,3,-1
 705 1365 l 1,4,-1
 705 0 l 1,5,-1
 566 0 l 1,6,-1
 566 1365 l 1,7,-1
 81 1365 l 1,0,-1
EndSplineSet
Substitution2: "'c2sc' Capitals to Small Capitals in Latin lookup 68 subtable" t.sc
Substitution2: "'ss06' Style Set 6 in Latin lookup 52 subtable" T.squared
Substitution2: "'ss05' Style Set 5 in Latin lookup 51 subtable" uni24C9
Substitution2: "'aalt' Access All Alternates in Latin lookup 0 subtable" t.sc
Position2: "'cpsp' Capital Spacing in Latin lookup 0 subtable" dx=0 dy=0 dh=0 dv=0
EndChar

StartChar: uni01AC
Encoding: 428 428 420
Width: 1255
GlyphClass: 2
Flags: W
AnchorPoint: "Anchor-1" 632 1490 basechar 0
LayerCount: 2
Fore
SplineSet
70 1094 m 1,0,-1
 70 1234 l 2,1,2
 70 1362 70 1362 136 1426 c 128,-1,3
 202 1490 202 1490 332 1490 c 2,4,-1
 433 1490 l 1,5,-1
 433 1366 l 1,6,-1
 335 1366 l 2,7,8
 264 1366 264 1366 232 1333.5 c 128,-1,9
 200 1301 200 1301 200 1232 c 2,10,-1
 200 1094 l 1,11,-1
 70 1094 l 1,0,-1
433 1366 m 1,12,-1
 433 1490 l 1,13,-1
 1174 1490 l 1,14,-1
 1174 1366 l 1,15,-1
 702 1366 l 1,16,-1
 702 0 l 1,17,-1
 563 0 l 1,18,-1
 563 1366 l 1,19,-1
 433 1366 l 1,12,-1
EndSplineSet
Position2: "'cpsp' Capital Spacing in Latin lookup 0 subtable" dx=0 dy=0 dh=0 dv=0
EndChar

StartChar: uni01AC.base
Encoding: 60940 60940 421
Width: 1250
GlyphClass: 2
Flags: W
AnchorPoint: "Anchor-1" 627 1490 basechar 0
LayerCount: 2
Fore
SplineSet
428 1366 m 1,0,-1
 428 1490 l 1,1,-1
 1169 1490 l 1,2,-1
 1169 1366 l 1,3,-1
 697 1366 l 1,4,-1
 697 0 l 1,5,-1
 558 0 l 1,6,-1
 558 1366 l 1,7,-1
 428 1366 l 1,0,-1
EndSplineSet
EndChar

StartChar: Trthook
Encoding: 430 430 422
Width: 1269
GlyphClass: 2
Flags: W
AnchorPoint: "Anchor-3" 636 0 basechar 0
AnchorPoint: "Anchor-1" 635 1490 basechar 0
AnchorPoint: "Anchor-0" 635 0 basechar 0
LayerCount: 2
Fore
SplineSet
819 -420 m 0,0,1
 694 -420 694 -420 630 -361.5 c 128,-1,2
 566 -303 566 -303 566 -186 c 2,3,-1
 566 158 l 1,4,-1
 705 158 l 1,5,-1
 705 -186 l 2,6,7
 705 -249 705 -249 736 -276 c 128,-1,8
 767 -303 767 -303 841 -303 c 0,9,10
 854 -303 854 -303 877 -303 c 128,-1,11
 900 -303 900 -303 918 -302 c 1,12,-1
 918 -418 l 1,13,14
 900 -419 900 -419 874 -419.5 c 128,-1,15
 848 -420 848 -420 819 -420 c 0,0,1
81 1365 m 1,16,-1
 81 1490 l 1,17,-1
 1188 1490 l 1,18,-1
 1188 1365 l 1,19,-1
 705 1365 l 1,20,-1
 705 0 l 1,21,-1
 566 0 l 1,22,-1
 566 1365 l 1,23,-1
 81 1365 l 1,16,-1
EndSplineSet
Position2: "'cpsp' Capital Spacing in Latin lookup 0 subtable" dx=0 dy=0 dh=0 dv=0
EndChar

StartChar: uni023E
Encoding: 574 574 423
Width: 1269
GlyphClass: 2
Flags: W
AnchorPoint: "Anchor-3" 636 0 basechar 0
AnchorPoint: "Anchor-1" 635 1490 basechar 0
AnchorPoint: "Anchor-0" 635 0 basechar 0
LayerCount: 2
Fore
SplineSet
206 -203 m 1,0,-1
 954 1692 l 1,1,-1
 1063 1692 l 1,2,-1
 315 -203 l 1,3,-1
 206 -203 l 1,0,-1
81 1365 m 1,4,-1
 81 1490 l 1,5,-1
 1188 1490 l 1,6,-1
 1188 1365 l 1,7,-1
 705 1365 l 1,8,-1
 705 0 l 1,9,-1
 566 0 l 1,10,-1
 566 1365 l 1,11,-1
 81 1365 l 1,4,-1
EndSplineSet
Position2: "'cpsp' Capital Spacing in Latin lookup 0 subtable" dx=0 dy=0 dh=0 dv=0
EndChar

StartChar: U
Encoding: 85 85 425
Width: 1459
GlyphClass: 2
Flags: W
AnchorPoint: "Anchor-4" 1295 507 basechar 0
AnchorPoint: "Anchor-1" 730 1490 basechar 0
AnchorPoint: "Anchor-0" 730 0 basechar 0
LayerCount: 2
Fore
SplineSet
730 -22 m 256,0,1
 562 -22 562 -22 434 46.5 c 128,-1,2
 306 115 306 115 234.5 235 c 128,-1,3
 163 355 163 355 163 507 c 2,4,-1
 163 1490 l 1,5,-1
 302 1490 l 1,6,-1
 302 516 l 2,7,8
 302 398 302 398 355.5 306 c 128,-1,9
 409 214 409 214 505 161 c 128,-1,10
 601 108 601 108 730 108 c 256,11,12
 859 108 859 108 955 161 c 128,-1,13
 1051 214 1051 214 1104 306 c 128,-1,14
 1157 398 1157 398 1157 516 c 2,15,-1
 1157 1490 l 1,16,-1
 1295 1490 l 1,17,-1
 1295 507 l 2,18,19
 1295 355 1295 355 1224 235 c 128,-1,20
 1153 115 1153 115 1025.5 46.5 c 128,-1,21
 898 -22 898 -22 730 -22 c 256,0,1
EndSplineSet
Substitution2: "'ss06' Style Set 6 in Latin lookup 52 subtable" U.squared
Substitution2: "'ss05' Style Set 5 in Latin lookup 51 subtable" uni24CA
Position2: "'cpsp' Capital Spacing in Latin lookup 0 subtable" dx=0 dy=0 dh=0 dv=0
EndChar

StartChar: Uhorn
Encoding: 431 431 426
Width: 1467
GlyphClass: 2
Flags: W
AnchorPoint: "Anchor-4" 1295 507 basechar 0
AnchorPoint: "Anchor-1" 730 1490 basechar 0
AnchorPoint: "Anchor-0" 730 0 basechar 0
LayerCount: 2
Fore
SplineSet
1163 1380 m 1,0,-1
 1163 1490 l 1,1,-1
 1319 1490 l 2,2,3
 1357 1490 1357 1490 1357 1528 c 2,4,-1
 1357 1714 l 1,5,-1
 1485 1714 l 1,6,-1
 1485 1534 l 2,7,8
 1485 1458 1485 1458 1446.5 1419 c 128,-1,9
 1408 1380 1408 1380 1331 1380 c 2,10,-1
 1163 1380 l 1,0,-1
730 -22 m 256,11,12
 562 -22 562 -22 434 46.5 c 128,-1,13
 306 115 306 115 234.5 235 c 128,-1,14
 163 355 163 355 163 507 c 2,15,-1
 163 1490 l 1,16,-1
 302 1490 l 1,17,-1
 302 516 l 2,18,19
 302 398 302 398 355.5 306 c 128,-1,20
 409 214 409 214 505 161 c 128,-1,21
 601 108 601 108 730 108 c 256,22,23
 859 108 859 108 955 161 c 128,-1,24
 1051 214 1051 214 1104 306 c 128,-1,25
 1157 398 1157 398 1157 516 c 2,26,-1
 1157 1490 l 1,27,-1
 1295 1490 l 1,28,-1
 1295 507 l 2,29,30
 1295 355 1295 355 1224 235 c 128,-1,31
 1153 115 1153 115 1025.5 46.5 c 128,-1,32
 898 -22 898 -22 730 -22 c 256,11,12
EndSplineSet
Position2: "'cpsp' Capital Spacing in Latin lookup 0 subtable" dx=0 dy=0 dh=0 dv=0
EndChar

StartChar: uni0244
Encoding: 580 580 456
Width: 1463
GlyphClass: 2
Flags: W
AnchorPoint: "Anchor-4" 1283 507 basechar 0
AnchorPoint: "Anchor-1" 718 1490 basechar 0
AnchorPoint: "Anchor-0" 718 0 basechar 0
LayerCount: 2
Fore
SplineSet
1489 868 m 1,0,-1
 1489 773 l 1,1,-1
 -26 773 l 1,2,-1
 -26 868 l 1,3,-1
 1489 868 l 1,0,-1
718 -22 m 0,4,5
 549 -22 549 -22 421.5 46.5 c 128,-1,6
 294 115 294 115 222.5 235 c 128,-1,7
 151 355 151 355 151 507 c 2,8,-1
 151 1490 l 1,9,-1
 289 1490 l 1,10,-1
 289 516 l 2,11,12
 289 398 289 398 342.5 306 c 128,-1,13
 396 214 396 214 492 161 c 128,-1,14
 588 108 588 108 717 108 c 256,15,16
 846 108 846 108 942 161 c 128,-1,17
 1038 214 1038 214 1091 306 c 128,-1,18
 1144 398 1144 398 1144 516 c 2,19,-1
 1144 1490 l 1,20,-1
 1283 1490 l 1,21,-1
 1283 507 l 2,22,23
 1283 355 1283 355 1211.5 235 c 128,-1,24
 1140 115 1140 115 1012.5 46.5 c 128,-1,25
 885 -22 885 -22 718 -22 c 0,4,5
EndSplineSet
Position2: "'cpsp' Capital Spacing in Latin lookup 0 subtable" dx=0 dy=0 dh=0 dv=0
EndChar

StartChar: V
Encoding: 86 86 457
Width: 1339
GlyphClass: 2
Flags: W
AnchorPoint: "Anchor-1" 670 1490 basechar 0
AnchorPoint: "Anchor-0" 670 0 basechar 0
LayerCount: 2
Fore
SplineSet
590 0 m 1,0,-1
 38 1490 l 1,1,-1
 185 1490 l 1,2,-1
 542 511 l 2,3,4
 569 436 569 436 605.5 325.5 c 128,-1,5
 642 215 642 215 691 65 c 1,6,-1
 655 65 l 1,7,8
 703 218 703 218 740 327 c 128,-1,9
 777 436 777 436 803 511 c 2,10,-1
 1154 1490 l 1,11,-1
 1301 1490 l 1,12,-1
 753 0 l 1,13,-1
 590 0 l 1,0,-1
EndSplineSet
Substitution2: "'ss06' Style Set 6 in Latin lookup 52 subtable" V.squared
Substitution2: "'ss05' Style Set 5 in Latin lookup 51 subtable" uni24CB
Position2: "'cpsp' Capital Spacing in Latin lookup 0 subtable" dx=0 dy=0 dh=0 dv=0
EndChar

StartChar: W
Encoding: 87 87 460
Width: 1939
GlyphClass: 2
Flags: W
AnchorPoint: "Anchor-1" 970 1490 basechar 0
AnchorPoint: "Anchor-0" 970 0 basechar 0
LayerCount: 2
Fore
SplineSet
450 0 m 1,0,-1
 38 1490 l 1,1,-1
 180 1490 l 1,2,-1
 447 496 l 2,3,4
 465 430 465 430 481.5 361.5 c 128,-1,5
 498 293 498 293 513.5 225 c 128,-1,6
 529 157 529 157 544 87 c 1,7,-1
 525 87 l 1,8,9
 540 157 540 157 555.5 225 c 128,-1,10
 571 293 571 293 587.5 361.5 c 128,-1,11
 604 430 604 430 622 496 c 2,12,-1
 888 1490 l 1,13,-1
 1053 1490 l 1,14,-1
 1316 496 l 2,15,16
 1335 430 1335 430 1351.5 361.5 c 128,-1,17
 1368 293 1368 293 1384.5 225 c 128,-1,18
 1401 157 1401 157 1416 87 c 1,19,-1
 1395 87 l 1,20,21
 1410 157 1410 157 1426 225 c 128,-1,22
 1442 293 1442 293 1459 361.5 c 128,-1,23
 1476 430 1476 430 1493 496 c 2,24,-1
 1758 1490 l 1,25,-1
 1901 1490 l 1,26,-1
 1488 0 l 1,27,-1
 1322 0 l 1,28,-1
 1049 1003 l 2,29,30
 1023 1097 1023 1097 1000 1197.5 c 128,-1,31
 977 1298 977 1298 954 1410 c 1,32,-1
 984 1410 l 1,33,34
 962 1301 962 1301 939.5 1201.5 c 128,-1,35
 917 1102 917 1102 890 1003 c 2,36,-1
 618 0 l 1,37,-1
 450 0 l 1,0,-1
EndSplineSet
Substitution2: "'ss06' Style Set 6 in Latin lookup 52 subtable" W.squared
Substitution2: "'ss05' Style Set 5 in Latin lookup 51 subtable" uni24CC
Position2: "'cpsp' Capital Spacing in Latin lookup 0 subtable" dx=0 dy=0 dh=0 dv=0
EndChar

StartChar: X
Encoding: 88 88 467
Width: 1317
GlyphClass: 2
Flags: W
AnchorPoint: "Anchor-1" 658 1490 basechar 0
AnchorPoint: "Anchor-0" 658 0 basechar 0
LayerCount: 2
Fore
SplineSet
43 0 m 1,0,-1
 615 812 l 1,1,-1
 615 709 l 1,2,-1
 70 1490 l 1,3,-1
 231 1490 l 1,4,-1
 487 1122 l 2,5,6
 525 1069 525 1069 555 1023.5 c 128,-1,7
 585 978 585 978 614 933 c 128,-1,8
 643 888 643 888 673 836 c 1,9,-1
 646 836 l 1,10,11
 677 888 677 888 705.5 933 c 128,-1,12
 734 978 734 978 765 1023.5 c 128,-1,13
 796 1069 796 1069 833 1122 c 2,14,-1
 1092 1490 l 1,15,-1
 1250 1490 l 1,16,-1
 706 715 l 1,17,-1
 706 817 l 1,18,-1
 1274 0 l 1,19,-1
 1113 0 l 1,20,-1
 820 419 l 2,21,22
 786 469 786 469 756.5 512 c 128,-1,23
 727 555 727 555 699.5 598.5 c 128,-1,24
 672 642 672 642 643 691 c 1,25,-1
 675 691 l 1,26,27
 646 643 646 643 618 599.5 c 128,-1,28
 590 556 590 556 560.5 513 c 128,-1,29
 531 470 531 470 496 419 c 2,30,-1
 201 0 l 1,31,-1
 43 0 l 1,0,-1
EndSplineSet
Substitution2: "'ss06' Style Set 6 in Latin lookup 52 subtable" X.squared
Substitution2: "'ss05' Style Set 5 in Latin lookup 51 subtable" uni24CD
Position2: "'cpsp' Capital Spacing in Latin lookup 0 subtable" dx=0 dy=0 dh=0 dv=0
EndChar

StartChar: Y
Encoding: 89 89 473
Width: 1324
GlyphClass: 2
Flags: W
AnchorPoint: "Anchor-4" 732 0 basechar 0
AnchorPoint: "Anchor-1" 663 1490 basechar 0
AnchorPoint: "Anchor-0" 663 0 basechar 0
LayerCount: 2
Fore
SplineSet
593 0 m 1,0,-1
 593 643 l 1,1,-1
 38 1490 l 1,2,-1
 200 1490 l 1,3,-1
 518 1004 l 2,4,5
 566 931 566 931 607.5 861.5 c 128,-1,6
 649 792 649 792 693 709 c 1,7,-1
 635 709 l 1,8,9
 678 792 678 792 720.5 862 c 128,-1,10
 763 932 763 932 808 1004 c 2,11,-1
 1125 1490 l 1,12,-1
 1286 1490 l 1,13,-1
 732 643 l 1,14,-1
 732 0 l 1,15,-1
 593 0 l 1,0,-1
EndSplineSet
Substitution2: "'c2sc' Capitals to Small Capitals in Latin lookup 68 subtable" y.sc
Substitution2: "'ss06' Style Set 6 in Latin lookup 52 subtable" Y.squared
Substitution2: "'ss05' Style Set 5 in Latin lookup 51 subtable" uni24CE
Substitution2: "'aalt' Access All Alternates in Latin lookup 0 subtable" y.sc
Position2: "'cpsp' Capital Spacing in Latin lookup 0 subtable" dx=0 dy=0 dh=0 dv=0
EndChar

StartChar: uni01B3
Encoding: 435 435 474
Width: 1351
Flags: W
LayerCount: 2
Fore
SplineSet
615 749 m 1,0,-1
 615 784 l 1,1,-1
 650 784 l 1,2,-1
 650 749 l 1,3,-1
 615 749 l 1,0,-1
25 1490 m 1,4,-1
 185 1490 l 1,5,-1
 632 773 l 1,6,-1
 1008 1372 l 2,7,8
 1052 1441 1052 1441 1110 1474.5 c 128,-1,9
 1168 1508 1168 1508 1232 1508.5 c 128,-1,10
 1296 1509 1296 1509 1351 1477 c 1,11,-1
 1308 1368 l 1,12,13
 1260 1390 1260 1390 1211.5 1378.5 c 128,-1,14
 1163 1367 1163 1367 1124 1306 c 2,15,-1
 702 644 l 1,16,-1
 702 0 l 1,17,-1
 564 0 l 1,18,-1
 564 644 l 1,19,-1
 25 1490 l 1,4,-1
EndSplineSet
Position2: "'cpsp' Capital Spacing in Latin lookup 0 subtable" dx=0 dy=0 dh=0 dv=0
EndChar

StartChar: uni024E
Encoding: 590 590 484
Width: 1285
GlyphClass: 2
Flags: W
AnchorPoint: "Anchor-4" 732 0 basechar 0
AnchorPoint: "Anchor-1" 663 1490 basechar 0
AnchorPoint: "Anchor-0" 663 0 basechar 0
LayerCount: 2
Fore
SplineSet
1305 1181 m 1,0,-1
 1305 1085 l 1,1,-1
 -19 1085 l 1,2,-1
 -19 1181 l 1,3,-1
 1305 1181 l 1,0,-1
593 0 m 1,4,-1
 593 643 l 1,5,-1
 38 1490 l 1,6,-1
 200 1490 l 1,7,-1
 518 1004 l 2,8,9
 566 931 566 931 607.5 861.5 c 128,-1,10
 649 792 649 792 693 709 c 1,11,-1
 635 709 l 1,12,13
 678 792 678 792 720.5 862 c 128,-1,14
 763 932 763 932 808 1004 c 2,15,-1
 1125 1490 l 1,16,-1
 1286 1490 l 1,17,-1
 732 643 l 1,18,-1
 732 0 l 1,19,-1
 593 0 l 1,4,-1
EndSplineSet
Position2: "'cpsp' Capital Spacing in Latin lookup 0 subtable" dx=0 dy=0 dh=0 dv=0
EndChar

StartChar: Z
Encoding: 90 90 497
Width: 1258
GlyphClass: 2
Flags: W
AnchorPoint: "Anchor-1" 629 1490 basechar 0
AnchorPoint: "Anchor-0" 627 0 basechar 0
LayerCount: 2
Fore
SplineSet
101 0 m 1,0,-1
 101 112 l 1,1,-1
 846 1164 l 2,2,3
 890 1228 890 1228 937.5 1291.5 c 128,-1,4
 985 1355 985 1355 1032 1417 c 1,5,-1
 1049 1369 l 1,6,7
 963 1367 963 1367 878 1366 c 128,-1,8
 793 1365 793 1365 707 1365 c 2,9,-1
 117 1365 l 1,10,-1
 117 1490 l 1,11,-1
 1153 1490 l 1,12,-1
 1153 1377 l 1,13,-1
 416 335 l 2,14,15
 370 270 370 270 321 204 c 128,-1,16
 272 138 272 138 222 74 c 1,17,-1
 205 122 l 1,18,19
 289 124 289 124 373 124.5 c 128,-1,20
 457 125 457 125 541 125 c 2,21,-1
 1160 125 l 1,22,-1
 1160 0 l 1,23,-1
 101 0 l 1,0,-1
EndSplineSet
Substitution2: "'ss06' Style Set 6 in Latin lookup 52 subtable" Z.squared
Substitution2: "'ss05' Style Set 5 in Latin lookup 51 subtable" uni24CF
Position2: "'cpsp' Capital Spacing in Latin lookup 0 subtable" dx=0 dy=0 dh=0 dv=0
EndChar

StartChar: uni0224
Encoding: 548 548 504
Width: 1258
GlyphClass: 2
Flags: W
AnchorPoint: "Anchor-1" 629 1490 basechar 0
AnchorPoint: "Anchor-0" 627 0 basechar 0
LayerCount: 2
Fore
SplineSet
812 -418 m 1,0,-1
 812 -297 l 1,1,2
 829 -299 829 -299 852.5 -299 c 128,-1,3
 876 -299 876 -299 889 -299 c 0,4,5
 962 -299 962 -299 992 -271.5 c 128,-1,6
 1022 -244 1022 -244 1022 -181 c 2,7,-1
 1022 0 l 1,8,-1
 1160 0 l 1,9,-1
 1160 -186 l 2,10,11
 1160 -303 1160 -303 1096 -361.5 c 128,-1,12
 1032 -420 1032 -420 908 -420 c 0,13,14
 881 -420 881 -420 855.5 -419.5 c 128,-1,15
 830 -419 830 -419 812 -418 c 1,0,-1
101 0 m 1,16,-1
 101 112 l 1,17,-1
 846 1164 l 2,18,19
 890 1228 890 1228 937.5 1291.5 c 128,-1,20
 985 1355 985 1355 1032 1417 c 1,21,-1
 1049 1369 l 1,22,23
 963 1367 963 1367 878 1366 c 128,-1,24
 793 1365 793 1365 707 1365 c 2,25,-1
 117 1365 l 1,26,-1
 117 1490 l 1,27,-1
 1153 1490 l 1,28,-1
 1153 1377 l 1,29,-1
 416 335 l 2,30,31
 370 270 370 270 321 204 c 128,-1,32
 272 138 272 138 222 74 c 1,33,-1
 205 122 l 1,34,35
 289 124 289 124 373 124.5 c 128,-1,36
 457 125 457 125 541 125 c 2,37,-1
 1160 125 l 1,38,-1
 1160 0 l 1,39,-1
 101 0 l 1,16,-1
EndSplineSet
Position2: "'cpsp' Capital Spacing in Latin lookup 0 subtable" dx=0 dy=0 dh=0 dv=0
EndChar

StartChar: uni2C7F
Encoding: 11391 11391 507
Width: 1222
Flags: W
LayerCount: 2
Fore
SplineSet
996 -427 m 0,0,1
 923 -427 923 -427 862 -396 c 128,-1,2
 801 -365 801 -365 745 -316.5 c 128,-1,3
 689 -268 689 -268 633.5 -213.5 c 128,-1,4
 578 -159 578 -159 517.5 -110 c 128,-1,5
 457 -61 457 -61 386.5 -30.5 c 128,-1,6
 316 0 316 0 228 0 c 2,7,-1
 104 0 l 1,8,-1
 104 104 l 1,9,-1
 930 1365 l 1,10,-1
 100 1365 l 1,11,-1
 100 1490 l 1,12,-1
 1096 1490 l 1,13,-1
 1096 1386 l 1,14,-1
 266 119 l 1,15,16
 361 113 361 113 437 80.5 c 128,-1,17
 513 48 513 48 575 0 c 128,-1,18
 637 -48 637 -48 691 -100.5 c 128,-1,19
 745 -153 745 -153 794 -198.5 c 128,-1,20
 843 -244 843 -244 893 -272.5 c 128,-1,21
 943 -301 943 -301 999 -301 c 0,22,23
 1022 -301 1022 -301 1043 -300.5 c 128,-1,24
 1064 -300 1064 -300 1084 -297.5 c 128,-1,25
 1104 -295 1104 -295 1124 -293 c 1,26,-1
 1124 -415 l 1,27,28
 1096 -419 1096 -419 1065 -423 c 128,-1,29
 1034 -427 1034 -427 996 -427 c 0,0,1
EndSplineSet
Position2: "'cpsp' Capital Spacing in Latin lookup 0 subtable" dx=0 dy=0 dh=0 dv=0
EndChar

StartChar: a
Encoding: 97 97 508
Width: 1083
GlyphClass: 2
Flags: W
AnchorPoint: "Anchor-4" 933 0 basechar 0
AnchorPoint: "Anchor-1" 529 1087 basechar 0
AnchorPoint: "Anchor-0" 531 0 basechar 0
LayerCount: 2
Fore
SplineSet
454 -21 m 0,0,1
 352 -21 352 -21 269 16 c 128,-1,2
 186 53 186 53 136.5 126 c 128,-1,3
 87 199 87 199 87 304 c 0,4,5
 87 387 87 387 118.5 442.5 c 128,-1,6
 150 498 150 498 207.5 533 c 128,-1,7
 265 568 265 568 343 588 c 128,-1,8
 421 608 421 608 516 620 c 256,9,10
 611 632 611 632 674.5 641.5 c 128,-1,11
 738 651 738 651 770 670 c 128,-1,12
 802 689 802 689 802 731 c 2,13,-1
 802 752 l 2,14,15
 802 823 802 823 770.5 875.5 c 128,-1,16
 739 928 739 928 679.5 957 c 128,-1,17
 620 986 620 986 537 986 c 0,18,19
 458 986 458 986 395.5 959.5 c 128,-1,20
 333 933 333 933 294.5 888 c 128,-1,21
 256 843 256 843 245 788 c 1,22,-1
 115 811 l 1,23,24
 135 904 135 904 195.5 969.5 c 128,-1,25
 256 1035 256 1035 344.5 1069.5 c 128,-1,26
 433 1104 433 1104 536 1104 c 0,27,28
 613 1104 613 1104 684.5 1083 c 128,-1,29
 756 1062 756 1062 812 1018.5 c 128,-1,30
 868 975 868 975 900.5 907 c 128,-1,31
 933 839 933 839 933 746 c 2,32,-1
 933 0 l 1,33,-1
 804 0 l 1,34,-1
 804 175 l 1,35,-1
 797 175 l 1,36,37
 774 125 774 125 728.5 80.5 c 128,-1,38
 683 36 683 36 614.5 7.5 c 128,-1,39
 546 -21 546 -21 454 -21 c 0,0,1
471 99 m 0,40,41
 575 99 575 99 649 141.5 c 128,-1,42
 723 184 723 184 762.5 257.5 c 128,-1,43
 802 331 802 331 802 421 c 2,44,-1
 802 575 l 1,45,46
 788 562 788 562 757.5 551.5 c 128,-1,47
 727 541 727 541 686 533 c 128,-1,48
 645 525 645 525 600 518 c 128,-1,49
 555 511 555 511 513 506 c 0,50,51
 422 494 422 494 356.5 470 c 128,-1,52
 291 446 291 446 256 405 c 128,-1,53
 221 364 221 364 221 298 c 0,54,55
 221 235 221 235 253 190.5 c 128,-1,56
 285 146 285 146 342 122.5 c 128,-1,57
 399 99 399 99 471 99 c 0,40,41
EndSplineSet
Substitution2: "'smcp' Lowercase to Small Capitals in Latin lookup 69 subtable" a.sc
Substitution2: "'c2sc' Capitals to Small Capitals in Latin lookup 68 subtable" a.sc
Substitution2: "'cv11' Character Variants 11 in Latin lookup 65 subtable" a.1
Substitution2: "'salt' Stylistic Alternatives in Latin lookup 46 subtable" a.1
Substitution2: "Single Substitution lookup 44 subtable" ordfeminine
Substitution2: "'sups' Superscript in Latin lookup 39 subtable" a.sups
Substitution2: "'subs' Subscript in Latin lookup 38 subtable" a.subs
Substitution2: "'sinf' Scientific Inferiors in Latin lookup 18 subtable" a.subs
AlternateSubs2: "'aalt' Access All Alternates in Latin lookup 1 subtable" ordfeminine a.sups a.subs a.sc
EndChar

StartChar: aturn
Encoding: 592 592 540
Width: 1083
GlyphClass: 2
Flags: W
AnchorPoint: "Anchor-4" 150 1087 basechar 0
AnchorPoint: "Anchor-1" 581 1087 basechar 0
AnchorPoint: "Anchor-0" 577 0 basechar 0
LayerCount: 2
Fore
SplineSet
631 1108 m 0,0,1
 731 1108 731 1108 814.5 1071 c 128,-1,2
 898 1034 898 1034 947.5 961.5 c 128,-1,3
 997 889 997 889 997 783 c 0,4,5
 997 701 997 701 965.5 645.5 c 128,-1,6
 934 590 934 590 877 555 c 128,-1,7
 820 520 820 520 741.5 500 c 128,-1,8
 663 480 663 480 569 468 c 0,9,10
 474 456 474 456 409.5 446.5 c 128,-1,11
 345 437 345 437 313 418 c 128,-1,12
 281 399 281 399 281 357 c 2,13,-1
 281 336 l 2,14,15
 281 266 281 266 313.5 213.5 c 128,-1,16
 346 161 346 161 405.5 131 c 128,-1,17
 465 101 465 101 546 101 c 0,18,19
 628 101 628 101 689 128 c 128,-1,20
 750 155 750 155 789 200 c 128,-1,21
 828 245 828 245 838 299 c 1,22,-1
 969 277 l 1,23,24
 949 184 949 184 888 118.5 c 128,-1,25
 827 53 827 53 739.5 18 c 128,-1,26
 652 -17 652 -17 549 -17 c 0,27,28
 472 -17 472 -17 400.5 4.5 c 128,-1,29
 329 26 329 26 272.5 70 c 128,-1,30
 216 114 216 114 183 181 c 128,-1,31
 150 248 150 248 150 342 c 2,32,-1
 150 1087 l 1,33,-1
 281 1087 l 1,34,-1
 281 912 l 1,35,-1
 288 912 l 1,36,37
 311 963 311 963 356 1008 c 128,-1,38
 401 1053 401 1053 469.5 1080.5 c 128,-1,39
 538 1108 538 1108 631 1108 c 0,0,1
612 989 m 0,40,41
 510 989 510 989 435 946 c 128,-1,42
 360 903 360 903 320.5 830.5 c 128,-1,43
 281 758 281 758 281 666 c 2,44,-1
 281 513 l 1,45,46
 296 526 296 526 326.5 536.5 c 128,-1,47
 357 547 357 547 397.5 555.5 c 128,-1,48
 438 564 438 564 483 570 c 128,-1,49
 528 576 528 576 571 582 c 0,50,51
 662 595 662 595 728 618.5 c 128,-1,52
 794 642 794 642 829 683.5 c 128,-1,53
 864 725 864 725 864 790 c 0,54,55
 864 854 864 854 831 898 c 128,-1,56
 798 942 798 942 742 965.5 c 128,-1,57
 686 989 686 989 612 989 c 0,40,41
EndSplineSet
EndChar

StartChar: ae
Encoding: 230 230 544
Width: 1829
GlyphClass: 2
Flags: W
AnchorPoint: "Anchor-1" 892 1087 basechar 0
LayerCount: 2
Fore
SplineSet
459 -20 m 0,0,1
 351 -20 351 -20 267.5 18.5 c 128,-1,2
 184 57 184 57 135.5 130 c 128,-1,3
 87 203 87 203 87 304 c 0,4,5
 87 389 87 389 124 448.5 c 128,-1,6
 161 508 161 508 225.5 546.5 c 128,-1,7
 290 585 290 585 376.5 603.5 c 128,-1,8
 463 622 463 622 562 622 c 2,9,-1
 1667 622 l 1,10,-1
 1609 579 l 1,11,12
 1614 697 1614 697 1572 789 c 128,-1,13
 1530 881 1530 881 1452 933.5 c 128,-1,14
 1374 986 1374 986 1269 986 c 0,15,16
 1165 986 1165 986 1086 933 c 128,-1,17
 1007 880 1007 880 963 788.5 c 128,-1,18
 919 697 919 697 919 583 c 2,19,-1
 919 523 l 2,20,21
 919 397 919 397 963 301 c 128,-1,22
 1007 205 1007 205 1089 151 c 128,-1,23
 1171 97 1171 97 1282 97 c 0,24,25
 1362 97 1362 97 1424 123.5 c 128,-1,26
 1486 150 1486 150 1528.5 195.5 c 128,-1,27
 1571 241 1571 241 1591 298 c 1,28,-1
 1720 279 l 1,29,30
 1697 194 1697 194 1636 125.5 c 128,-1,31
 1575 57 1575 57 1485 17 c 128,-1,32
 1395 -23 1395 -23 1282 -23 c 0,33,34
 1160 -23 1160 -23 1063.5 26 c 128,-1,35
 967 75 967 75 904.5 161.5 c 128,-1,36
 842 248 842 248 820 361 c 1,37,-1
 830 738 l 1,38,39
 858 848 858 848 919.5 930 c 128,-1,40
 981 1012 981 1012 1070.5 1058.5 c 128,-1,41
 1160 1105 1160 1105 1269 1105 c 0,42,43
 1370 1105 1370 1105 1455.5 1068.5 c 128,-1,44
 1541 1032 1541 1032 1605.5 961 c 128,-1,45
 1670 890 1670 890 1706.5 788.5 c 128,-1,46
 1743 687 1743 687 1743 556 c 2,47,-1
 1743 507 l 1,48,-1
 563 507 l 2,49,50
 457 507 457 507 380.5 484 c 128,-1,51
 304 461 304 461 262.5 415.5 c 128,-1,52
 221 370 221 370 221 301 c 0,53,54
 221 203 221 203 290.5 151.5 c 128,-1,55
 360 100 360 100 469 100 c 0,56,57
 574 100 574 100 647.5 141.5 c 128,-1,58
 721 183 721 183 758.5 256.5 c 128,-1,59
 796 330 796 330 796 421 c 2,60,-1
 796 752 l 2,61,62
 796 822 796 822 765 875 c 128,-1,63
 734 928 734 928 675.5 957 c 128,-1,64
 617 986 617 986 534 986 c 0,65,66
 455 986 455 986 393.5 959.5 c 128,-1,67
 332 933 332 933 294 888 c 128,-1,68
 256 843 256 843 245 788 c 1,69,-1
 115 811 l 1,70,71
 135 904 135 904 195 969.5 c 128,-1,72
 255 1035 255 1035 342.5 1069.5 c 128,-1,73
 430 1104 430 1104 533 1104 c 0,74,75
 633 1104 633 1104 713.5 1069 c 128,-1,76
 794 1034 794 1034 845 965.5 c 128,-1,77
 896 897 896 897 907 795 c 1,78,-1
 887 296 l 1,79,-1
 874 294 l 1,80,81
 862 218 862 218 825 160 c 128,-1,82
 788 102 788 102 732 62 c 128,-1,83
 676 22 676 22 606.5 1 c 128,-1,84
 537 -20 537 -20 459 -20 c 0,0,1
EndSplineSet
EndChar

StartChar: a.1
Encoding: 57388 57388 548
Width: 1189
GlyphClass: 2
Flags: W
AnchorPoint: "Anchor-4" 1039 0 basechar 0
AnchorPoint: "Anchor-1" 577 1087 basechar 0
AnchorPoint: "Anchor-0" 579 0 basechar 0
LayerCount: 2
Fore
SplineSet
551 -21 m 0,0,1
 416 -21 416 -21 312 50 c 128,-1,2
 208 121 208 121 149.5 247.5 c 128,-1,3
 91 374 91 374 91 542 c 256,4,5
 91 710 91 710 149.5 836.5 c 128,-1,6
 208 963 208 963 312 1033.5 c 128,-1,7
 416 1104 416 1104 552 1104 c 0,8,9
 643 1104 643 1104 712 1072.5 c 128,-1,10
 781 1041 781 1041 828.5 990 c 128,-1,11
 876 939 876 939 902 881 c 1,12,-1
 909 881 l 1,13,-1
 909 1087 l 1,14,-1
 1039 1087 l 1,15,-1
 1039 0 l 1,16,-1
 909 0 l 1,17,-1
 909 205 l 1,18,-1
 902 205 l 1,19,20
 874 145 874 145 826.5 93.5 c 128,-1,21
 779 42 779 42 710 10.5 c 128,-1,22
 641 -21 641 -21 551 -21 c 0,0,1
569 99 m 0,23,24
 676 99 676 99 753 155 c 128,-1,25
 830 211 830 211 871.5 311.5 c 128,-1,26
 913 412 913 412 913 543 c 0,27,28
 913 675 913 675 872 774.5 c 128,-1,29
 831 874 831 874 754 929.5 c 128,-1,30
 677 985 677 985 569 985 c 0,31,32
 465 985 465 985 387.5 929.5 c 128,-1,33
 310 874 310 874 268 775 c 128,-1,34
 226 676 226 676 226 543 c 256,35,36
 226 410 226 410 268 310.5 c 128,-1,37
 310 211 310 211 387.5 155 c 128,-1,38
 465 99 465 99 569 99 c 0,23,24
EndSplineSet
EndChar

StartChar: b
Encoding: 98 98 579
Width: 1189
GlyphClass: 2
Flags: W
AnchorPoint: "Anchor-1" 642 1283 basechar 0
AnchorPoint: "Anchor-0" 625 0 basechar 0
LayerCount: 2
Fore
SplineSet
639 -21 m 0,0,1
 549 -21 549 -21 480 10 c 128,-1,2
 411 41 411 41 363 93 c 128,-1,3
 315 145 315 145 287 205 c 1,4,-1
 279 205 l 1,5,-1
 279 0 l 1,6,-1
 150 0 l 1,7,-1
 150 1490 l 1,8,-1
 282 1490 l 1,9,-1
 282 881 l 1,10,-1
 289 881 l 1,11,12
 315 939 315 939 362 990.5 c 128,-1,13
 409 1042 409 1042 478.5 1073 c 128,-1,14
 548 1104 548 1104 638 1104 c 0,15,16
 774 1104 774 1104 877.5 1033.5 c 128,-1,17
 981 963 981 963 1039 836.5 c 128,-1,18
 1097 710 1097 710 1097 542 c 256,19,20
 1097 374 1097 374 1039.5 247.5 c 128,-1,21
 982 121 982 121 878.5 50 c 128,-1,22
 775 -21 775 -21 639 -21 c 0,0,1
620 99 m 256,23,24
 726 99 726 99 802.5 155 c 128,-1,25
 879 211 879 211 921.5 310.5 c 128,-1,26
 964 410 964 410 964 543 c 0,27,28
 964 675 964 675 922 774.5 c 128,-1,29
 880 874 880 874 803 929.5 c 128,-1,30
 726 985 726 985 620 985 c 256,31,32
 514 985 514 985 437 929.5 c 128,-1,33
 360 874 360 874 318.5 774.5 c 128,-1,34
 277 675 277 675 277 543 c 0,35,36
 277 412 277 412 318 311.5 c 128,-1,37
 359 211 359 211 436.5 155 c 128,-1,38
 514 99 514 99 620 99 c 256,23,24
EndSplineSet
Substitution2: "'sups' Superscript in Latin lookup 39 subtable" b.sups
Substitution2: "'subs' Subscript in Latin lookup 38 subtable" b.subs
Substitution2: "'sinf' Scientific Inferiors in Latin lookup 18 subtable" b.subs
AlternateSubs2: "'aalt' Access All Alternates in Latin lookup 1 subtable" b.sups b.subs
EndChar

StartChar: uni0183
Encoding: 387 387 581
Width: 1189
GlyphClass: 2
Flags: W
AnchorPoint: "Anchor-1" 642 1283 basechar 0
AnchorPoint: "Anchor-0" 625 0 basechar 0
LayerCount: 2
Fore
SplineSet
219 1374 m 1,0,-1
 150 1490 l 1,1,-1
 931 1490 l 1,2,-1
 931 1374 l 1,3,-1
 219 1374 l 1,0,-1
639 -21 m 0,4,5
 549 -21 549 -21 480 10 c 128,-1,6
 411 41 411 41 363 93 c 128,-1,7
 315 145 315 145 287 205 c 1,8,-1
 279 205 l 1,9,-1
 279 0 l 1,10,-1
 150 0 l 1,11,-1
 150 1490 l 1,12,-1
 282 1490 l 1,13,-1
 282 881 l 1,14,-1
 289 881 l 1,15,16
 315 939 315 939 362 990.5 c 128,-1,17
 409 1042 409 1042 478.5 1073 c 128,-1,18
 548 1104 548 1104 638 1104 c 0,19,20
 774 1104 774 1104 877.5 1033.5 c 128,-1,21
 981 963 981 963 1039 836.5 c 128,-1,22
 1097 710 1097 710 1097 542 c 256,23,24
 1097 374 1097 374 1039.5 247.5 c 128,-1,25
 982 121 982 121 878.5 50 c 128,-1,26
 775 -21 775 -21 639 -21 c 0,4,5
620 99 m 256,27,28
 726 99 726 99 802.5 155 c 128,-1,29
 879 211 879 211 921.5 310.5 c 128,-1,30
 964 410 964 410 964 543 c 0,31,32
 964 675 964 675 922 774.5 c 128,-1,33
 880 874 880 874 803 929.5 c 128,-1,34
 726 985 726 985 620 985 c 256,35,36
 514 985 514 985 437 929.5 c 128,-1,37
 360 874 360 874 318.5 774.5 c 128,-1,38
 277 675 277 675 277 543 c 0,39,40
 277 412 277 412 318 311.5 c 128,-1,41
 359 211 359 211 436.5 155 c 128,-1,42
 514 99 514 99 620 99 c 256,27,28
EndSplineSet
EndChar

StartChar: uni0253
Encoding: 595 595 582
Width: 1186
GlyphClass: 2
Flags: W
AnchorPoint: "Anchor-1" 365 1490 basechar 0
AnchorPoint: "Anchor-0" 580 38 basechar 0
LayerCount: 2
Fore
SplineSet
635 -21 m 0,0,1
 546 -21 546 -21 477 10 c 128,-1,2
 408 41 408 41 360 93 c 128,-1,3
 312 145 312 145 284 204 c 1,4,-1
 275 204 l 1,5,-1
 275 0 l 1,6,-1
 150 0 l 1,7,-1
 150 1087 l 1,8,-1
 279 1087 l 1,9,-1
 279 880 l 1,10,-1
 285 880 l 1,11,12
 312 939 312 939 359 990.5 c 128,-1,13
 406 1042 406 1042 475 1073 c 128,-1,14
 544 1104 544 1104 634 1104 c 0,15,16
 772 1104 772 1104 875.5 1033.5 c 128,-1,17
 979 963 979 963 1037 836.5 c 128,-1,18
 1095 710 1095 710 1095 542 c 0,19,20
 1095 375 1095 375 1037 248 c 128,-1,21
 979 121 979 121 875.5 50 c 128,-1,22
 772 -21 772 -21 635 -21 c 0,0,1
619 97 m 0,23,24
 725 97 725 97 802.5 153 c 128,-1,25
 880 209 880 209 922.5 309 c 128,-1,26
 965 409 965 409 965 543 c 0,27,28
 965 676 965 676 922.5 776 c 128,-1,29
 880 876 880 876 803 931 c 128,-1,30
 726 986 726 986 619 986 c 256,31,32
 512 986 512 986 434.5 931 c 128,-1,33
 357 876 357 876 315 775.5 c 128,-1,34
 273 675 273 675 273 543 c 256,35,36
 273 411 273 411 315 310 c 128,-1,37
 357 209 357 209 434.5 153 c 128,-1,38
 512 97 512 97 619 97 c 0,23,24
150 877 m 1,39,-1
 150 1262 l 2,40,41
 150 1378 150 1378 216 1436.5 c 128,-1,42
 282 1495 282 1495 406 1495 c 0,43,44
 434 1495 434 1495 457 1494.5 c 128,-1,45
 480 1494 480 1494 498 1492 c 1,46,-1
 498 1377 l 1,47,48
 482 1378 482 1378 458.5 1378.5 c 128,-1,49
 435 1379 435 1379 421 1379 c 0,50,51
 348 1379 348 1379 315 1351 c 128,-1,52
 282 1323 282 1323 282 1262 c 2,53,-1
 282 877 l 1,54,-1
 150 877 l 1,39,-1
EndSplineSet
EndChar

StartChar: thorn
Encoding: 254 254 586
Width: 1189
Flags: W
LayerCount: 2
Fore
SplineSet
639 -21 m 0,0,1
 549 -21 549 -21 480.5 10 c 128,-1,2
 412 41 412 41 364.5 93 c 128,-1,3
 317 145 317 145 289 205 c 1,4,-1
 282 205 l 1,5,-1
 282 -418 l 1,6,-1
 150 -418 l 1,7,-1
 150 1490 l 1,8,-1
 282 1490 l 1,9,-1
 282 881 l 1,10,-1
 289 881 l 1,11,12
 315 939 315 939 362 990.5 c 128,-1,13
 409 1042 409 1042 478.5 1073 c 128,-1,14
 548 1104 548 1104 638 1104 c 0,15,16
 774 1104 774 1104 877.5 1033.5 c 128,-1,17
 981 963 981 963 1039 836.5 c 128,-1,18
 1097 710 1097 710 1097 542 c 256,19,20
 1097 374 1097 374 1039.5 247.5 c 128,-1,21
 982 121 982 121 878.5 50 c 128,-1,22
 775 -21 775 -21 639 -21 c 0,0,1
620 99 m 256,23,24
 726 99 726 99 802.5 155 c 128,-1,25
 879 211 879 211 921.5 310.5 c 128,-1,26
 964 410 964 410 964 543 c 0,27,28
 964 675 964 675 922 774.5 c 128,-1,29
 880 874 880 874 803 929.5 c 128,-1,30
 726 985 726 985 620 985 c 256,31,32
 514 985 514 985 437 929.5 c 128,-1,33
 360 874 360 874 318.5 774.5 c 128,-1,34
 277 675 277 675 277 543 c 0,35,36
 277 412 277 412 318 311.5 c 128,-1,37
 359 211 359 211 436.5 155 c 128,-1,38
 514 99 514 99 620 99 c 256,23,24
EndSplineSet
EndChar

StartChar: c
Encoding: 99 99 587
Width: 1100
GlyphClass: 2
Flags: W
AnchorPoint: "Anchor-3" 580 0 basechar 0
AnchorPoint: "Anchor-1" 580 1087 basechar 0
AnchorPoint: "Anchor-0" 580 0 basechar 0
LayerCount: 2
Fore
SplineSet
580 -21 m 0,0,1
 436 -21 436 -21 326 51 c 128,-1,2
 216 123 216 123 153.5 249.5 c 128,-1,3
 91 376 91 376 91 541 c 0,4,5
 91 707 91 707 153.5 834 c 128,-1,6
 216 961 216 961 326 1033 c 128,-1,7
 436 1105 436 1105 580 1105 c 0,8,9
 665 1105 665 1105 738 1079.5 c 128,-1,10
 811 1054 811 1054 867 1009 c 128,-1,11
 923 964 923 964 960 905 c 128,-1,12
 997 846 997 846 1012 781 c 1,13,-1
 882 760 l 1,14,15
 872 803 872 803 847 843.5 c 128,-1,16
 822 884 822 884 783.5 915.5 c 128,-1,17
 745 947 745 947 694 966 c 128,-1,18
 643 985 643 985 580 985 c 0,19,20
 469 985 469 985 390 927 c 128,-1,21
 311 869 311 869 268.5 769 c 128,-1,22
 226 669 226 669 226 541 c 0,23,24
 226 414 226 414 268.5 314.5 c 128,-1,25
 311 215 311 215 390 157.5 c 128,-1,26
 469 100 469 100 580 100 c 0,27,28
 643 100 643 100 694.5 118.5 c 128,-1,29
 746 137 746 137 784 169 c 128,-1,30
 822 201 822 201 847 242 c 128,-1,31
 872 283 872 283 883 327 c 1,32,-1
 1014 307 l 1,33,34
 999 242 999 242 962 182.5 c 128,-1,35
 925 123 925 123 868.5 77.5 c 128,-1,36
 812 32 812 32 738.5 5.5 c 128,-1,37
 665 -21 665 -21 580 -21 c 0,0,1
EndSplineSet
Substitution2: "'sups' Superscript in Latin lookup 39 subtable" c.sups
Substitution2: "'subs' Subscript in Latin lookup 38 subtable" c.subs
Substitution2: "'sinf' Scientific Inferiors in Latin lookup 18 subtable" c.subs
AlternateSubs2: "'aalt' Access All Alternates in Latin lookup 1 subtable" c.sups c.subs
EndChar

StartChar: uni023C
Encoding: 572 572 588
Width: 1100
GlyphClass: 2
Flags: W
AnchorPoint: "Anchor-3" 580 0 basechar 0
AnchorPoint: "Anchor-1" 580 1087 basechar 0
AnchorPoint: "Anchor-0" 580 0 basechar 0
LayerCount: 2
Fore
SplineSet
149 -418 m 1,0,-1
 872 1498 l 1,1,-1
 980 1498 l 1,2,-1
 258 -418 l 1,3,-1
 149 -418 l 1,0,-1
580 -21 m 0,4,5
 436 -21 436 -21 326 51 c 128,-1,6
 216 123 216 123 153.5 249.5 c 128,-1,7
 91 376 91 376 91 541 c 0,8,9
 91 707 91 707 153.5 834 c 128,-1,10
 216 961 216 961 326 1033 c 128,-1,11
 436 1105 436 1105 580 1105 c 0,12,13
 665 1105 665 1105 738 1079.5 c 128,-1,14
 811 1054 811 1054 867 1009 c 128,-1,15
 923 964 923 964 960 905 c 128,-1,16
 997 846 997 846 1012 781 c 1,17,-1
 882 760 l 1,18,19
 872 803 872 803 847 843.5 c 128,-1,20
 822 884 822 884 783.5 915.5 c 128,-1,21
 745 947 745 947 694 966 c 128,-1,22
 643 985 643 985 580 985 c 0,23,24
 469 985 469 985 390 927 c 128,-1,25
 311 869 311 869 268.5 769 c 128,-1,26
 226 669 226 669 226 541 c 0,27,28
 226 414 226 414 268.5 314.5 c 128,-1,29
 311 215 311 215 390 157.5 c 128,-1,30
 469 100 469 100 580 100 c 0,31,32
 643 100 643 100 694.5 118.5 c 128,-1,33
 746 137 746 137 784 169 c 128,-1,34
 822 201 822 201 847 242 c 128,-1,35
 872 283 872 283 883 327 c 1,36,-1
 1014 307 l 1,37,38
 999 242 999 242 962 182.5 c 128,-1,39
 925 123 925 123 868.5 77.5 c 128,-1,40
 812 32 812 32 738.5 5.5 c 128,-1,41
 665 -21 665 -21 580 -21 c 0,4,5
EndSplineSet
Ligature2: "'ccmp' Glyph Composition/Decomposition in Latin lookup 6 subtable" c uni0338
EndChar

StartChar: uni0188
Encoding: 392 392 589
Width: 1190
GlyphClass: 2
Flags: W
AnchorPoint: "Anchor-3" 580 0 basechar 0
AnchorPoint: "Anchor-1" 580 1087 basechar 0
AnchorPoint: "Anchor-0" 580 0 basechar 0
LayerCount: 2
Fore
SplineSet
898 769 m 1,0,-1
 848 1011 l 1,1,2
 815 1141 815 1141 873.5 1206.5 c 128,-1,3
 932 1272 932 1272 1060 1272 c 0,4,5
 1087 1272 1087 1272 1109 1271.5 c 128,-1,6
 1131 1271 1131 1271 1149 1270 c 1,7,-1
 1149 1156 l 1,8,9
 1129 1157 1129 1157 1103.5 1157.5 c 128,-1,10
 1078 1158 1078 1158 1063 1158 c 0,11,12
 1001 1158 1001 1158 976 1126.5 c 128,-1,13
 951 1095 951 1095 967 1029 c 2,14,-1
 1012 781 l 1,15,-1
 898 769 l 1,0,-1
580 -21 m 0,16,17
 436 -21 436 -21 326 51 c 128,-1,18
 216 123 216 123 153.5 249.5 c 128,-1,19
 91 376 91 376 91 541 c 0,20,21
 91 707 91 707 153.5 834 c 128,-1,22
 216 961 216 961 326 1033 c 128,-1,23
 436 1105 436 1105 580 1105 c 0,24,25
 665 1105 665 1105 738 1079.5 c 128,-1,26
 811 1054 811 1054 867 1009 c 128,-1,27
 923 964 923 964 960 905 c 128,-1,28
 997 846 997 846 1012 781 c 1,29,-1
 882 760 l 1,30,31
 872 803 872 803 847 843.5 c 128,-1,32
 822 884 822 884 783.5 915.5 c 128,-1,33
 745 947 745 947 694 966 c 128,-1,34
 643 985 643 985 580 985 c 0,35,36
 469 985 469 985 390 927 c 128,-1,37
 311 869 311 869 268.5 769 c 128,-1,38
 226 669 226 669 226 541 c 0,39,40
 226 414 226 414 268.5 314.5 c 128,-1,41
 311 215 311 215 390 157.5 c 128,-1,42
 469 100 469 100 580 100 c 0,43,44
 643 100 643 100 694.5 118.5 c 128,-1,45
 746 137 746 137 784 169 c 128,-1,46
 822 201 822 201 847 242 c 128,-1,47
 872 283 872 283 883 327 c 1,48,-1
 1014 307 l 1,49,50
 999 242 999 242 962 182.5 c 128,-1,51
 925 123 925 123 868.5 77.5 c 128,-1,52
 812 32 812 32 738.5 5.5 c 128,-1,53
 665 -21 665 -21 580 -21 c 0,16,17
EndSplineSet
EndChar

StartChar: d
Encoding: 100 100 598
Width: 1189
GlyphClass: 2
Flags: W
AnchorPoint: "Anchor-1" 547 1283 basechar 0
LayerCount: 2
Fore
SplineSet
551 -21 m 0,0,1
 415 -21 415 -21 311 50 c 128,-1,2
 207 121 207 121 149 247.5 c 128,-1,3
 91 374 91 374 91 542 c 256,4,5
 91 710 91 710 149.5 836.5 c 128,-1,6
 208 963 208 963 312 1033.5 c 128,-1,7
 416 1104 416 1104 551 1104 c 0,8,9
 642 1104 642 1104 711 1073 c 128,-1,10
 780 1042 780 1042 827.5 990.5 c 128,-1,11
 875 939 875 939 900 881 c 1,12,-1
 907 881 l 1,13,-1
 907 1490 l 1,14,-1
 1039 1490 l 1,15,-1
 1039 0 l 1,16,-1
 910 0 l 1,17,-1
 910 205 l 1,18,-1
 902 205 l 1,19,20
 874 145 874 145 826.5 93 c 128,-1,21
 779 41 779 41 710.5 10 c 128,-1,22
 642 -21 642 -21 551 -21 c 0,0,1
568 99 m 0,23,24
 675 99 675 99 752 155 c 128,-1,25
 829 211 829 211 870.5 311.5 c 128,-1,26
 912 412 912 412 912 543 c 0,27,28
 912 675 912 675 871 774.5 c 128,-1,29
 830 874 830 874 753 929.5 c 128,-1,30
 676 985 676 985 568 985 c 0,31,32
 464 985 464 985 387 929.5 c 128,-1,33
 310 874 310 874 268 774.5 c 128,-1,34
 226 675 226 675 226 543 c 0,35,36
 226 410 226 410 267.5 310.5 c 128,-1,37
 309 211 309 211 387 155 c 128,-1,38
 465 99 465 99 568 99 c 0,23,24
EndSplineSet
Substitution2: "'sups' Superscript in Latin lookup 39 subtable" d.sups
Substitution2: "'subs' Subscript in Latin lookup 38 subtable" d.subs
Substitution2: "'sinf' Scientific Inferiors in Latin lookup 18 subtable" d.subs
AlternateSubs2: "'aalt' Access All Alternates in Latin lookup 1 subtable" d.sups d.subs
EndChar

StartChar: drthook
Encoding: 598 598 600
Width: 1189
GlyphClass: 2
Flags: W
AnchorPoint: "Anchor-1" 547 1283 basechar 0
LayerCount: 2
Fore
SplineSet
1157 -420 m 0,0,1
 1033 -420 1033 -420 969 -361.5 c 128,-1,2
 905 -303 905 -303 905 -186 c 2,3,-1
 905 220 l 1,4,-1
 1036 220 l 1,5,-1
 1036 -186 l 2,6,7
 1036 -249 1036 -249 1067.5 -277 c 128,-1,8
 1099 -305 1099 -305 1172 -305 c 0,9,10
 1186 -305 1186 -305 1209.5 -304.5 c 128,-1,11
 1233 -304 1233 -304 1249 -303 c 1,12,-1
 1249 -418 l 1,13,14
 1231 -419 1231 -419 1207.5 -419.5 c 128,-1,15
 1184 -420 1184 -420 1157 -420 c 0,0,1
551 -21 m 0,16,17
 415 -21 415 -21 311 50 c 128,-1,18
 207 121 207 121 149 247.5 c 128,-1,19
 91 374 91 374 91 542 c 256,20,21
 91 710 91 710 149.5 836.5 c 128,-1,22
 208 963 208 963 312 1033.5 c 128,-1,23
 416 1104 416 1104 551 1104 c 0,24,25
 642 1104 642 1104 711 1073 c 128,-1,26
 780 1042 780 1042 827.5 990.5 c 128,-1,27
 875 939 875 939 900 881 c 1,28,-1
 907 881 l 1,29,-1
 907 1490 l 1,30,-1
 1039 1490 l 1,31,-1
 1039 0 l 1,32,-1
 910 0 l 1,33,-1
 910 205 l 1,34,-1
 902 205 l 1,35,36
 874 145 874 145 826.5 93 c 128,-1,37
 779 41 779 41 710.5 10 c 128,-1,38
 642 -21 642 -21 551 -21 c 0,16,17
568 99 m 0,39,40
 675 99 675 99 752 155 c 128,-1,41
 829 211 829 211 870.5 311.5 c 128,-1,42
 912 412 912 412 912 543 c 0,43,44
 912 675 912 675 871 774.5 c 128,-1,45
 830 874 830 874 753 929.5 c 128,-1,46
 676 985 676 985 568 985 c 0,47,48
 464 985 464 985 387 929.5 c 128,-1,49
 310 874 310 874 268 774.5 c 128,-1,50
 226 675 226 675 226 543 c 0,51,52
 226 410 226 410 267.5 310.5 c 128,-1,53
 309 211 309 211 387 155 c 128,-1,54
 465 99 465 99 568 99 c 0,39,40
EndSplineSet
EndChar

StartChar: uni0257
Encoding: 599 599 601
Width: 1189
GlyphClass: 2
Flags: W
AnchorPoint: "Anchor-4" 1039 0 basechar 0
AnchorPoint: "Anchor-1" 577 1087 basechar 0
AnchorPoint: "Anchor-0" 579 0 basechar 0
LayerCount: 2
Fore
SplineSet
907 866 m 1,0,-1
 907 1251 l 2,1,2
 907 1367 907 1367 973.5 1425.5 c 128,-1,3
 1040 1484 1040 1484 1163 1484 c 0,4,5
 1191 1484 1191 1484 1214.5 1483.5 c 128,-1,6
 1238 1483 1238 1483 1255 1482 c 1,7,-1
 1255 1367 l 1,8,9
 1239 1368 1239 1368 1216 1368 c 128,-1,10
 1193 1368 1193 1368 1179 1368 c 0,11,12
 1105 1368 1105 1368 1072 1340.5 c 128,-1,13
 1039 1313 1039 1313 1039 1251 c 2,14,-1
 1039 866 l 1,15,-1
 907 866 l 1,0,-1
551 -21 m 0,16,17
 416 -21 416 -21 312 50 c 128,-1,18
 208 121 208 121 149.5 247.5 c 128,-1,19
 91 374 91 374 91 542 c 256,20,21
 91 710 91 710 149.5 836.5 c 128,-1,22
 208 963 208 963 312 1033.5 c 128,-1,23
 416 1104 416 1104 552 1104 c 0,24,25
 643 1104 643 1104 712 1072.5 c 128,-1,26
 781 1041 781 1041 828.5 990 c 128,-1,27
 876 939 876 939 902 881 c 1,28,-1
 909 881 l 1,29,-1
 909 1087 l 1,30,-1
 1039 1087 l 1,31,-1
 1039 0 l 1,32,-1
 909 0 l 1,33,-1
 909 205 l 1,34,-1
 902 205 l 1,35,36
 874 145 874 145 826.5 93.5 c 128,-1,37
 779 42 779 42 710 10.5 c 128,-1,38
 641 -21 641 -21 551 -21 c 0,16,17
569 99 m 0,39,40
 676 99 676 99 753 155 c 128,-1,41
 830 211 830 211 871.5 311.5 c 128,-1,42
 913 412 913 412 913 543 c 0,43,44
 913 675 913 675 872 774.5 c 128,-1,45
 831 874 831 874 754 929.5 c 128,-1,46
 677 985 677 985 569 985 c 0,47,48
 465 985 465 985 387.5 929.5 c 128,-1,49
 310 874 310 874 268 775 c 128,-1,50
 226 676 226 676 226 543 c 256,51,52
 226 410 226 410 268 310.5 c 128,-1,53
 310 211 310 211 387.5 155 c 128,-1,54
 465 99 465 99 569 99 c 0,39,40
EndSplineSet
EndChar

StartChar: uni018C
Encoding: 396 396 602
Width: 1189
GlyphClass: 2
Flags: W
AnchorPoint: "Anchor-1" 547 1283 basechar 0
LayerCount: 2
Fore
SplineSet
971 1374 m 1,0,-1
 259 1374 l 1,1,-1
 259 1490 l 1,2,-1
 1039 1490 l 1,3,-1
 971 1374 l 1,0,-1
551 -21 m 0,4,5
 415 -21 415 -21 311 50 c 128,-1,6
 207 121 207 121 149 247.5 c 128,-1,7
 91 374 91 374 91 542 c 256,8,9
 91 710 91 710 149.5 836.5 c 128,-1,10
 208 963 208 963 312 1033.5 c 128,-1,11
 416 1104 416 1104 551 1104 c 0,12,13
 642 1104 642 1104 711 1073 c 128,-1,14
 780 1042 780 1042 827.5 990.5 c 128,-1,15
 875 939 875 939 900 881 c 1,16,-1
 907 881 l 1,17,-1
 907 1490 l 1,18,-1
 1039 1490 l 1,19,-1
 1039 0 l 1,20,-1
 910 0 l 1,21,-1
 910 205 l 1,22,-1
 902 205 l 1,23,24
 874 145 874 145 826.5 93 c 128,-1,25
 779 41 779 41 710.5 10 c 128,-1,26
 642 -21 642 -21 551 -21 c 0,4,5
568 99 m 0,27,28
 675 99 675 99 752 155 c 128,-1,29
 829 211 829 211 870.5 311.5 c 128,-1,30
 912 412 912 412 912 543 c 0,31,32
 912 675 912 675 871 774.5 c 128,-1,33
 830 874 830 874 753 929.5 c 128,-1,34
 676 985 676 985 568 985 c 0,35,36
 464 985 464 985 387 929.5 c 128,-1,37
 310 874 310 874 268 774.5 c 128,-1,38
 226 675 226 675 226 543 c 0,39,40
 226 410 226 410 267.5 310.5 c 128,-1,41
 309 211 309 211 387 155 c 128,-1,42
 465 99 465 99 568 99 c 0,27,28
EndSplineSet
EndChar

StartChar: uni0221
Encoding: 545 545 603
Width: 1509
GlyphClass: 2
Flags: W
AnchorPoint: "Anchor-1" 547 1283 basechar 0
LayerCount: 2
Fore
SplineSet
1198 -415 m 0,0,1
 1098 -415 1098 -415 1033 -373 c 128,-1,2
 968 -331 968 -331 936 -263.5 c 128,-1,3
 904 -196 904 -196 904 -121 c 2,4,-1
 904 182 l 1,5,-1
 1036 182 l 1,6,-1
 1036 -133 l 2,7,8
 1036 -212 1036 -212 1084 -256 c 128,-1,9
 1132 -300 1132 -300 1198 -300 c 0,10,11
 1262 -300 1262 -300 1302.5 -262 c 128,-1,12
 1343 -224 1343 -224 1343 -164 c 0,13,14
 1343 -107 1343 -107 1306 -70 c 128,-1,15
 1269 -33 1269 -33 1210 -28 c 0,16,17
 1167 -24 1167 -24 1129 -38 c 128,-1,18
 1091 -52 1091 -52 1055 -84.5 c 128,-1,19
 1019 -117 1019 -117 981 -168 c 1,20,-1
 776 -387 l 1,21,-1
 689 -301 l 1,22,-1
 864 -110 l 1,23,24
 947 -7 947 -7 1033 41 c 128,-1,25
 1119 89 1119 89 1205 89 c 0,26,27
 1322 89 1322 89 1401 19.5 c 128,-1,28
 1480 -50 1480 -50 1480 -164 c 0,29,30
 1480 -277 1480 -277 1402 -346 c 128,-1,31
 1324 -415 1324 -415 1198 -415 c 0,0,1
551 -21 m 0,32,33
 415 -21 415 -21 311 50 c 128,-1,34
 207 121 207 121 149 247.5 c 128,-1,35
 91 374 91 374 91 542 c 256,36,37
 91 710 91 710 149.5 836.5 c 128,-1,38
 208 963 208 963 312 1033.5 c 128,-1,39
 416 1104 416 1104 551 1104 c 0,40,41
 642 1104 642 1104 711 1073 c 128,-1,42
 780 1042 780 1042 827.5 990.5 c 128,-1,43
 875 939 875 939 900 881 c 1,44,-1
 907 881 l 1,45,-1
 907 1490 l 1,46,-1
 1039 1490 l 1,47,-1
 1039 0 l 1,48,-1
 910 0 l 1,49,-1
 910 205 l 1,50,-1
 902 205 l 1,51,52
 874 145 874 145 826.5 93 c 128,-1,53
 779 41 779 41 710.5 10 c 128,-1,54
 642 -21 642 -21 551 -21 c 0,32,33
568 99 m 0,55,56
 675 99 675 99 752 155 c 128,-1,57
 829 211 829 211 870.5 311.5 c 128,-1,58
 912 412 912 412 912 543 c 0,59,60
 912 675 912 675 871 774.5 c 128,-1,61
 830 874 830 874 753 929.5 c 128,-1,62
 676 985 676 985 568 985 c 0,63,64
 464 985 464 985 387 929.5 c 128,-1,65
 310 874 310 874 268 774.5 c 128,-1,66
 226 675 226 675 226 543 c 0,67,68
 226 410 226 410 267.5 310.5 c 128,-1,69
 309 211 309 211 387 155 c 128,-1,70
 465 99 465 99 568 99 c 0,55,56
EndSplineSet
EndChar

StartChar: uni02A3
Encoding: 675 675 611
Width: 2104
GlyphClass: 2
Flags: W
AnchorPoint: "Anchor-1" 547 1283 basechar 0
LayerCount: 2
Fore
SplineSet
1183 0 m 1,0,-1
 1183 102 l 1,1,-1
 1815 961 l 1,2,-1
 1815 968 l 1,3,-1
 976 968 l 1,4,-1
 976 1087 l 1,5,-1
 1977 1087 l 1,6,-1
 1977 980 l 1,7,-1
 1354 126 l 1,8,-1
 1354 119 l 1,9,-1
 1991 119 l 1,10,-1
 1991 0 l 1,11,-1
 1183 0 l 1,0,-1
551 -21 m 0,12,13
 415 -21 415 -21 311 50 c 128,-1,14
 207 121 207 121 149 247.5 c 128,-1,15
 91 374 91 374 91 542 c 256,16,17
 91 710 91 710 149.5 836.5 c 128,-1,18
 208 963 208 963 312 1033.5 c 128,-1,19
 416 1104 416 1104 551 1104 c 0,20,21
 642 1104 642 1104 711 1073 c 128,-1,22
 780 1042 780 1042 827.5 990.5 c 128,-1,23
 875 939 875 939 900 881 c 1,24,-1
 907 881 l 1,25,-1
 907 1490 l 1,26,-1
 1039 1490 l 1,27,-1
 1039 0 l 1,28,-1
 910 0 l 1,29,-1
 910 205 l 1,30,-1
 902 205 l 1,31,32
 874 145 874 145 826.5 93 c 128,-1,33
 779 41 779 41 710.5 10 c 128,-1,34
 642 -21 642 -21 551 -21 c 0,12,13
568 99 m 0,35,36
 675 99 675 99 752 155 c 128,-1,37
 829 211 829 211 870.5 311.5 c 128,-1,38
 912 412 912 412 912 543 c 0,39,40
 912 675 912 675 871 774.5 c 128,-1,41
 830 874 830 874 753 929.5 c 128,-1,42
 676 985 676 985 568 985 c 0,43,44
 464 985 464 985 387 929.5 c 128,-1,45
 310 874 310 874 268 774.5 c 128,-1,46
 226 675 226 675 226 543 c 0,47,48
 226 410 226 410 267.5 310.5 c 128,-1,49
 309 211 309 211 387 155 c 128,-1,50
 465 99 465 99 568 99 c 0,35,36
EndSplineSet
EndChar

StartChar: dyogh
Encoding: 676 676 613
Width: 1989
GlyphClass: 2
Flags: W
AnchorPoint: "Anchor-1" 547 1283 basechar 0
LayerCount: 2
Fore
SplineSet
1047 -88 m 1,0,1
 1062 -157 1062 -157 1111 -207.5 c 128,-1,2
 1160 -258 1160 -258 1234 -285.5 c 128,-1,3
 1308 -313 1308 -313 1393 -313 c 0,4,5
 1502 -313 1502 -313 1581.5 -272 c 128,-1,6
 1661 -231 1661 -231 1705 -159 c 128,-1,7
 1749 -87 1749 -87 1749 7 c 0,8,9
 1749 107 1749 107 1701 181.5 c 128,-1,10
 1653 256 1653 256 1562 297 c 128,-1,11
 1471 338 1471 338 1339 338 c 2,12,-1
 1241 338 l 1,13,-1
 1241 451 l 1,14,-1
 1652 961 l 1,15,-1
 1652 966 l 1,16,-1
 968 966 l 1,17,-1
 968 1088 l 1,18,-1
 1831 1088 l 1,19,-1
 1831 987 l 1,20,-1
 1397 450 l 1,21,-1
 1397 445 l 1,22,23
 1538 442 1538 442 1647.5 385.5 c 128,-1,24
 1757 329 1757 329 1820 232 c 128,-1,25
 1883 135 1883 135 1883 7 c 0,26,27
 1883 -118 1883 -118 1821.5 -218 c 128,-1,28
 1760 -318 1760 -318 1649.5 -376 c 128,-1,29
 1539 -434 1539 -434 1393 -434 c 0,30,31
 1271 -434 1271 -434 1167.5 -391.5 c 128,-1,32
 1064 -349 1064 -349 996 -271 c 128,-1,33
 928 -193 928 -193 912 -88 c 1,34,-1
 1047 -88 l 1,0,1
551 -21 m 0,35,36
 415 -21 415 -21 311 50 c 128,-1,37
 207 121 207 121 149 247.5 c 128,-1,38
 91 374 91 374 91 542 c 256,39,40
 91 710 91 710 149.5 836.5 c 128,-1,41
 208 963 208 963 312 1033.5 c 128,-1,42
 416 1104 416 1104 551 1104 c 0,43,44
 642 1104 642 1104 711 1073 c 128,-1,45
 780 1042 780 1042 827.5 990.5 c 128,-1,46
 875 939 875 939 900 881 c 1,47,-1
 907 881 l 1,48,-1
 907 1490 l 1,49,-1
 1039 1490 l 1,50,-1
 1039 0 l 1,51,-1
 910 0 l 1,52,-1
 910 205 l 1,53,-1
 902 205 l 1,54,55
 874 145 874 145 826.5 93 c 128,-1,56
 779 41 779 41 710.5 10 c 128,-1,57
 642 -21 642 -21 551 -21 c 0,35,36
568 99 m 0,58,59
 675 99 675 99 752 155 c 128,-1,60
 829 211 829 211 870.5 311.5 c 128,-1,61
 912 412 912 412 912 543 c 0,62,63
 912 675 912 675 871 774.5 c 128,-1,64
 830 874 830 874 753 929.5 c 128,-1,65
 676 985 676 985 568 985 c 0,66,67
 464 985 464 985 387 929.5 c 128,-1,68
 310 874 310 874 268 774.5 c 128,-1,69
 226 675 226 675 226 543 c 0,70,71
 226 410 226 410 267.5 310.5 c 128,-1,72
 309 211 309 211 387 155 c 128,-1,73
 465 99 465 99 568 99 c 0,58,59
EndSplineSet
EndChar

StartChar: e
Encoding: 101 101 615
Width: 1134
GlyphClass: 2
Flags: W
AnchorPoint: "Anchor-4" 1025 278 basechar 0
AnchorPoint: "Anchor-3" 575 0 basechar 0
AnchorPoint: "Anchor-1" 571 1087 basechar 0
AnchorPoint: "Anchor-0" 571 0 basechar 0
LayerCount: 2
Fore
SplineSet
588 -23 m 0,0,1
 436 -23 436 -23 324.5 49.5 c 128,-1,2
 213 122 213 122 152 249 c 128,-1,3
 91 376 91 376 91 539 c 0,4,5
 91 705 91 705 152 832.5 c 128,-1,6
 213 960 213 960 322.5 1032.5 c 128,-1,7
 432 1105 432 1105 574 1105 c 0,8,9
 673 1105 673 1105 759 1068.5 c 128,-1,10
 845 1032 845 1032 910 961 c 128,-1,11
 975 890 975 890 1011 788.5 c 128,-1,12
 1047 687 1047 687 1047 556 c 2,13,-1
 1047 507 l 1,14,-1
 170 507 l 1,15,-1
 170 622 l 1,16,-1
 974 622 l 1,17,-1
 916 581 l 1,18,19
 916 699 916 699 874 790.5 c 128,-1,20
 832 882 832 882 755 934 c 128,-1,21
 678 986 678 986 574 986 c 0,22,23
 469 986 469 986 390.5 933 c 128,-1,24
 312 880 312 880 267.5 788.5 c 128,-1,25
 223 697 223 697 223 583 c 2,26,-1
 223 523 l 2,27,28
 223 397 223 397 268 301 c 128,-1,29
 313 205 313 205 394.5 151 c 128,-1,30
 476 97 476 97 589 97 c 0,31,32
 667 97 667 97 729 123.5 c 128,-1,33
 791 150 791 150 834 195.5 c 128,-1,34
 877 241 877 241 896 298 c 1,35,-1
 1025 278 l 1,36,37
 1001 193 1001 193 940.5 124.5 c 128,-1,38
 880 56 880 56 790 16.5 c 128,-1,39
 700 -23 700 -23 588 -23 c 0,0,1
EndSplineSet
Substitution2: "'sups' Superscript in Latin lookup 39 subtable" e.sups
Substitution2: "'subs' Subscript in Latin lookup 38 subtable" e.subs
Substitution2: "'sinf' Scientific Inferiors in Latin lookup 18 subtable" e.subs
AlternateSubs2: "'aalt' Access All Alternates in Latin lookup 1 subtable" e.sups e.subs
EndChar

StartChar: uni0247
Encoding: 583 583 617
Width: 1145
GlyphClass: 2
Flags: W
AnchorPoint: "Anchor-4" 1035 278 basechar 0
AnchorPoint: "Anchor-3" 586 0 basechar 0
AnchorPoint: "Anchor-1" 582 1087 basechar 0
AnchorPoint: "Anchor-0" 582 0 basechar 0
LayerCount: 2
Fore
SplineSet
111 -418 m 1,0,-1
 913 1490 l 1,1,-1
 1021 1490 l 1,2,-1
 223 -418 l 1,3,-1
 111 -418 l 1,0,-1
598 -23 m 0,4,5
 446 -23 446 -23 334.5 49.5 c 128,-1,6
 223 122 223 122 162.5 249 c 128,-1,7
 102 376 102 376 102 539 c 0,8,9
 102 705 102 705 163 832.5 c 128,-1,10
 224 960 224 960 333 1032.5 c 128,-1,11
 442 1105 442 1105 584 1105 c 0,12,13
 683 1105 683 1105 769.5 1068.5 c 128,-1,14
 856 1032 856 1032 921 961 c 128,-1,15
 986 890 986 890 1022 788.5 c 128,-1,16
 1058 687 1058 687 1058 556 c 2,17,-1
 1058 507 l 1,18,-1
 181 507 l 1,19,-1
 181 622 l 1,20,-1
 985 622 l 1,21,-1
 927 581 l 1,22,23
 927 699 927 699 885 790.5 c 128,-1,24
 843 882 843 882 766 934 c 128,-1,25
 689 986 689 986 584 986 c 256,26,27
 479 986 479 986 400.5 933 c 128,-1,28
 322 880 322 880 278 788.5 c 128,-1,29
 234 697 234 697 234 583 c 2,30,-1
 234 523 l 2,31,32
 234 397 234 397 278.5 301 c 128,-1,33
 323 205 323 205 405 151 c 128,-1,34
 487 97 487 97 599 97 c 0,35,36
 678 97 678 97 740 123.5 c 128,-1,37
 802 150 802 150 844.5 195.5 c 128,-1,38
 887 241 887 241 906 298 c 1,39,-1
 1035 278 l 1,40,41
 1012 193 1012 193 951 124.5 c 128,-1,42
 890 56 890 56 800 16.5 c 128,-1,43
 710 -23 710 -23 598 -23 c 0,4,5
EndSplineSet
EndChar

StartChar: eturn
Encoding: 477 477 646
Width: 1134
GlyphClass: 2
Flags: W
AnchorPoint: "Anchor-4" 729 -10 basechar 0
AnchorPoint: "Anchor-3" 596 0 basechar 0
AnchorPoint: "Anchor-1" 597 1087 basechar 0
AnchorPoint: "Anchor-0" 594 0 basechar 0
LayerCount: 2
Fore
SplineSet
546 1110 m 0,0,1
 700 1110 700 1110 811 1037.5 c 128,-1,2
 922 965 922 965 982.5 838.5 c 128,-1,3
 1043 712 1043 712 1043 548 c 256,4,5
 1043 384 1043 384 982 256 c 128,-1,6
 921 128 921 128 812.5 55 c 128,-1,7
 704 -18 704 -18 562 -18 c 0,8,9
 461 -18 461 -18 375 19 c 128,-1,10
 289 56 289 56 224.5 126.5 c 128,-1,11
 160 197 160 197 123.5 299 c 128,-1,12
 87 401 87 401 87 532 c 2,13,-1
 87 581 l 1,14,-1
 964 581 l 1,15,-1
 964 466 l 1,16,-1
 160 466 l 1,17,-1
 219 506 l 1,18,19
 219 389 219 389 261 297 c 128,-1,20
 303 205 303 205 380 153 c 128,-1,21
 457 101 457 101 562 101 c 0,22,23
 666 101 666 101 745 154 c 128,-1,24
 824 207 824 207 867.5 299 c 128,-1,25
 911 391 911 391 911 506 c 2,26,-1
 911 564 l 2,27,28
 911 692 911 692 867 787.5 c 128,-1,29
 823 883 823 883 741 936.5 c 128,-1,30
 659 990 659 990 547 990 c 0,31,32
 467 990 467 990 405 964 c 128,-1,33
 343 938 343 938 301 892.5 c 128,-1,34
 259 847 259 847 238 789 c 1,35,-1
 109 809 l 1,36,37
 133 895 133 895 193.5 963 c 128,-1,38
 254 1031 254 1031 344.5 1070.5 c 128,-1,39
 435 1110 435 1110 546 1110 c 0,0,1
EndSplineSet
EndChar

StartChar: _part.f_base
Encoding: 1114123 -1 647
Width: 681
GlyphClass: 2
Flags: W
AnchorPoint: "Anchor-1" 379 1521 basechar 0
AnchorPoint: "Anchor-0" 298 0 basechar 0
LayerCount: 2
Fore
SplineSet
231 0 m 1,0,-1
 231 1269 l 2,1,2
 231 1350 231 1350 267 1407 c 128,-1,3
 303 1464 303 1464 364.5 1494 c 128,-1,4
 426 1524 426 1524 503 1524 c 0,5,6
 546 1524 546 1524 577.5 1520.5 c 128,-1,7
 609 1517 609 1517 625 1512 c 1,8,-1
 606 1397 l 1,9,10
 593 1400 593 1400 568 1402.5 c 128,-1,11
 543 1405 543 1405 516 1405 c 0,12,13
 439 1405 439 1405 401 1365.5 c 128,-1,14
 363 1326 363 1326 363 1247 c 2,15,-1
 363 0 l 1,16,-1
 231 0 l 1,0,-1
EndSplineSet
EndChar

StartChar: f
Encoding: 102 102 648
Width: 644
GlyphClass: 2
Flags: W
AnchorPoint: "Anchor-1" 365 1521 basechar 0
AnchorPoint: "Anchor-0" 283 0 basechar 0
LayerCount: 2
Fore
SplineSet
591 1087 m 1,0,-1
 591 972 l 1,1,-1
 14 972 l 1,2,-1
 14 1087 l 1,3,-1
 591 1087 l 1,0,-1
218 0 m 1,4,-1
 218 1269 l 2,5,6
 218 1350 218 1350 253 1407 c 128,-1,7
 288 1464 288 1464 350 1494 c 128,-1,8
 412 1524 412 1524 490 1524 c 0,9,10
 531 1524 531 1524 563 1520.5 c 128,-1,11
 595 1517 595 1517 611 1512 c 1,12,-1
 592 1397 l 1,13,14
 578 1400 578 1400 553 1402.5 c 128,-1,15
 528 1405 528 1405 501 1405 c 0,16,17
 424 1405 424 1405 387 1365.5 c 128,-1,18
 350 1326 350 1326 350 1247 c 2,19,-1
 350 0 l 1,20,-1
 218 0 l 1,4,-1
EndSplineSet
Substitution2: "'cv12' Character Variants 12 in Latin lookup 66 subtable" f.1
Substitution2: "'salt' Stylistic Alternatives in Latin lookup 46 subtable" f.1
Substitution2: "'sups' Superscript in Latin lookup 39 subtable" f.sups
Substitution2: "'subs' Subscript in Latin lookup 38 subtable" f.subs
Substitution2: "Single Substitution lookup 36 subtable" f.1
Substitution2: "Single Substitution lookup 35 subtable" f.i.1
Substitution2: "Single Substitution lookup 34 subtable" f.i
Substitution2: "'sinf' Scientific Inferiors in Latin lookup 18 subtable" f.subs
AlternateSubs2: "'aalt' Access All Alternates in Latin lookup 1 subtable" f.sups f.subs
EndChar

StartChar: f.1
Encoding: 60941 60941 649
Width: 576
GlyphClass: 2
Flags: W
AnchorPoint: "Anchor-1" 298 1521 basechar 0
AnchorPoint: "Anchor-0" 217 0 basechar 0
LayerCount: 2
Fore
SplineSet
524 1087 m 1,0,-1
 524 972 l 1,1,-1
 207 972 l 1,2,-1
 207 1087 l 1,3,-1
 524 1087 l 1,0,-1
150 0 m 1,4,-1
 150 1269 l 2,5,6
 150 1350 150 1350 186 1407 c 128,-1,7
 222 1464 222 1464 283 1494 c 128,-1,8
 344 1524 344 1524 422 1524 c 0,9,10
 464 1524 464 1524 496 1520.5 c 128,-1,11
 528 1517 528 1517 544 1512 c 1,12,-1
 525 1397 l 1,13,14
 511 1400 511 1400 486 1402.5 c 128,-1,15
 461 1405 461 1405 435 1405 c 0,16,17
 358 1405 358 1405 320 1365.5 c 128,-1,18
 282 1326 282 1326 282 1247 c 2,19,-1
 282 0 l 1,20,-1
 150 0 l 1,4,-1
EndSplineSet
EndChar

StartChar: f.i
Encoding: 60942 60942 650
Width: 599
GlyphClass: 2
Flags: W
AnchorPoint: "Anchor-1" 365 1521 basechar 0
AnchorPoint: "Anchor-0" 282 0 basechar 0
LayerCount: 2
Fore
SplineSet
217 0 m 1,0,-1
 217 1269 l 2,1,2
 217 1349 217 1349 252.5 1406 c 128,-1,3
 288 1463 288 1463 349 1493.5 c 128,-1,4
 410 1524 410 1524 484 1524 c 0,5,6
 505 1524 505 1524 525 1522 c 128,-1,7
 545 1520 545 1520 564 1516 c 1,8,-1
 549 1399 l 1,9,10
 537 1402 537 1402 524 1403.5 c 128,-1,11
 511 1405 511 1405 496 1405 c 0,12,13
 424 1405 424 1405 386.5 1365 c 128,-1,14
 349 1325 349 1325 349 1247 c 2,15,-1
 349 0 l 1,16,-1
 217 0 l 1,0,-1
14 972 m 1,17,-1
 14 1087 l 1,18,-1
 732 1087 l 1,19,-1
 732 972 l 1,20,-1
 14 972 l 1,17,-1
EndSplineSet
Substitution2: "Single Substitution lookup 35 subtable" f.i.1
EndChar

StartChar: f.i.1
Encoding: 60943 60943 651
Width: 532
GlyphClass: 2
Flags: W
AnchorPoint: "Anchor-1" 298 1521 basechar 0
AnchorPoint: "Anchor-0" 217 0 basechar 0
LayerCount: 2
Fore
SplineSet
150 0 m 1,0,-1
 150 1269 l 2,1,2
 150 1349 150 1349 186 1406 c 128,-1,3
 222 1463 222 1463 282.5 1493.5 c 128,-1,4
 343 1524 343 1524 417 1524 c 0,5,6
 440 1524 440 1524 459.5 1522 c 128,-1,7
 479 1520 479 1520 497 1516 c 1,8,-1
 483 1399 l 1,9,10
 470 1402 470 1402 457 1403.5 c 128,-1,11
 444 1405 444 1405 430 1405 c 0,12,13
 358 1405 358 1405 320 1365 c 128,-1,14
 282 1325 282 1325 282 1247 c 2,15,-1
 282 0 l 1,16,-1
 150 0 l 1,0,-1
213 972 m 1,17,-1
 213 1087 l 1,18,-1
 665 1087 l 1,19,-1
 665 972 l 1,20,-1
 213 972 l 1,17,-1
EndSplineSet
EndChar

StartChar: g
Encoding: 103 103 659
Width: 1189
GlyphClass: 2
Flags: W
AnchorPoint: "Anchor-1" 575 1087 basechar 0
AnchorPoint: "Anchor-0" 583 -436 basechar 0
LayerCount: 2
Fore
SplineSet
579 -436 m 0,0,1
 461 -436 461 -436 371.5 -402.5 c 128,-1,2
 282 -369 282 -369 224 -307.5 c 128,-1,3
 166 -246 166 -246 142 -164 c 1,4,-1
 264 -129 l 1,5,6
 283 -183 283 -183 324 -226 c 128,-1,7
 365 -269 365 -269 428.5 -293.5 c 128,-1,8
 492 -318 492 -318 579 -318 c 0,9,10
 731 -318 731 -318 819.5 -239.5 c 128,-1,11
 908 -161 908 -161 908 -10 c 2,12,-1
 908 216 l 1,13,-1
 901 216 l 1,14,15
 873 155 873 155 825.5 105 c 128,-1,16
 778 55 778 55 709.5 26 c 128,-1,17
 641 -3 641 -3 551 -3 c 0,18,19
 417 -3 417 -3 313 64 c 128,-1,20
 209 131 209 131 150 254.5 c 128,-1,21
 91 378 91 378 91 545 c 256,22,23
 91 712 91 712 149.5 837.5 c 128,-1,24
 208 963 208 963 312 1033.5 c 128,-1,25
 416 1104 416 1104 552 1104 c 0,26,27
 643 1104 643 1104 712 1073 c 128,-1,28
 781 1042 781 1042 829 990.5 c 128,-1,29
 877 939 877 939 904 877 c 1,30,-1
 911 877 l 1,31,-1
 911 1087 l 1,32,-1
 1039 1087 l 1,33,-1
 1039 -13 l 2,34,35
 1039 -157 1039 -157 979.5 -251 c 128,-1,36
 920 -345 920 -345 815 -390.5 c 128,-1,37
 710 -436 710 -436 579 -436 c 0,0,1
569 117 m 0,38,39
 676 117 676 117 753 169 c 128,-1,40
 830 221 830 221 871.5 318 c 128,-1,41
 913 415 913 415 913 546 c 256,42,43
 913 677 913 677 872 775.5 c 128,-1,44
 831 874 831 874 754 929.5 c 128,-1,45
 677 985 677 985 569 985 c 0,46,47
 465 985 465 985 387 929.5 c 128,-1,48
 309 874 309 874 267.5 775.5 c 128,-1,49
 226 677 226 677 226 546 c 0,50,51
 226 414 226 414 268 317.5 c 128,-1,52
 310 221 310 221 387.5 169 c 128,-1,53
 465 117 465 117 569 117 c 0,38,39
EndSplineSet
Substitution2: "'smcp' Lowercase to Small Capitals in Latin lookup 69 subtable" g.sc
Substitution2: "'sups' Superscript in Latin lookup 39 subtable" g.sups
Substitution2: "'subs' Subscript in Latin lookup 38 subtable" g.subs
Substitution2: "'sinf' Scientific Inferiors in Latin lookup 18 subtable" g.subs
AlternateSubs2: "'aalt' Access All Alternates in Latin lookup 1 subtable" g.sc g.sups g.subs
EndChar

StartChar: uni0260
Encoding: 608 608 660
Width: 1189
GlyphClass: 2
Flags: W
AnchorPoint: "Anchor-1" 575 1087 basechar 0
AnchorPoint: "Anchor-0" 583 -436 basechar 0
LayerCount: 2
Fore
SplineSet
907 866 m 1,0,-1
 907 1251 l 2,1,2
 907 1367 907 1367 973.5 1425.5 c 128,-1,3
 1040 1484 1040 1484 1163 1484 c 0,4,5
 1191 1484 1191 1484 1214.5 1483.5 c 128,-1,6
 1238 1483 1238 1483 1255 1482 c 1,7,-1
 1255 1367 l 1,8,9
 1239 1368 1239 1368 1216 1368 c 128,-1,10
 1193 1368 1193 1368 1179 1368 c 0,11,12
 1105 1368 1105 1368 1072 1340.5 c 128,-1,13
 1039 1313 1039 1313 1039 1251 c 2,14,-1
 1039 866 l 1,15,-1
 907 866 l 1,0,-1
579 -436 m 0,16,17
 461 -436 461 -436 371.5 -402.5 c 128,-1,18
 282 -369 282 -369 224 -307.5 c 128,-1,19
 166 -246 166 -246 142 -164 c 1,20,-1
 264 -129 l 1,21,22
 283 -183 283 -183 324 -226 c 128,-1,23
 365 -269 365 -269 428.5 -293.5 c 128,-1,24
 492 -318 492 -318 579 -318 c 0,25,26
 731 -318 731 -318 819.5 -239.5 c 128,-1,27
 908 -161 908 -161 908 -10 c 2,28,-1
 908 216 l 1,29,-1
 901 216 l 1,30,31
 873 155 873 155 825.5 105 c 128,-1,32
 778 55 778 55 709.5 26 c 128,-1,33
 641 -3 641 -3 551 -3 c 0,34,35
 417 -3 417 -3 313 64 c 128,-1,36
 209 131 209 131 150 254.5 c 128,-1,37
 91 378 91 378 91 545 c 256,38,39
 91 712 91 712 149.5 837.5 c 128,-1,40
 208 963 208 963 312 1033.5 c 128,-1,41
 416 1104 416 1104 552 1104 c 0,42,43
 643 1104 643 1104 712 1073 c 128,-1,44
 781 1042 781 1042 829 990.5 c 128,-1,45
 877 939 877 939 904 877 c 1,46,-1
 911 877 l 1,47,-1
 911 1087 l 1,48,-1
 1039 1087 l 1,49,-1
 1039 -13 l 2,50,51
 1039 -157 1039 -157 979.5 -251 c 128,-1,52
 920 -345 920 -345 815 -390.5 c 128,-1,53
 710 -436 710 -436 579 -436 c 0,16,17
569 117 m 0,54,55
 676 117 676 117 753 169 c 128,-1,56
 830 221 830 221 871.5 318 c 128,-1,57
 913 415 913 415 913 546 c 256,58,59
 913 677 913 677 872 775.5 c 128,-1,60
 831 874 831 874 754 929.5 c 128,-1,61
 677 985 677 985 569 985 c 0,62,63
 465 985 465 985 387 929.5 c 128,-1,64
 309 874 309 874 267.5 775.5 c 128,-1,65
 226 677 226 677 226 546 c 0,66,67
 226 414 226 414 268 317.5 c 128,-1,68
 310 221 310 221 387.5 169 c 128,-1,69
 465 117 465 117 569 117 c 0,54,55
EndSplineSet
Substitution2: "'smcp' Lowercase to Small Capitals in Latin lookup 69 subtable" uni0260.sc
Substitution2: "'c2sc' Capitals to Small Capitals in Latin lookup 68 subtable" uni0260.sc
Substitution2: "'aalt' Access All Alternates in Latin lookup 0 subtable" uni0260.sc
EndChar

StartChar: g.sc
Encoding: 610 610 669
Width: 1105
GlyphClass: 2
Flags: W
AnchorPoint: "Anchor-1" 558 1087 basechar 0
AnchorPoint: "Anchor-0" 557 0 basechar 0
LayerCount: 2
Fore
SplineSet
567 -15 m 0,0,1
 422 -15 422 -15 310.5 54.5 c 128,-1,2
 199 124 199 124 137 250 c 128,-1,3
 75 376 75 376 75 543 c 0,4,5
 75 713 75 713 138 838.5 c 128,-1,6
 201 964 201 964 311 1033 c 128,-1,7
 421 1102 421 1102 564 1102 c 0,8,9
 686 1102 686 1102 781.5 1053 c 128,-1,10
 877 1004 877 1004 937.5 921.5 c 128,-1,11
 998 839 998 839 1014 739 c 1,12,-1
 880 739 l 1,13,14
 864 806 864 806 822 861 c 128,-1,15
 780 916 780 916 715.5 949 c 128,-1,16
 651 982 651 982 565 982 c 0,17,18
 460 982 460 982 379 928.5 c 128,-1,19
 298 875 298 875 252.5 776.5 c 128,-1,20
 207 678 207 678 207 543 c 0,21,22
 207 410 207 410 252.5 311.5 c 128,-1,23
 298 213 298 213 379.5 159 c 128,-1,24
 461 105 461 105 569 105 c 0,25,26
 714 105 714 105 803.5 195.5 c 128,-1,27
 893 286 893 286 893 436 c 1,28,-1
 929 430 l 1,29,-1
 592 430 l 1,30,-1
 592 539 l 1,31,-1
 1022 539 l 1,32,-1
 1022 441 l 2,33,34
 1022 304 1022 304 963.5 201.5 c 128,-1,35
 905 99 905 99 802.5 42 c 128,-1,36
 700 -15 700 -15 567 -15 c 0,0,1
EndSplineSet
EndChar

StartChar: uni0260.sc
Encoding: 60947 60947 670
Width: 1171
GlyphClass: 2
Flags: W
AnchorPoint: "Anchor-1" 558 1087 basechar 0
AnchorPoint: "Anchor-0" 557 0 basechar 0
LayerCount: 2
Fore
SplineSet
916 739 m 1,0,-1
 882 979 l 2,1,2
 868 1058 868 1058 887.5 1115 c 128,-1,3
 907 1172 907 1172 959.5 1203 c 128,-1,4
 1012 1234 1012 1234 1093 1234 c 0,5,6
 1120 1234 1120 1234 1140 1233 c 128,-1,7
 1160 1232 1160 1232 1178 1231 c 1,8,-1
 1178 1117 l 1,9,10
 1161 1118 1161 1118 1141.5 1118 c 128,-1,11
 1122 1118 1122 1118 1108 1118 c 0,12,13
 1034 1118 1034 1118 1009 1078.5 c 128,-1,14
 984 1039 984 1039 1000 945 c 1,15,-1
 1014 739 l 1,16,-1
 916 739 l 1,0,-1
567 -15 m 0,17,18
 422 -15 422 -15 310.5 54.5 c 128,-1,19
 199 124 199 124 137 250 c 128,-1,20
 75 376 75 376 75 543 c 0,21,22
 75 713 75 713 138 838.5 c 128,-1,23
 201 964 201 964 311 1033 c 128,-1,24
 421 1102 421 1102 564 1102 c 0,25,26
 686 1102 686 1102 781.5 1053 c 128,-1,27
 877 1004 877 1004 937.5 921.5 c 128,-1,28
 998 839 998 839 1014 739 c 1,29,-1
 880 739 l 1,30,31
 864 806 864 806 822 861 c 128,-1,32
 780 916 780 916 715.5 949 c 128,-1,33
 651 982 651 982 565 982 c 0,34,35
 460 982 460 982 379 928.5 c 128,-1,36
 298 875 298 875 252.5 776.5 c 128,-1,37
 207 678 207 678 207 543 c 0,38,39
 207 410 207 410 252.5 311.5 c 128,-1,40
 298 213 298 213 379.5 159 c 128,-1,41
 461 105 461 105 569 105 c 0,42,43
 714 105 714 105 803.5 195.5 c 128,-1,44
 893 286 893 286 893 436 c 1,45,-1
 929 430 l 1,46,-1
 592 430 l 1,47,-1
 592 539 l 1,48,-1
 1022 539 l 1,49,-1
 1022 441 l 2,50,51
 1022 304 1022 304 963.5 201.5 c 128,-1,52
 905 99 905 99 802.5 42 c 128,-1,53
 700 -15 700 -15 567 -15 c 0,17,18
EndSplineSet
EndChar

StartChar: h
Encoding: 104 104 671
Width: 1155
GlyphClass: 2
Flags: W
AnchorPoint: "Anchor-3" 216 0 basechar 0
AnchorPoint: "Anchor-1" 217 1490 basechar 0
AnchorPoint: "Anchor-0" 578 0 basechar 0
LayerCount: 2
Fore
SplineSet
282 669 m 2,0,-1
 282 0 l 1,1,-1
 150 0 l 1,2,-1
 150 1490 l 1,3,-1
 282 1490 l 1,4,-1
 282 832 l 1,5,-1
 251 832 l 1,6,7
 297 974 297 974 394.5 1039 c 128,-1,8
 492 1104 492 1104 619 1104 c 0,9,10
 730 1104 730 1104 817.5 1056.5 c 128,-1,11
 905 1009 905 1009 955 918.5 c 128,-1,12
 1005 828 1005 828 1005 695 c 2,13,-1
 1005 0 l 1,14,-1
 872 0 l 1,15,-1
 872 687 l 2,16,17
 872 826 872 826 795.5 904 c 128,-1,18
 719 982 719 982 590 982 c 0,19,20
 504 982 504 982 434 945.5 c 128,-1,21
 364 909 364 909 323 839.5 c 128,-1,22
 282 770 282 770 282 669 c 2,0,-1
EndSplineSet
Substitution2: "'smcp' Lowercase to Small Capitals in Latin lookup 69 subtable" h.sc
Substitution2: "'sups' Superscript in Latin lookup 39 subtable" h.sups
Substitution2: "'subs' Subscript in Latin lookup 38 subtable" h.subs
Substitution2: "'sinf' Scientific Inferiors in Latin lookup 18 subtable" h.subs
AlternateSubs2: "'aalt' Access All Alternates in Latin lookup 1 subtable" h.sups h.subs h.sc
EndChar

StartChar: uni0452
Encoding: 1106 1106 674
Width: 1155
GlyphClass: 2
Flags: W
AnchorPoint: "Anchor-3" 216 0 basechar 0
AnchorPoint: "Anchor-1" 217 1490 basechar 0
AnchorPoint: "Anchor-0" 578 0 basechar 0
LayerCount: 2
Fore
SplineSet
753 -420 m 0,0,1
 726 -420 726 -420 701.5 -419.5 c 128,-1,2
 677 -419 677 -419 659 -418 c 1,3,-1
 659 -303 l 1,4,5
 677 -304 677 -304 700 -304.5 c 128,-1,6
 723 -305 723 -305 737 -305 c 0,7,8
 809 -305 809 -305 840.5 -277 c 128,-1,9
 872 -249 872 -249 872 -186 c 2,10,-1
 872 0 l 1,11,-1
 1005 0 l 1,12,-1
 1005 -186 l 2,13,14
 1005 -303 1005 -303 941 -361.5 c 128,-1,15
 877 -420 877 -420 753 -420 c 0,0,1
282 669 m 2,16,-1
 282 0 l 1,17,-1
 150 0 l 1,18,-1
 150 1490 l 1,19,-1
 282 1490 l 1,20,-1
 282 832 l 1,21,-1
 251 832 l 1,22,23
 297 974 297 974 394.5 1039 c 128,-1,24
 492 1104 492 1104 619 1104 c 0,25,26
 730 1104 730 1104 817.5 1056.5 c 128,-1,27
 905 1009 905 1009 955 918.5 c 128,-1,28
 1005 828 1005 828 1005 695 c 2,29,-1
 1005 0 l 1,30,-1
 872 0 l 1,31,-1
 872 687 l 2,32,33
 872 826 872 826 795.5 904 c 128,-1,34
 719 982 719 982 590 982 c 0,35,36
 504 982 504 982 434 945.5 c 128,-1,37
 364 909 364 909 323 839.5 c 128,-1,38
 282 770 282 770 282 669 c 2,16,-1
-26 1228 m 1,39,-1
 -26 1338 l 1,40,-1
 588 1338 l 1,41,-1
 588 1228 l 1,42,-1
 -26 1228 l 1,39,-1
EndSplineSet
EndChar

StartChar: uni0266
Encoding: 614 614 675
Width: 1154
GlyphClass: 2
Flags: W
AnchorPoint: "Anchor-1" 578 1087 basechar 0
AnchorPoint: "Anchor-0" 578 0 basechar 0
LayerCount: 2
Fore
SplineSet
150 866 m 1,0,-1
 150 1251 l 2,1,2
 150 1367 150 1367 216 1425.5 c 128,-1,3
 282 1484 282 1484 406 1484 c 0,4,5
 434 1484 434 1484 457 1483.5 c 128,-1,6
 480 1483 480 1483 498 1482 c 1,7,-1
 498 1367 l 1,8,9
 482 1368 482 1368 458.5 1368 c 128,-1,10
 435 1368 435 1368 421 1368 c 0,11,12
 348 1368 348 1368 315 1340.5 c 128,-1,13
 282 1313 282 1313 282 1251 c 2,14,-1
 282 866 l 1,15,-1
 150 866 l 1,0,-1
282 669 m 2,16,-1
 282 0 l 1,17,-1
 150 0 l 1,18,-1
 150 1087 l 1,19,-1
 279 1087 l 1,20,-1
 279 832 l 1,21,-1
 251 832 l 1,22,23
 297 974 297 974 394.5 1039 c 128,-1,24
 492 1104 492 1104 619 1104 c 0,25,26
 730 1104 730 1104 817 1056.5 c 128,-1,27
 904 1009 904 1009 954 918.5 c 128,-1,28
 1004 828 1004 828 1004 695 c 2,29,-1
 1004 0 l 1,30,-1
 872 0 l 1,31,-1
 872 687 l 2,32,33
 872 826 872 826 795.5 904 c 128,-1,34
 719 982 719 982 590 982 c 0,35,36
 504 982 504 982 434 945.5 c 128,-1,37
 364 909 364 909 323 839.5 c 128,-1,38
 282 770 282 770 282 669 c 2,16,-1
EndSplineSet
EndChar

StartChar: uni0267
Encoding: 615 615 676
Width: 1154
GlyphClass: 2
Flags: W
AnchorPoint: "Anchor-1" 578 1087 basechar 0
AnchorPoint: "Anchor-0" 578 0 basechar 0
LayerCount: 2
Fore
SplineSet
753 -420 m 0,0,1
 726 -420 726 -420 701.5 -419.5 c 128,-1,2
 677 -419 677 -419 659 -418 c 1,3,-1
 659 -303 l 1,4,5
 677 -304 677 -304 700 -304.5 c 128,-1,6
 723 -305 723 -305 737 -305 c 0,7,8
 809 -305 809 -305 840.5 -277 c 128,-1,9
 872 -249 872 -249 872 -186 c 2,10,-1
 872 0 l 1,11,-1
 1005 0 l 1,12,-1
 1005 -186 l 2,13,14
 1005 -303 1005 -303 941 -361.5 c 128,-1,15
 877 -420 877 -420 753 -420 c 0,0,1
282 669 m 2,16,-1
 282 0 l 1,17,-1
 150 0 l 1,18,-1
 150 1087 l 1,19,-1
 279 1087 l 1,20,-1
 279 832 l 1,21,-1
 251 832 l 1,22,23
 297 974 297 974 394.5 1039 c 128,-1,24
 492 1104 492 1104 619 1104 c 0,25,26
 730 1104 730 1104 817 1056.5 c 128,-1,27
 904 1009 904 1009 954 918.5 c 128,-1,28
 1004 828 1004 828 1004 695 c 2,29,-1
 1004 0 l 1,30,-1
 872 0 l 1,31,-1
 872 687 l 2,32,33
 872 826 872 826 795.5 904 c 128,-1,34
 719 982 719 982 590 982 c 0,35,36
 504 982 504 982 434 945.5 c 128,-1,37
 364 909 364 909 323 839.5 c 128,-1,38
 282 770 282 770 282 669 c 2,16,-1
150 866 m 1,39,-1
 150 1251 l 2,40,41
 150 1367 150 1367 216 1425.5 c 128,-1,42
 282 1484 282 1484 406 1484 c 0,43,44
 434 1484 434 1484 457 1483.5 c 128,-1,45
 480 1483 480 1483 498 1482 c 1,46,-1
 498 1367 l 1,47,48
 482 1368 482 1368 458.5 1368 c 128,-1,49
 435 1368 435 1368 421 1368 c 0,50,51
 348 1368 348 1368 315 1340.5 c 128,-1,52
 282 1313 282 1313 282 1251 c 2,53,-1
 282 866 l 1,54,-1
 150 866 l 1,39,-1
EndSplineSet
EndChar

StartChar: uni0195
Encoding: 405 405 677
Width: 1889
Flags: W
LayerCount: 2
Fore
SplineSet
1232 -19 m 0,0,1
 1129 -19 1129 -19 1048 30 c 128,-1,2
 967 79 967 79 921 181 c 128,-1,3
 875 283 875 283 875 442 c 2,4,-1
 875 687 l 2,5,6
 875 826 875 826 797.5 904 c 128,-1,7
 720 982 720 982 590 982 c 0,8,9
 503 982 503 982 433.5 945.5 c 128,-1,10
 364 909 364 909 323 839.5 c 128,-1,11
 282 770 282 770 282 669 c 2,12,-1
 282 0 l 1,13,-1
 150 0 l 1,14,-1
 150 1490 l 1,15,-1
 282 1490 l 1,16,-1
 282 909 l 1,17,-1
 290 909 l 1,18,19
 327 995 327 995 411 1049 c 128,-1,20
 495 1103 495 1103 621 1103 c 0,21,22
 732 1103 732 1103 819.5 1056.5 c 128,-1,23
 907 1010 907 1010 957.5 919 c 128,-1,24
 1008 828 1008 828 1008 695 c 2,25,-1
 1008 442 l 2,26,27
 1008 308 1008 308 1042 234 c 128,-1,28
 1076 160 1076 160 1128.5 130 c 128,-1,29
 1181 100 1181 100 1240 100 c 0,30,31
 1348 100 1348 100 1429.5 190 c 128,-1,32
 1511 280 1511 280 1558 476 c 128,-1,33
 1605 672 1605 672 1605 989 c 2,34,-1
 1605 1087 l 1,35,-1
 1739 1087 l 1,36,-1
 1739 986 l 2,37,38
 1739 635 1739 635 1675.5 413 c 128,-1,39
 1612 191 1612 191 1498.5 86 c 128,-1,40
 1385 -19 1385 -19 1232 -19 c 0,0,1
EndSplineSet
EndChar

StartChar: hturn
Encoding: 613 613 678
Width: 1155
GlyphClass: 2
Flags: W
AnchorPoint: "Anchor-3" 939 1087 basechar 0
AnchorPoint: "Anchor-1" 575 1087 basechar 0
AnchorPoint: "Anchor-0" 577 1087 basechar 0
LayerCount: 2
Fore
SplineSet
873 418 m 2,0,-1
 873 1087 l 1,1,-1
 1005 1087 l 1,2,-1
 1005 -403 l 1,3,-1
 873 -403 l 1,4,-1
 873 256 l 1,5,-1
 904 256 l 1,6,7
 858 115 858 115 760.5 49 c 128,-1,8
 663 -17 663 -17 536 -17 c 0,9,10
 425 -17 425 -17 337.5 30.5 c 128,-1,11
 250 78 250 78 200 169.5 c 128,-1,12
 150 261 150 261 150 392 c 2,13,-1
 150 1087 l 1,14,-1
 283 1087 l 1,15,-1
 283 402 l 2,16,17
 283 262 283 262 359 183.5 c 128,-1,18
 435 105 435 105 565 105 c 0,19,20
 652 105 652 105 721.5 141.5 c 128,-1,21
 791 178 791 178 832 248.5 c 128,-1,22
 873 319 873 319 873 418 c 2,0,-1
EndSplineSet
EndChar

StartChar: hturnlthook
Encoding: 686 686 679
Width: 1235
Flags: W
LayerCount: 2
Fore
SplineSet
953 -418 m 1,0,-1
 953 256 l 1,1,-1
 985 256 l 1,2,3
 938 113 938 113 840 48 c 128,-1,4
 742 -17 742 -17 617 -17 c 0,5,6
 505 -17 505 -17 417.5 30.5 c 128,-1,7
 330 78 330 78 280 169.5 c 128,-1,8
 230 261 230 261 230 392 c 2,9,-1
 230 826 l 2,10,11
 230 913 230 913 191.5 945.5 c 128,-1,12
 153 978 153 978 75 978 c 0,13,14
 64 978 64 978 54 977.5 c 128,-1,15
 44 977 44 977 33.5 976.5 c 128,-1,16
 23 976 23 976 14 975 c 1,17,-1
 14 1089 l 1,18,19
 33 1092 33 1092 54 1092.5 c 128,-1,20
 75 1093 75 1093 99 1093 c 0,21,22
 160 1093 160 1093 208.5 1077 c 128,-1,23
 257 1061 257 1061 292 1028 c 128,-1,24
 327 995 327 995 344.5 945.5 c 128,-1,25
 362 896 362 896 362 829 c 2,26,-1
 362 402 l 2,27,28
 362 262 362 262 439 183.5 c 128,-1,29
 516 105 516 105 645 105 c 0,30,31
 732 105 732 105 802 141.5 c 128,-1,32
 872 178 872 178 912 248.5 c 128,-1,33
 952 319 952 319 952 418 c 2,34,-1
 952 1087 l 1,35,-1
 1085 1087 l 1,36,-1
 1085 -418 l 1,37,-1
 953 -418 l 1,0,-1
EndSplineSet
EndChar

StartChar: hturnhook2
Encoding: 687 687 680
Width: 1235
Flags: W
LayerCount: 2
Fore
SplineSet
1206 -420 m 0,0,1
 1081 -420 1081 -420 1017 -361.5 c 128,-1,2
 953 -303 953 -303 953 -186 c 2,3,-1
 953 256 l 1,4,-1
 985 256 l 1,5,6
 938 113 938 113 840 48 c 128,-1,7
 742 -17 742 -17 617 -17 c 0,8,9
 505 -17 505 -17 417.5 30.5 c 128,-1,10
 330 78 330 78 280 169.5 c 128,-1,11
 230 261 230 261 230 392 c 2,12,-1
 230 826 l 2,13,14
 230 913 230 913 191.5 945.5 c 128,-1,15
 153 978 153 978 75 978 c 0,16,17
 64 978 64 978 54 977.5 c 128,-1,18
 44 977 44 977 33.5 976.5 c 128,-1,19
 23 976 23 976 14 975 c 1,20,-1
 14 1089 l 1,21,22
 33 1092 33 1092 54 1092.5 c 128,-1,23
 75 1093 75 1093 99 1093 c 0,24,25
 160 1093 160 1093 208.5 1077 c 128,-1,26
 257 1061 257 1061 292 1028 c 128,-1,27
 327 995 327 995 344.5 945.5 c 128,-1,28
 362 896 362 896 362 829 c 2,29,-1
 362 402 l 2,30,31
 362 262 362 262 439 183.5 c 128,-1,32
 516 105 516 105 645 105 c 0,33,34
 732 105 732 105 802 141.5 c 128,-1,35
 872 178 872 178 912 248.5 c 128,-1,36
 952 319 952 319 952 418 c 2,37,-1
 952 1087 l 1,38,-1
 1085 1087 l 1,39,-1
 1085 -186 l 2,40,41
 1085 -249 1085 -249 1116.5 -277 c 128,-1,42
 1148 -305 1148 -305 1221 -305 c 0,43,44
 1234 -305 1234 -305 1257.5 -304.5 c 128,-1,45
 1281 -304 1281 -304 1298 -303 c 1,46,-1
 1298 -418 l 1,47,48
 1286 -419 1286 -419 1271 -419.5 c 128,-1,49
 1256 -420 1256 -420 1239.5 -420 c 128,-1,50
 1223 -420 1223 -420 1206 -420 c 0,0,1
EndSplineSet
EndChar

StartChar: dotlessi
Encoding: 305 305 691
Width: 432
GlyphClass: 2
Flags: W
AnchorPoint: "Anchor-4" 282 0 basechar 0
AnchorPoint: "Anchor-1" 216 1087 basechar 0
AnchorPoint: "Anchor-0" 216 0 basechar 0
LayerCount: 2
Fore
SplineSet
150 0 m 1,0,-1
 150 1087 l 1,1,-1
 282 1087 l 1,2,-1
 282 0 l 1,3,-1
 150 0 l 1,0,-1
EndSplineSet
EndChar

StartChar: uni0237
Encoding: 567 567 713
Width: 434
GlyphClass: 2
Flags: W
AnchorPoint: "Anchor-1" 219 1087 basechar 0
AnchorPoint: "Anchor-0" 171 -452 basechar 0
LayerCount: 2
Fore
SplineSet
152 1087 m 1,0,-1
 284 1087 l 1,1,-1
 284 -130 l 2,2,3
 285 -217 285 -217 249.5 -281.5 c 128,-1,4
 214 -346 214 -346 150 -382 c 128,-1,5
 86 -418 86 -418 -3 -418 c 2,6,-1
 -46 -418 l 1,7,-1
 -46 -297 l 1,8,-1
 -9 -297 l 2,9,10
 66 -297 66 -297 109 -251.5 c 128,-1,11
 152 -206 152 -206 152 -121 c 2,12,-1
 152 1087 l 1,0,-1
EndSplineSet
EndChar

StartChar: i.sc
Encoding: 60950 60950 720
Width: 575
GlyphClass: 2
Flags: W
AnchorPoint: "Anchor-4" 513 0 basechar 0
AnchorPoint: "Anchor-1" 288 1087 basechar 0
AnchorPoint: "Anchor-0" 288 0 basechar 0
LayerCount: 2
Fore
SplineSet
62 0 m 1,0,-1
 62 114 l 1,1,-1
 222 114 l 1,2,-1
 222 974 l 1,3,-1
 62 974 l 1,4,-1
 62 1087 l 1,5,-1
 513 1087 l 1,6,-1
 513 974 l 1,7,-1
 354 974 l 1,8,-1
 354 114 l 1,9,-1
 513 114 l 1,10,-1
 513 0 l 1,11,-1
 62 0 l 1,0,-1
EndSplineSet
EndChar

StartChar: jcrosstail.ccmp
Encoding: 57423 57423 722
Width: 582
GlyphClass: 2
Flags: W
AnchorPoint: "Anchor-4" 461 0 basechar 0
AnchorPoint: "Anchor-1" 395 1087 basechar 0
AnchorPoint: "Anchor-0" 269 -460 basechar 0
LayerCount: 2
Fore
SplineSet
189 -418 m 0,0,1
 111 -418 111 -418 50.5 -384.5 c 128,-1,2
 -10 -351 -10 -351 -44.5 -294 c 128,-1,3
 -79 -237 -79 -237 -79 -167 c 0,4,5
 -79 -90 -79 -90 -40 -32.5 c 128,-1,6
 -1 25 -1 25 64 57 c 128,-1,7
 129 89 129 89 207 89 c 2,8,-1
 647 89 l 1,9,-1
 647 -35 l 1,10,-1
 207 -35 l 2,11,12
 143 -35 143 -35 101 -74 c 128,-1,13
 59 -113 59 -113 59 -169 c 0,14,15
 59 -223 59 -223 97 -261 c 128,-1,16
 135 -299 135 -299 188 -299 c 0,17,18
 260 -299 260 -299 294.5 -246 c 128,-1,19
 329 -193 329 -193 329 -133 c 2,20,-1
 329 179 l 1,21,-1
 458 179 l 1,22,-1
 458 -121 l 2,23,24
 458 -181 458 -181 440 -234.5 c 128,-1,25
 422 -288 422 -288 387.5 -329.5 c 128,-1,26
 353 -371 353 -371 303 -394.5 c 128,-1,27
 253 -418 253 -418 189 -418 c 0,0,1
329 0 m 1,28,-1
 329 1087 l 1,29,-1
 461 1087 l 1,30,-1
 461 0 l 1,31,-1
 329 0 l 1,28,-1
EndSplineSet
EndChar

StartChar: k
Encoding: 107 107 729
Width: 1029
GlyphClass: 2
Flags: W
AnchorPoint: "Anchor-1" 217 1490 basechar 0
AnchorPoint: "Anchor-0" 544 0 basechar 0
LayerCount: 2
Fore
SplineSet
271 411 m 1,0,-1
 271 579 l 1,1,-1
 292 579 l 1,2,-1
 803 1087 l 1,3,-1
 972 1087 l 1,4,-1
 470 587 l 1,5,-1
 456 585 l 1,6,-1
 271 411 l 1,0,-1
150 0 m 1,7,-1
 150 1490 l 1,8,-1
 282 1490 l 1,9,-1
 282 0 l 1,10,-1
 150 0 l 1,7,-1
839 0 m 1,11,-1
 389 561 l 1,12,-1
 484 652 l 1,13,-1
 1008 0 l 1,14,-1
 839 0 l 1,11,-1
EndSplineSet
Substitution2: "'sups' Superscript in Latin lookup 39 subtable" k.sups
Substitution2: "'subs' Subscript in Latin lookup 38 subtable" k.subs
Substitution2: "'sinf' Scientific Inferiors in Latin lookup 18 subtable" k.subs
AlternateSubs2: "'aalt' Access All Alternates in Latin lookup 1 subtable" k.sups k.subs
EndChar

StartChar: uni0199
Encoding: 409 409 730
Width: 1029
GlyphClass: 2
Flags: W
AnchorPoint: "Anchor-1" 217 1087 basechar 0
AnchorPoint: "Anchor-0" 544 0 basechar 0
LayerCount: 2
Fore
SplineSet
150 866 m 1,0,-1
 150 1251 l 2,1,2
 150 1367 150 1367 216 1425.5 c 128,-1,3
 282 1484 282 1484 406 1484 c 0,4,5
 434 1484 434 1484 457 1483.5 c 128,-1,6
 480 1483 480 1483 498 1482 c 1,7,-1
 498 1367 l 1,8,9
 482 1368 482 1368 458.5 1368 c 128,-1,10
 435 1368 435 1368 421 1368 c 0,11,12
 348 1368 348 1368 315 1340.5 c 128,-1,13
 282 1313 282 1313 282 1251 c 2,14,-1
 282 866 l 1,15,-1
 150 866 l 1,0,-1
271 411 m 1,16,-1
 271 579 l 1,17,-1
 292 579 l 1,18,-1
 803 1087 l 1,19,-1
 972 1087 l 1,20,-1
 470 587 l 1,21,-1
 456 585 l 1,22,-1
 271 411 l 1,16,-1
150 0 m 1,23,-1
 150 1087 l 1,24,-1
 282 1087 l 1,25,-1
 282 0 l 1,26,-1
 150 0 l 1,23,-1
839 0 m 1,27,-1
 389 561 l 1,28,-1
 484 652 l 1,29,-1
 1008 0 l 1,30,-1
 839 0 l 1,27,-1
EndSplineSet
EndChar

StartChar: kturn
Encoding: 670 670 736
Width: 1029
GlyphClass: 2
Flags: W
AnchorPoint: "Anchor-1" 539 1087 basechar 0
AnchorPoint: "Anchor-0" 840 -372 basechar 0
LayerCount: 2
Fore
SplineSet
759 676 m 1,0,-1
 759 508 l 1,1,-1
 737 508 l 1,2,-1
 226 0 l 1,3,-1
 57 0 l 1,4,-1
 559 501 l 1,5,-1
 573 503 l 1,6,-1
 759 676 l 1,0,-1
879 1087 m 1,7,-1
 879 -403 l 1,8,-1
 747 -403 l 1,9,-1
 747 1087 l 1,10,-1
 879 1087 l 1,7,-1
190 1087 m 1,11,-1
 640 527 l 1,12,-1
 546 435 l 1,13,-1
 21 1087 l 1,14,-1
 190 1087 l 1,11,-1
EndSplineSet
EndChar

StartChar: k.base
Encoding: 60951 60951 737
Width: 1029
GlyphClass: 2
Flags: W
AnchorPoint: "Anchor-1" 217 1087 basechar 0
AnchorPoint: "Anchor-0" 544 0 basechar 0
LayerCount: 2
Fore
SplineSet
271 411 m 1,0,-1
 271 579 l 1,1,-1
 292 579 l 1,2,-1
 803 1087 l 1,3,-1
 972 1087 l 1,4,-1
 470 587 l 1,5,-1
 456 585 l 1,6,-1
 271 411 l 1,0,-1
150 0 m 1,7,-1
 150 1087 l 1,8,-1
 282 1087 l 1,9,-1
 282 0 l 1,10,-1
 150 0 l 1,7,-1
839 0 m 1,11,-1
 389 561 l 1,12,-1
 484 652 l 1,13,-1
 1008 0 l 1,14,-1
 839 0 l 1,11,-1
EndSplineSet
EndChar

StartChar: l
Encoding: 1114124 -1 738
Width: 432
GlyphClass: 2
Flags: W
AnchorPoint: "Anchor-1" 217 1490 basechar 0
AnchorPoint: "Anchor-0" 216 0 basechar 0
LayerCount: 2
Fore
SplineSet
282 1490 m 1,0,-1
 282 0 l 1,1,-1
 150 0 l 1,2,-1
 150 1490 l 1,3,-1
 282 1490 l 1,0,-1
EndSplineSet
Substitution2: "'smcp' Lowercase to Small Capitals in Latin lookup 69 subtable" l.sc
Substitution2: "'c2sc' Capitals to Small Capitals in Latin lookup 68 subtable" l.sc
Substitution2: "'cv05' Character Variants 05 in Latin lookup 59 subtable" l.ss02
Substitution2: "'ss04' Style Set 4 in Latin lookup 50 subtable" l.ss02
Substitution2: "'ss02' Style Set 2 in Latin lookup 48 subtable" l.ss02
Substitution2: "'salt' Stylistic Alternatives in Latin lookup 46 subtable" l.ss02
Substitution2: "'sups' Superscript in Latin lookup 39 subtable" l.sups
Substitution2: "'subs' Subscript in Latin lookup 38 subtable" l.subs
Substitution2: "'sinf' Scientific Inferiors in Latin lookup 18 subtable" l.subs
AlternateSubs2: "'aalt' Access All Alternates in Latin lookup 1 subtable" l.sc l.sups l.subs
EndChar

StartChar: lrthook
Encoding: 621 621 742
Width: 432
GlyphClass: 2
Flags: W
AnchorPoint: "Anchor-1" 217 1490 basechar 0
AnchorPoint: "Anchor-0" 216 0 basechar 0
LayerCount: 2
Fore
SplineSet
403 -420 m 0,0,1
 279 -420 279 -420 214.5 -361.5 c 128,-1,2
 150 -303 150 -303 150 -186 c 2,3,-1
 150 0 l 1,4,-1
 282 0 l 1,5,-1
 282 -186 l 2,6,7
 282 -249 282 -249 313.5 -277 c 128,-1,8
 345 -305 345 -305 418 -305 c 0,9,10
 432 -305 432 -305 455.5 -304.5 c 128,-1,11
 479 -304 479 -304 496 -303 c 1,12,-1
 496 -418 l 1,13,14
 478 -419 478 -419 454 -419.5 c 128,-1,15
 430 -420 430 -420 403 -420 c 0,0,1
282 1490 m 1,16,-1
 282 0 l 1,17,-1
 150 0 l 1,18,-1
 150 1490 l 1,19,-1
 282 1490 l 1,16,-1
EndSplineSet
EndChar

StartChar: uni026C
Encoding: 1114128 -1 743
Width: 765
Flags: W
LayerCount: 2
Fore
SplineSet
752 614 m 1,0,-1
 307 614 l 2,1,2
 228 614 228 614 163.5 646 c 128,-1,3
 99 678 99 678 60 735.5 c 128,-1,4
 21 793 21 793 21 869 c 0,5,6
 21 940 21 940 55.5 997 c 128,-1,7
 90 1054 90 1054 151.5 1088 c 128,-1,8
 213 1122 213 1122 292 1122 c 0,9,10
 358 1122 358 1122 408 1101 c 128,-1,11
 458 1080 458 1080 493 1042.5 c 128,-1,12
 528 1005 528 1005 546 954 c 128,-1,13
 564 903 564 903 564 844 c 2,14,-1
 564 522 l 1,15,-1
 431 522 l 1,16,-1
 431 856 l 2,17,18
 431 917 431 917 396 960.5 c 128,-1,19
 361 1004 361 1004 290 1004 c 0,20,21
 256 1004 256 1004 226 985.5 c 128,-1,22
 196 967 196 967 177.5 936 c 128,-1,23
 159 905 159 905 159 868 c 0,24,25
 159 816 159 816 201.5 777 c 128,-1,26
 244 738 244 738 309 738 c 2,27,-1
 752 738 l 1,28,-1
 752 614 l 1,0,-1
564 1490 m 1,29,-1
 564 0 l 1,30,-1
 431 0 l 1,31,-1
 431 1490 l 1,32,-1
 564 1490 l 1,29,-1
EndSplineSet
Substitution2: "'cv05' Character Variants 05 in Latin lookup 59 subtable" uni026C.ss02
Substitution2: "'ss04' Style Set 4 in Latin lookup 50 subtable" uni026C.ss02
Substitution2: "'ss02' Style Set 2 in Latin lookup 48 subtable" uni026C.ss02
Substitution2: "'salt' Stylistic Alternatives in Latin lookup 46 subtable" uni026C.ss02
EndChar

StartChar: uni0234
Encoding: 564 564 744
Width: 752
GlyphClass: 2
Flags: W
AnchorPoint: "Anchor-1" 217 1490 basechar 0
AnchorPoint: "Anchor-0" 216 0 basechar 0
LayerCount: 2
Fore
SplineSet
444 -415 m 0,0,1
 344 -415 344 -415 279 -373 c 128,-1,2
 214 -331 214 -331 182 -263.5 c 128,-1,3
 150 -196 150 -196 150 -121 c 2,4,-1
 150 182 l 1,5,-1
 282 182 l 1,6,-1
 282 -133 l 2,7,8
 282 -212 282 -212 330 -256 c 128,-1,9
 378 -300 378 -300 444 -300 c 0,10,11
 508 -300 508 -300 548.5 -262 c 128,-1,12
 589 -224 589 -224 589 -164 c 0,13,14
 589 -107 589 -107 552 -70 c 128,-1,15
 515 -33 515 -33 456 -28 c 0,16,17
 413 -24 413 -24 375 -38 c 128,-1,18
 337 -52 337 -52 301 -84.5 c 128,-1,19
 265 -117 265 -117 227 -168 c 1,20,-1
 22 -387 l 1,21,-1
 -65 -301 l 1,22,-1
 110 -110 l 1,23,24
 193 -7 193 -7 279 41 c 128,-1,25
 365 89 365 89 451 89 c 0,26,27
 568 89 568 89 647 19.5 c 128,-1,28
 726 -50 726 -50 726 -164 c 0,29,30
 726 -277 726 -277 648 -346 c 128,-1,31
 570 -415 570 -415 444 -415 c 0,0,1
282 1490 m 1,32,-1
 282 0 l 1,33,-1
 150 0 l 1,34,-1
 150 1490 l 1,35,-1
 282 1490 l 1,32,-1
EndSplineSet
EndChar

StartChar: l.ss02
Encoding: 57424 57424 753
AltUni2: 00006c.ffffffff.0
Width: 483
GlyphClass: 2
Flags: W
AnchorPoint: "Anchor-1" 217 1490 basechar 0
AnchorPoint: "Anchor-0" 284 0 basechar 0
LayerCount: 2
Fore
SplineSet
391 -3 m 0,0,1
 269 -7 269 -7 209.5 48 c 128,-1,2
 150 103 150 103 150 221 c 2,3,-1
 150 1490 l 1,4,-1
 282 1490 l 1,5,-1
 282 242 l 2,6,7
 282 166 282 166 308.5 139 c 128,-1,8
 335 112 335 112 401 115 c 0,9,10
 415 116 415 116 424.5 116.5 c 128,-1,11
 434 117 434 117 443 118 c 1,12,-1
 457 4 l 1,13,14
 443 1 443 1 426 -1 c 128,-1,15
 409 -3 409 -3 391 -3 c 0,0,1
EndSplineSet
EndChar

StartChar: uni026C.ss02
Encoding: 57428 57428 757
AltUni2: 00026c.ffffffff.0
Width: 770
GlyphClass: 2
Flags: W
AnchorPoint: "Anchor-1" 487 1490 basechar 0
AnchorPoint: "Anchor-0" 554 0 basechar 0
LayerCount: 2
Fore
SplineSet
329 625 m 2,0,1
 227 625 227 625 156.5 657 c 128,-1,2
 86 689 86 689 50 747 c 128,-1,3
 14 805 14 805 14 881 c 0,4,5
 14 954 14 954 45 1010.5 c 128,-1,6
 76 1067 76 1067 130.5 1099 c 128,-1,7
 185 1131 185 1131 255 1131 c 0,8,9
 330 1131 330 1131 377.5 1095.5 c 128,-1,10
 425 1060 425 1060 447.5 999 c 128,-1,11
 470 938 470 938 470 860 c 2,12,-1
 470 803 l 1,13,-1
 422 803 l 1,14,-1
 422 872 l 2,15,16
 422 931 422 931 385.5 973 c 128,-1,17
 349 1015 349 1015 281 1015 c 0,18,19
 225 1015 225 1015 187.5 975.5 c 128,-1,20
 150 936 150 936 150 879 c 0,21,22
 150 824 150 824 190 781 c 128,-1,23
 230 738 230 738 295 738 c 2,24,-1
 716 738 l 1,25,-1
 716 625 l 1,26,-1
 329 625 l 2,0,1
662 -3 m 0,27,28
 540 -7 540 -7 481 48 c 128,-1,29
 422 103 422 103 422 221 c 2,30,-1
 422 1490 l 1,31,-1
 554 1490 l 1,32,-1
 554 242 l 2,33,34
 554 166 554 166 580.5 139 c 128,-1,35
 607 112 607 112 672 115 c 0,36,37
 686 116 686 116 695.5 116.5 c 128,-1,38
 705 117 705 117 715 118 c 1,39,-1
 729 4 l 1,40,41
 715 1 715 1 697.5 -1 c 128,-1,42
 680 -3 680 -3 662 -3 c 0,27,28
EndSplineSet
EndChar

StartChar: l.sc
Encoding: 60952 60952 767
Width: 933
Flags: W
LayerCount: 2
Fore
SplineSet
150 0 m 1,0,-1
 150 1087 l 1,1,-1
 282 1087 l 1,2,-1
 282 124 l 1,3,-1
 853 124 l 1,4,-1
 853 0 l 1,5,-1
 150 0 l 1,0,-1
EndSplineSet
EndChar

StartChar: m
Encoding: 109 109 768
Width: 1741
GlyphClass: 2
Flags: W
AnchorPoint: "Anchor-1" 870 1087 basechar 0
AnchorPoint: "Anchor-0" 871 0 basechar 0
LayerCount: 2
Fore
SplineSet
150 0 m 1,0,-1
 150 1087 l 1,1,-1
 280 1087 l 1,2,-1
 279 848 l 1,3,-1
 263 848 l 1,4,5
 288 935 288 935 339.5 992 c 128,-1,6
 391 1049 391 1049 458.5 1077.5 c 128,-1,7
 526 1106 526 1106 599 1106 c 0,8,9
 722 1106 722 1106 805 1032.5 c 128,-1,10
 888 959 888 959 911 842 c 1,11,-1
 884 842 l 1,12,13
 906 922 906 922 957 981 c 128,-1,14
 1008 1040 1008 1040 1081.5 1073 c 128,-1,15
 1155 1106 1155 1106 1243 1106 c 0,16,17
 1342 1106 1342 1106 1421 1062.5 c 128,-1,18
 1500 1019 1500 1019 1545.5 933.5 c 128,-1,19
 1591 848 1591 848 1591 722 c 2,20,-1
 1591 0 l 1,21,-1
 1459 0 l 1,22,-1
 1459 721 l 2,23,24
 1459 855 1459 855 1386.5 919.5 c 128,-1,25
 1314 984 1314 984 1209 984 c 0,26,27
 1129 984 1129 984 1067 949.5 c 128,-1,28
 1005 915 1005 915 971 853 c 128,-1,29
 937 791 937 791 937 707 c 2,30,-1
 937 0 l 1,31,-1
 805 0 l 1,32,-1
 805 733 l 2,33,34
 805 849 805 849 736.5 916.5 c 128,-1,35
 668 984 668 984 561 984 c 0,36,37
 486 984 486 984 422.5 949 c 128,-1,38
 359 914 359 914 320.5 848 c 128,-1,39
 282 782 282 782 282 689 c 2,40,-1
 282 0 l 1,41,-1
 150 0 l 1,0,-1
EndSplineSet
Substitution2: "'smcp' Lowercase to Small Capitals in Latin lookup 69 subtable" m.sc
Substitution2: "'c2sc' Capitals to Small Capitals in Latin lookup 68 subtable" m.sc
Substitution2: "'sups' Superscript in Latin lookup 39 subtable" m.sups
Substitution2: "'subs' Subscript in Latin lookup 38 subtable" m.subs
Substitution2: "'sinf' Scientific Inferiors in Latin lookup 18 subtable" m.subs
AlternateSubs2: "'aalt' Access All Alternates in Latin lookup 1 subtable" m.sups m.subs m.sc
EndChar

StartChar: uni0271
Encoding: 625 625 769
Width: 1741
GlyphClass: 2
Flags: W
AnchorPoint: "Anchor-1" 870 1087 basechar 0
AnchorPoint: "Anchor-0" 871 0 basechar 0
LayerCount: 2
Fore
SplineSet
1339 -420 m 0,0,1
 1313 -420 1313 -420 1288.5 -419.5 c 128,-1,2
 1264 -419 1264 -419 1246 -418 c 1,3,-1
 1246 -303 l 1,4,5
 1262 -304 1262 -304 1286 -304.5 c 128,-1,6
 1310 -305 1310 -305 1323 -305 c 0,7,8
 1396 -305 1396 -305 1427.5 -277 c 128,-1,9
 1459 -249 1459 -249 1459 -186 c 2,10,-1
 1459 0 l 1,11,-1
 1591 0 l 1,12,-1
 1591 -186 l 2,13,14
 1591 -303 1591 -303 1527.5 -361.5 c 128,-1,15
 1464 -420 1464 -420 1339 -420 c 0,0,1
150 0 m 1,16,-1
 150 1087 l 1,17,-1
 280 1087 l 1,18,-1
 279 848 l 1,19,-1
 263 848 l 1,20,21
 288 935 288 935 339.5 992 c 128,-1,22
 391 1049 391 1049 458.5 1077.5 c 128,-1,23
 526 1106 526 1106 599 1106 c 0,24,25
 722 1106 722 1106 805 1032.5 c 128,-1,26
 888 959 888 959 911 842 c 1,27,-1
 884 842 l 1,28,29
 906 922 906 922 957 981 c 128,-1,30
 1008 1040 1008 1040 1081.5 1073 c 128,-1,31
 1155 1106 1155 1106 1244 1106 c 0,32,33
 1343 1106 1343 1106 1421.5 1062.5 c 128,-1,34
 1500 1019 1500 1019 1545.5 933.5 c 128,-1,35
 1591 848 1591 848 1591 722 c 2,36,-1
 1591 0 l 1,37,-1
 1459 0 l 1,38,-1
 1459 721 l 2,39,40
 1459 856 1459 856 1386.5 920 c 128,-1,41
 1314 984 1314 984 1210 984 c 0,42,43
 1129 984 1129 984 1067 950 c 128,-1,44
 1005 916 1005 916 971 853.5 c 128,-1,45
 937 791 937 791 937 707 c 2,46,-1
 937 0 l 1,47,-1
 805 0 l 1,48,-1
 805 733 l 2,49,50
 805 849 805 849 736.5 916.5 c 128,-1,51
 668 984 668 984 562 984 c 0,52,53
 486 984 486 984 422.5 949 c 128,-1,54
 359 914 359 914 320.5 848 c 128,-1,55
 282 782 282 782 282 689 c 2,56,-1
 282 0 l 1,57,-1
 150 0 l 1,16,-1
EndSplineSet
EndChar

StartChar: mturn
Encoding: 623 623 770
Width: 1741
GlyphClass: 2
Flags: W
AnchorPoint: "Anchor-1" 868 1087 basechar 0
AnchorPoint: "Anchor-0" 868 0 basechar 0
LayerCount: 2
Fore
SplineSet
1591 1087 m 1,0,-1
 1591 0 l 1,1,-1
 1462 0 l 1,2,-1
 1461 239 l 1,3,-1
 1479 239 l 1,4,5
 1454 154 1454 154 1402.5 96.5 c 128,-1,6
 1351 39 1351 39 1283 10 c 128,-1,7
 1215 -19 1215 -19 1142 -19 c 0,8,9
 1020 -19 1020 -19 936.5 55 c 128,-1,10
 853 129 853 129 831 245 c 1,11,-1
 856 245 l 1,12,13
 836 167 836 167 785 107 c 128,-1,14
 734 47 734 47 660.5 14 c 128,-1,15
 587 -19 587 -19 498 -19 c 0,16,17
 399 -19 399 -19 320 24.5 c 128,-1,18
 241 68 241 68 195.5 154 c 128,-1,19
 150 240 150 240 150 365 c 2,20,-1
 150 1087 l 1,21,-1
 283 1087 l 1,22,-1
 283 368 l 2,23,24
 283 232 283 232 354.5 167.5 c 128,-1,25
 426 103 426 103 532 103 c 0,26,27
 614 103 614 103 674.5 138 c 128,-1,28
 735 173 735 173 770 235 c 128,-1,29
 805 297 805 297 805 380 c 2,30,-1
 805 1087 l 1,31,-1
 937 1087 l 1,32,-1
 937 356 l 2,33,34
 937 239 937 239 1005 171 c 128,-1,35
 1073 103 1073 103 1179 103 c 0,36,37
 1255 103 1255 103 1318.5 138.5 c 128,-1,38
 1382 174 1382 174 1420.5 239.5 c 128,-1,39
 1459 305 1459 305 1459 398 c 2,40,-1
 1459 1087 l 1,41,-1
 1591 1087 l 1,0,-1
EndSplineSet
EndChar

StartChar: mturndescend
Encoding: 624 624 771
Width: 1741
GlyphClass: 2
Flags: W
AnchorPoint: "Anchor-1" 868 1087 basechar 0
AnchorPoint: "Anchor-0" 868 0 basechar 0
LayerCount: 2
Fore
SplineSet
1458 -418 m 1,0,-1
 1458 0 l 1,1,-1
 1587 0 l 1,2,-1
 1587 -418 l 1,3,-1
 1458 -418 l 1,0,-1
1591 1087 m 1,4,-1
 1591 0 l 1,5,-1
 1462 0 l 1,6,-1
 1461 239 l 1,7,-1
 1479 239 l 1,8,9
 1454 154 1454 154 1402.5 96.5 c 128,-1,10
 1351 39 1351 39 1283 10 c 128,-1,11
 1215 -19 1215 -19 1142 -19 c 0,12,13
 1020 -19 1020 -19 936.5 55 c 128,-1,14
 853 129 853 129 831 245 c 1,15,-1
 856 245 l 1,16,17
 836 167 836 167 785 107 c 128,-1,18
 734 47 734 47 660.5 14 c 128,-1,19
 587 -19 587 -19 498 -19 c 0,20,21
 399 -19 399 -19 320 24.5 c 128,-1,22
 241 68 241 68 195.5 154 c 128,-1,23
 150 240 150 240 150 365 c 2,24,-1
 150 1087 l 1,25,-1
 283 1087 l 1,26,-1
 283 368 l 2,27,28
 283 232 283 232 354.5 167.5 c 128,-1,29
 426 103 426 103 532 103 c 0,30,31
 614 103 614 103 674.5 138 c 128,-1,32
 735 173 735 173 770 235 c 128,-1,33
 805 297 805 297 805 380 c 2,34,-1
 805 1087 l 1,35,-1
 937 1087 l 1,36,-1
 937 356 l 2,37,38
 937 239 937 239 1005 171 c 128,-1,39
 1073 103 1073 103 1179 103 c 0,40,41
 1255 103 1255 103 1318.5 138.5 c 128,-1,42
 1382 174 1382 174 1420.5 239.5 c 128,-1,43
 1459 305 1459 305 1459 398 c 2,44,-1
 1459 1087 l 1,45,-1
 1591 1087 l 1,4,-1
EndSplineSet
EndChar

StartChar: n
Encoding: 110 110 775
Width: 1154
GlyphClass: 2
Flags: W
AnchorPoint: "Anchor-1" 578 1087 basechar 0
AnchorPoint: "Anchor-0" 578 0 basechar 0
LayerCount: 2
Fore
SplineSet
282 669 m 2,0,-1
 282 0 l 1,1,-1
 150 0 l 1,2,-1
 150 1087 l 1,3,-1
 279 1087 l 1,4,-1
 279 832 l 1,5,-1
 251 832 l 1,6,7
 297 974 297 974 394.5 1039 c 128,-1,8
 492 1104 492 1104 619 1104 c 0,9,10
 730 1104 730 1104 817 1056.5 c 128,-1,11
 904 1009 904 1009 954 918.5 c 128,-1,12
 1004 828 1004 828 1004 695 c 2,13,-1
 1004 0 l 1,14,-1
 872 0 l 1,15,-1
 872 687 l 2,16,17
 872 826 872 826 795.5 904 c 128,-1,18
 719 982 719 982 590 982 c 0,19,20
 504 982 504 982 434 945.5 c 128,-1,21
 364 909 364 909 323 839.5 c 128,-1,22
 282 770 282 770 282 669 c 2,0,-1
EndSplineSet
Substitution2: "'smcp' Lowercase to Small Capitals in Latin lookup 69 subtable" n.sc
Substitution2: "'c2sc' Capitals to Small Capitals in Latin lookup 68 subtable" n.sc
Substitution2: "'sups' Superscript in Latin lookup 39 subtable" n.sups
Substitution2: "'subs' Subscript in Latin lookup 38 subtable" n.subs
Substitution2: "'numr' Numerators in Latin lookup 19 subtable" n.numr
Substitution2: "'sinf' Scientific Inferiors in Latin lookup 18 subtable" n.subs
AlternateSubs2: "'aalt' Access All Alternates in Latin lookup 1 subtable" n.sc n.numr n.sups n.subs
EndChar

StartChar: nrthook
Encoding: 627 627 777
Width: 1154
GlyphClass: 2
Flags: W
AnchorPoint: "Anchor-1" 578 1087 basechar 0
AnchorPoint: "Anchor-0" 578 0 basechar 0
LayerCount: 2
Fore
SplineSet
1126 -420 m 0,0,1
 1001 -420 1001 -420 937 -361.5 c 128,-1,2
 873 -303 873 -303 873 -186 c 2,3,-1
 873 0 l 1,4,-1
 1005 0 l 1,5,-1
 1005 -186 l 2,6,7
 1005 -249 1005 -249 1036 -277 c 128,-1,8
 1067 -305 1067 -305 1141 -305 c 0,9,10
 1155 -305 1155 -305 1177.5 -304.5 c 128,-1,11
 1200 -304 1200 -304 1217 -303 c 1,12,-1
 1217 -418 l 1,13,14
 1200 -419 1200 -419 1176 -419.5 c 128,-1,15
 1152 -420 1152 -420 1126 -420 c 0,0,1
282 669 m 2,16,-1
 282 0 l 1,17,-1
 150 0 l 1,18,-1
 150 1087 l 1,19,-1
 279 1087 l 1,20,-1
 279 832 l 1,21,-1
 251 832 l 1,22,23
 297 974 297 974 394.5 1039 c 128,-1,24
 492 1104 492 1104 619 1104 c 0,25,26
 730 1104 730 1104 817 1056.5 c 128,-1,27
 904 1009 904 1009 954 918.5 c 128,-1,28
 1004 828 1004 828 1004 695 c 2,29,-1
 1004 0 l 1,30,-1
 872 0 l 1,31,-1
 872 687 l 2,32,33
 872 826 872 826 795.5 904 c 128,-1,34
 719 982 719 982 590 982 c 0,35,36
 504 982 504 982 434 945.5 c 128,-1,37
 364 909 364 909 323 839.5 c 128,-1,38
 282 770 282 770 282 669 c 2,16,-1
EndSplineSet
EndChar

StartChar: eng
Encoding: 331 331 778
Width: 1154
GlyphClass: 2
Flags: W
AnchorPoint: "Anchor-1" 578 1087 basechar 0
AnchorPoint: "Anchor-0" 578 0 basechar 0
LayerCount: 2
Fore
SplineSet
656 -418 m 1,0,-1
 656 -297 l 1,1,2
 674 -299 674 -299 700.5 -299 c 128,-1,3
 727 -299 727 -299 739 -299 c 0,4,5
 813 -299 813 -299 842.5 -271.5 c 128,-1,6
 872 -244 872 -244 872 -181 c 2,7,-1
 872 0 l 1,8,-1
 1005 0 l 1,9,-1
 1005 -186 l 2,10,11
 1005 -303 1005 -303 940.5 -361.5 c 128,-1,12
 876 -420 876 -420 751 -420 c 0,13,14
 725 -420 725 -420 699.5 -419.5 c 128,-1,15
 674 -419 674 -419 656 -418 c 1,0,-1
282 669 m 2,16,-1
 282 0 l 1,17,-1
 150 0 l 1,18,-1
 150 1087 l 1,19,-1
 279 1087 l 1,20,-1
 279 832 l 1,21,-1
 251 832 l 1,22,23
 297 974 297 974 394.5 1039 c 128,-1,24
 492 1104 492 1104 619 1104 c 0,25,26
 730 1104 730 1104 817 1056.5 c 128,-1,27
 904 1009 904 1009 954 918.5 c 128,-1,28
 1004 828 1004 828 1004 695 c 2,29,-1
 1004 0 l 1,30,-1
 872 0 l 1,31,-1
 872 687 l 2,32,33
 872 826 872 826 795.5 904 c 128,-1,34
 719 982 719 982 590 982 c 0,35,36
 504 982 504 982 434 945.5 c 128,-1,37
 364 909 364 909 323 839.5 c 128,-1,38
 282 770 282 770 282 669 c 2,16,-1
EndSplineSet
EndChar

StartChar: uni0235
Encoding: 565 565 779
Width: 1474
GlyphClass: 2
Flags: W
AnchorPoint: "Anchor-1" 578 1087 basechar 0
AnchorPoint: "Anchor-0" 578 0 basechar 0
LayerCount: 2
Fore
SplineSet
1167 -415 m 0,0,1
 1067 -415 1067 -415 1002 -373 c 128,-1,2
 937 -331 937 -331 905 -263.5 c 128,-1,3
 873 -196 873 -196 873 -121 c 2,4,-1
 873 182 l 1,5,-1
 1005 182 l 1,6,-1
 1005 -133 l 2,7,8
 1005 -212 1005 -212 1052 -256 c 128,-1,9
 1099 -300 1099 -300 1167 -300 c 0,10,11
 1230 -300 1230 -300 1271 -262 c 128,-1,12
 1312 -224 1312 -224 1312 -164 c 0,13,14
 1312 -107 1312 -107 1274.5 -70 c 128,-1,15
 1237 -33 1237 -33 1177 -28 c 0,16,17
 1136 -24 1136 -24 1098 -38 c 128,-1,18
 1060 -52 1060 -52 1024 -84.5 c 128,-1,19
 988 -117 988 -117 950 -168 c 1,20,-1
 744 -387 l 1,21,-1
 657 -301 l 1,22,-1
 833 -110 l 1,23,24
 915 -7 915 -7 1001.5 41 c 128,-1,25
 1088 89 1088 89 1174 89 c 0,26,27
 1291 89 1291 89 1369.5 19.5 c 128,-1,28
 1448 -50 1448 -50 1448 -164 c 0,29,30
 1448 -277 1448 -277 1370.5 -346 c 128,-1,31
 1293 -415 1293 -415 1167 -415 c 0,0,1
282 669 m 2,32,-1
 282 0 l 1,33,-1
 150 0 l 1,34,-1
 150 1087 l 1,35,-1
 279 1087 l 1,36,-1
 279 832 l 1,37,-1
 251 832 l 1,38,39
 297 974 297 974 394.5 1039 c 128,-1,40
 492 1104 492 1104 619 1104 c 0,41,42
 730 1104 730 1104 817 1056.5 c 128,-1,43
 904 1009 904 1009 954 918.5 c 128,-1,44
 1004 828 1004 828 1004 695 c 2,45,-1
 1004 0 l 1,46,-1
 872 0 l 1,47,-1
 872 687 l 2,48,49
 872 826 872 826 795.5 904 c 128,-1,50
 719 982 719 982 590 982 c 0,51,52
 504 982 504 982 434 945.5 c 128,-1,53
 364 909 364 909 323 839.5 c 128,-1,54
 282 770 282 770 282 669 c 2,32,-1
EndSplineSet
EndChar

StartChar: nlfthook
Encoding: 626 626 780
Width: 1154
GlyphClass: 2
Flags: W
AnchorPoint: "Anchor-1" 578 1087 basechar 0
AnchorPoint: "Anchor-0" 578 0 basechar 0
LayerCount: 2
Fore
SplineSet
31 -420 m 0,0,1
 4 -420 4 -420 -20.5 -419.5 c 128,-1,2
 -45 -419 -45 -419 -63 -418 c 1,3,-1
 -63 -303 l 1,4,5
 -45 -304 -45 -304 -22 -304.5 c 128,-1,6
 1 -305 1 -305 15 -305 c 0,7,8
 87 -305 87 -305 118.5 -277 c 128,-1,9
 150 -249 150 -249 150 -186 c 2,10,-1
 150 0 l 1,11,-1
 283 0 l 1,12,-1
 283 -186 l 2,13,14
 283 -303 283 -303 219 -361.5 c 128,-1,15
 155 -420 155 -420 31 -420 c 0,0,1
282 669 m 2,16,-1
 282 0 l 1,17,-1
 150 0 l 1,18,-1
 150 1087 l 1,19,-1
 279 1087 l 1,20,-1
 279 832 l 1,21,-1
 251 832 l 1,22,23
 297 974 297 974 394.5 1039 c 128,-1,24
 492 1104 492 1104 619 1104 c 0,25,26
 730 1104 730 1104 817 1056.5 c 128,-1,27
 904 1009 904 1009 954 918.5 c 128,-1,28
 1004 828 1004 828 1004 695 c 2,29,-1
 1004 0 l 1,30,-1
 872 0 l 1,31,-1
 872 687 l 2,32,33
 872 826 872 826 795.5 904 c 128,-1,34
 719 982 719 982 590 982 c 0,35,36
 504 982 504 982 434 945.5 c 128,-1,37
 364 909 364 909 323 839.5 c 128,-1,38
 282 770 282 770 282 669 c 2,16,-1
EndSplineSet
EndChar

StartChar: n.sc
Encoding: 60953 60953 791
Width: 1239
GlyphClass: 2
Flags: W
AnchorPoint: "Anchor-1" 620 1087 basechar 0
AnchorPoint: "Anchor-0" 620 0 basechar 0
LayerCount: 2
Fore
SplineSet
150 0 m 1,0,-1
 150 1087 l 1,1,-1
 322 1087 l 1,2,-1
 791 411 l 2,3,4
 849 325 849 325 897.5 247.5 c 128,-1,5
 946 170 946 170 992 92 c 1,6,-1
 961 92 l 1,7,8
 960 144 960 144 959.5 196 c 128,-1,9
 959 248 959 248 958.5 301.5 c 128,-1,10
 958 355 958 355 958 411 c 2,11,-1
 958 1087 l 1,12,-1
 1089 1087 l 1,13,-1
 1089 0 l 1,14,-1
 920 0 l 1,15,-1
 451 678 l 2,16,17
 392 764 392 764 343 842 c 128,-1,18
 294 920 294 920 247 998 c 1,19,-1
 279 998 l 1,20,21
 281 920 281 920 281.5 841 c 128,-1,22
 282 762 282 762 282 678 c 2,23,-1
 282 0 l 1,24,-1
 150 0 l 1,0,-1
EndSplineSet
EndChar

StartChar: o
Encoding: 111 111 792
Width: 1158
GlyphClass: 2
Flags: W
AnchorPoint: "Anchor-4" 1067 540 basechar 0
AnchorPoint: "Anchor-1" 580 1087 basechar 0
AnchorPoint: "Anchor-0" 580 0 basechar 0
LayerCount: 2
Fore
SplineSet
580 -23 m 256,0,1
 436 -23 436 -23 326 49.5 c 128,-1,2
 216 122 216 122 153.5 249 c 128,-1,3
 91 376 91 376 91 540 c 0,4,5
 91 707 91 707 153.5 834 c 128,-1,6
 216 961 216 961 326 1033 c 128,-1,7
 436 1105 436 1105 580 1105 c 256,8,9
 724 1105 724 1105 834 1033 c 128,-1,10
 944 961 944 961 1005.5 834 c 128,-1,11
 1067 707 1067 707 1067 540 c 0,12,13
 1067 376 1067 376 1005.5 249 c 128,-1,14
 944 122 944 122 834 49.5 c 128,-1,15
 724 -23 724 -23 580 -23 c 256,0,1
580 98 m 0,16,17
 690 98 690 98 769.5 156 c 128,-1,18
 849 214 849 214 891 314.5 c 128,-1,19
 933 415 933 415 933 540 c 0,20,21
 933 667 933 667 891 767.5 c 128,-1,22
 849 868 849 868 769.5 926.5 c 128,-1,23
 690 985 690 985 580 985 c 0,24,25
 469 985 469 985 390 927 c 128,-1,26
 311 869 311 869 268.5 768.5 c 128,-1,27
 226 668 226 668 226 540 c 0,28,29
 226 414 226 414 268 314 c 128,-1,30
 310 214 310 214 389.5 156 c 128,-1,31
 469 98 469 98 580 98 c 0,16,17
EndSplineSet
Substitution2: "Single Substitution lookup 44 subtable" ordmasculine
Substitution2: "'sups' Superscript in Latin lookup 39 subtable" o.sups
Substitution2: "'subs' Subscript in Latin lookup 38 subtable" o.subs
Substitution2: "'sinf' Scientific Inferiors in Latin lookup 18 subtable" o.subs
AlternateSubs2: "'aalt' Access All Alternates in Latin lookup 1 subtable" ordmasculine o.sups o.subs
EndChar

StartChar: ohorn
Encoding: 417 417 796
Width: 1156
GlyphClass: 2
Flags: W
AnchorPoint: "Anchor-4" 1067 540 basechar 0
AnchorPoint: "Anchor-1" 580 1087 basechar 0
AnchorPoint: "Anchor-0" 580 0 basechar 0
LayerCount: 2
Fore
SplineSet
579 1012 m 1,0,-1
 579 1105 l 1,1,2
 623 1105 623 1105 659.5 1102.5 c 128,-1,3
 696 1100 696 1100 732 1097.5 c 128,-1,4
 768 1095 768 1095 811 1092.5 c 128,-1,5
 854 1090 854 1090 911 1090 c 0,6,7
 959 1090 959 1090 959 1137 c 2,8,-1
 959 1324 l 1,9,-1
 1084 1324 l 1,10,-1
 1084 1146 l 2,11,12
 1084 1076 1084 1076 1045.5 1040.5 c 128,-1,13
 1007 1005 1007 1005 929 1005 c 0,14,15
 843 1006 843 1006 754 1008.5 c 128,-1,16
 665 1011 665 1011 579 1012 c 1,0,-1
580 -23 m 256,17,18
 436 -23 436 -23 326 49.5 c 128,-1,19
 216 122 216 122 153.5 249 c 128,-1,20
 91 376 91 376 91 540 c 0,21,22
 91 707 91 707 153.5 834 c 128,-1,23
 216 961 216 961 326 1033 c 128,-1,24
 436 1105 436 1105 580 1105 c 256,25,26
 724 1105 724 1105 834 1033 c 128,-1,27
 944 961 944 961 1005.5 834 c 128,-1,28
 1067 707 1067 707 1067 540 c 0,29,30
 1067 376 1067 376 1005.5 249 c 128,-1,31
 944 122 944 122 834 49.5 c 128,-1,32
 724 -23 724 -23 580 -23 c 256,17,18
580 98 m 0,33,34
 690 98 690 98 769.5 156 c 128,-1,35
 849 214 849 214 891 314.5 c 128,-1,36
 933 415 933 415 933 540 c 0,37,38
 933 667 933 667 891 767.5 c 128,-1,39
 849 868 849 868 769.5 926.5 c 128,-1,40
 690 985 690 985 580 985 c 0,41,42
 469 985 469 985 390 927 c 128,-1,43
 311 869 311 869 268.5 768.5 c 128,-1,44
 226 668 226 668 226 540 c 0,45,46
 226 414 226 414 268 314 c 128,-1,47
 310 214 310 214 389.5 156 c 128,-1,48
 469 98 469 98 580 98 c 0,33,34
EndSplineSet
EndChar

StartChar: uni1EE1
Encoding: 7905 7905 826
Width: 1156
GlyphClass: 2
Flags: W
AnchorPoint: "Anchor-4" 1067 540 basechar 0
AnchorPoint: "Anchor-1" 580 1497 basechar 0
AnchorPoint: "Anchor-0" 580 0 basechar 0
LayerCount: 2
Fore
SplineSet
580 -23 m 256,0,1
 436 -23 436 -23 326 49.5 c 128,-1,2
 216 122 216 122 153.5 249 c 128,-1,3
 91 376 91 376 91 540 c 0,4,5
 91 707 91 707 153.5 834 c 128,-1,6
 216 961 216 961 326 1033 c 128,-1,7
 436 1105 436 1105 580 1105 c 256,8,9
 724 1105 724 1105 834 1033 c 128,-1,10
 944 961 944 961 1005.5 834 c 128,-1,11
 1067 707 1067 707 1067 540 c 0,12,13
 1067 376 1067 376 1005.5 249 c 128,-1,14
 944 122 944 122 834 49.5 c 128,-1,15
 724 -23 724 -23 580 -23 c 256,0,1
580 98 m 0,16,17
 690 98 690 98 769.5 156 c 128,-1,18
 849 214 849 214 891 314.5 c 128,-1,19
 933 415 933 415 933 540 c 0,20,21
 933 667 933 667 891 767.5 c 128,-1,22
 849 868 849 868 769.5 926.5 c 128,-1,23
 690 985 690 985 580 985 c 0,24,25
 469 985 469 985 390 927 c 128,-1,26
 311 869 311 869 268.5 768.5 c 128,-1,27
 226 668 226 668 226 540 c 0,28,29
 226 414 226 414 268 314 c 128,-1,30
 310 214 310 214 389.5 156 c 128,-1,31
 469 98 469 98 580 98 c 0,16,17
579 1012 m 1,32,-1
 579 1105 l 1,33,34
 623 1105 623 1105 659.5 1102.5 c 128,-1,35
 696 1100 696 1100 732 1097.5 c 128,-1,36
 768 1095 768 1095 811 1092.5 c 128,-1,37
 854 1090 854 1090 911 1090 c 0,38,39
 959 1090 959 1090 959 1137 c 2,40,-1
 959 1324 l 1,41,-1
 1084 1324 l 1,42,-1
 1084 1146 l 2,43,44
 1084 1076 1084 1076 1045.5 1040.5 c 128,-1,45
 1007 1005 1007 1005 929 1005 c 0,46,47
 843 1006 843 1006 754 1008.5 c 128,-1,48
 665 1011 665 1011 579 1012 c 1,32,-1
710 1296 m 0,49,50
 671 1296 671 1296 637.5 1310.5 c 128,-1,51
 604 1325 604 1325 574 1344 c 128,-1,52
 544 1363 544 1363 517 1376.5 c 128,-1,53
 490 1390 490 1390 467 1390 c 0,54,55
 433 1390 433 1390 414.5 1363.5 c 128,-1,56
 396 1337 396 1337 393 1302 c 1,57,-1
 295 1302 l 1,58,59
 299 1384 299 1384 338.5 1437.5 c 128,-1,60
 378 1491 378 1491 453 1491 c 0,61,62
 494 1491 494 1491 526.5 1476.5 c 128,-1,63
 559 1462 559 1462 587 1443.5 c 128,-1,64
 615 1425 615 1425 641 1410 c 128,-1,65
 667 1395 667 1395 694 1395 c 0,66,67
 725 1395 725 1395 743 1416 c 128,-1,68
 761 1437 761 1437 769 1485 c 1,69,-1
 865 1485 l 1,70,71
 859 1399 859 1399 818.5 1347.5 c 128,-1,72
 778 1296 778 1296 710 1296 c 0,49,50
EndSplineSet
Ligature2: "'ccmp' Glyph Composition/Decomposition in Latin lookup 6 subtable" ohorn tildecomb
EndChar

StartChar: obar
Encoding: 629 629 839
Width: 1158
GlyphClass: 2
Flags: W
AnchorPoint: "Anchor-4" 1067 540 basechar 0
AnchorPoint: "Anchor-1" 580 1087 basechar 0
AnchorPoint: "Anchor-0" 580 0 basechar 0
LayerCount: 2
Fore
SplineSet
985 600 m 1,0,-1
 985 487 l 1,1,-1
 175 487 l 1,2,-1
 175 600 l 1,3,-1
 985 600 l 1,0,-1
580 -23 m 256,4,5
 436 -23 436 -23 326 49.5 c 128,-1,6
 216 122 216 122 153.5 249 c 128,-1,7
 91 376 91 376 91 540 c 0,8,9
 91 707 91 707 153.5 834 c 128,-1,10
 216 961 216 961 326 1033 c 128,-1,11
 436 1105 436 1105 580 1105 c 256,12,13
 724 1105 724 1105 834 1033 c 128,-1,14
 944 961 944 961 1005.5 834 c 128,-1,15
 1067 707 1067 707 1067 540 c 0,16,17
 1067 376 1067 376 1005.5 249 c 128,-1,18
 944 122 944 122 834 49.5 c 128,-1,19
 724 -23 724 -23 580 -23 c 256,4,5
580 98 m 0,20,21
 690 98 690 98 769.5 156 c 128,-1,22
 849 214 849 214 891 314.5 c 128,-1,23
 933 415 933 415 933 540 c 0,24,25
 933 667 933 667 891 767.5 c 128,-1,26
 849 868 849 868 769.5 926.5 c 128,-1,27
 690 985 690 985 580 985 c 0,28,29
 469 985 469 985 390 927 c 128,-1,30
 311 869 311 869 268.5 768.5 c 128,-1,31
 226 668 226 668 226 540 c 0,32,33
 226 414 226 414 268 314 c 128,-1,34
 310 214 310 214 389.5 156 c 128,-1,35
 469 98 469 98 580 98 c 0,20,21
EndSplineSet
EndChar

StartChar: oe.sc
Encoding: 60954 60954 843
Width: 1616
Flags: W
LayerCount: 2
Fore
SplineSet
585 0 m 2,0,1
 435 0 435 0 324 68 c 128,-1,2
 213 136 213 136 152 257.5 c 128,-1,3
 91 379 91 379 91 538 c 2,4,-1
 91 550 l 2,5,6
 91 705 91 705 151.5 826 c 128,-1,7
 212 947 212 947 322 1017 c 128,-1,8
 432 1087 432 1087 582 1087 c 2,9,-1
 893 1087 l 1,10,-1
 893 967 l 1,11,-1
 580 967 l 2,12,13
 469 967 469 967 389 912.5 c 128,-1,14
 309 858 309 858 267 764 c 128,-1,15
 225 670 225 670 225 550 c 2,16,-1
 225 538 l 2,17,18
 225 414 225 414 268 320 c 128,-1,19
 311 226 311 226 390.5 173 c 128,-1,20
 470 120 470 120 582 120 c 2,21,-1
 891 120 l 1,22,-1
 891 0 l 1,23,-1
 585 0 l 2,0,1
912 0 m 1,24,-1
 912 120 l 1,25,-1
 1554 120 l 1,26,-1
 1554 0 l 1,27,-1
 912 0 l 1,24,-1
816 0 m 1,28,-1
 816 1087 l 1,29,-1
 948 1087 l 1,30,-1
 948 0 l 1,31,-1
 816 0 l 1,28,-1
912 494 m 1,32,-1
 912 611 l 1,33,-1
 1468 611 l 1,34,-1
 1468 494 l 1,35,-1
 912 494 l 1,32,-1
912 967 m 1,36,-1
 912 1087 l 1,37,-1
 1554 1087 l 1,38,-1
 1554 967 l 1,39,-1
 912 967 l 1,36,-1
EndSplineSet
EndChar

StartChar: p
Encoding: 112 112 845
Width: 1189
GlyphClass: 2
Flags: W
AnchorPoint: "Anchor-1" 639 1087 basechar 0
AnchorPoint: "Anchor-0" 216 -417 basechar 0
LayerCount: 2
Fore
SplineSet
150 -418 m 1,0,-1
 150 1087 l 1,1,-1
 279 1087 l 1,2,-1
 279 881 l 1,3,-1
 287 881 l 1,4,5
 314 939 314 939 361.5 990.5 c 128,-1,6
 409 1042 409 1042 478.5 1073 c 128,-1,7
 548 1104 548 1104 638 1104 c 0,8,9
 774 1104 774 1104 877.5 1033.5 c 128,-1,10
 981 963 981 963 1039 836.5 c 128,-1,11
 1097 710 1097 710 1097 542 c 256,12,13
 1097 374 1097 374 1039.5 247.5 c 128,-1,14
 982 121 982 121 878.5 50 c 128,-1,15
 775 -21 775 -21 639 -21 c 0,16,17
 549 -21 549 -21 480.5 10 c 128,-1,18
 412 41 412 41 364.5 93 c 128,-1,19
 317 145 317 145 289 205 c 1,20,-1
 282 205 l 1,21,-1
 282 -418 l 1,22,-1
 150 -418 l 1,0,-1
620 99 m 256,23,24
 726 99 726 99 802.5 155 c 128,-1,25
 879 211 879 211 921.5 310.5 c 128,-1,26
 964 410 964 410 964 543 c 0,27,28
 964 675 964 675 922 774.5 c 128,-1,29
 880 874 880 874 803 929.5 c 128,-1,30
 726 985 726 985 620 985 c 256,31,32
 514 985 514 985 437 929.5 c 128,-1,33
 360 874 360 874 318.5 774.5 c 128,-1,34
 277 675 277 675 277 543 c 0,35,36
 277 412 277 412 318 311.5 c 128,-1,37
 359 211 359 211 436.5 155 c 128,-1,38
 514 99 514 99 620 99 c 256,23,24
EndSplineSet
Substitution2: "'sups' Superscript in Latin lookup 39 subtable" p.sups
Substitution2: "'subs' Subscript in Latin lookup 38 subtable" p.subs
Substitution2: "'sinf' Scientific Inferiors in Latin lookup 18 subtable" p.subs
AlternateSubs2: "'aalt' Access All Alternates in Latin lookup 1 subtable" p.sups p.subs
EndChar

StartChar: uni048F
Encoding: 1167 1167 846
Width: 1204
GlyphClass: 2
Flags: W
AnchorPoint: "Anchor-1" 637 1087 basechar 0
AnchorPoint: "Anchor-0" 213 -417 basechar 0
LayerCount: 2
Fore
SplineSet
769 351 m 1,0,-1
 1087 8 l 1,1,-1
 999 -77 l 1,2,-1
 681 266 l 1,3,-1
 769 351 l 1,0,-1
147 -418 m 1,4,-1
 147 1087 l 1,5,-1
 276 1087 l 1,6,-1
 276 881 l 1,7,-1
 285 881 l 1,8,9
 311 939 311 939 358.5 990.5 c 128,-1,10
 406 1042 406 1042 475.5 1073 c 128,-1,11
 545 1104 545 1104 635 1104 c 0,12,13
 771 1104 771 1104 875 1033.5 c 128,-1,14
 979 963 979 963 1037 836.5 c 128,-1,15
 1095 710 1095 710 1095 542 c 256,16,17
 1095 374 1095 374 1037 247.5 c 128,-1,18
 979 121 979 121 876 50 c 128,-1,19
 773 -21 773 -21 636 -21 c 0,20,21
 546 -21 546 -21 477.5 10 c 128,-1,22
 409 41 409 41 361.5 93 c 128,-1,23
 314 145 314 145 286 205 c 1,24,-1
 279 205 l 1,25,-1
 279 -418 l 1,26,-1
 147 -418 l 1,4,-1
618 99 m 0,27,28
 723 99 723 99 800 155 c 128,-1,29
 877 211 877 211 919.5 310.5 c 128,-1,30
 962 410 962 410 962 543 c 0,31,32
 962 675 962 675 920 774.5 c 128,-1,33
 878 874 878 874 800.5 929.5 c 128,-1,34
 723 985 723 985 618 985 c 0,35,36
 511 985 511 985 434 929.5 c 128,-1,37
 357 874 357 874 315.5 774.5 c 128,-1,38
 274 675 274 675 274 543 c 0,39,40
 274 412 274 412 315.5 311.5 c 128,-1,41
 357 211 357 211 434.5 155 c 128,-1,42
 512 99 512 99 618 99 c 0,27,28
EndSplineSet
EndChar

StartChar: uni01A5
Encoding: 421 421 847
Width: 1189
GlyphClass: 2
Flags: W
AnchorPoint: "Anchor-1" 639 1087 basechar 0
AnchorPoint: "Anchor-0" 216 -417 basechar 0
LayerCount: 2
Fore
SplineSet
150 866 m 1,0,-1
 150 1251 l 2,1,2
 150 1367 150 1367 216 1425.5 c 128,-1,3
 282 1484 282 1484 406 1484 c 0,4,5
 434 1484 434 1484 457 1483.5 c 128,-1,6
 480 1483 480 1483 498 1482 c 1,7,-1
 498 1367 l 1,8,9
 482 1368 482 1368 458.5 1368 c 128,-1,10
 435 1368 435 1368 421 1368 c 0,11,12
 348 1368 348 1368 315 1340.5 c 128,-1,13
 282 1313 282 1313 282 1251 c 2,14,-1
 282 866 l 1,15,-1
 150 866 l 1,0,-1
150 -418 m 1,16,-1
 150 1087 l 1,17,-1
 279 1087 l 1,18,-1
 279 881 l 1,19,-1
 287 881 l 1,20,21
 314 939 314 939 361.5 990.5 c 128,-1,22
 409 1042 409 1042 478.5 1073 c 128,-1,23
 548 1104 548 1104 638 1104 c 0,24,25
 774 1104 774 1104 877.5 1033.5 c 128,-1,26
 981 963 981 963 1039 836.5 c 128,-1,27
 1097 710 1097 710 1097 542 c 256,28,29
 1097 374 1097 374 1039.5 247.5 c 128,-1,30
 982 121 982 121 878.5 50 c 128,-1,31
 775 -21 775 -21 639 -21 c 0,32,33
 549 -21 549 -21 480.5 10 c 128,-1,34
 412 41 412 41 364.5 93 c 128,-1,35
 317 145 317 145 289 205 c 1,36,-1
 282 205 l 1,37,-1
 282 -418 l 1,38,-1
 150 -418 l 1,16,-1
620 99 m 256,39,40
 726 99 726 99 802.5 155 c 128,-1,41
 879 211 879 211 921.5 310.5 c 128,-1,42
 964 410 964 410 964 543 c 0,43,44
 964 675 964 675 922 774.5 c 128,-1,45
 880 874 880 874 803 929.5 c 128,-1,46
 726 985 726 985 620 985 c 256,47,48
 514 985 514 985 437 929.5 c 128,-1,49
 360 874 360 874 318.5 774.5 c 128,-1,50
 277 675 277 675 277 543 c 0,51,52
 277 412 277 412 318 311.5 c 128,-1,53
 359 211 359 211 436.5 155 c 128,-1,54
 514 99 514 99 620 99 c 256,39,40
EndSplineSet
EndChar

StartChar: q
Encoding: 113 113 851
Width: 1189
GlyphClass: 2
Flags: W
AnchorPoint: "Anchor-1" 594 1087 basechar 0
AnchorPoint: "Anchor-0" 974 -417 basechar 0
LayerCount: 2
Fore
SplineSet
1039 -418 m 1,0,-1
 907 -418 l 1,1,-1
 907 205 l 1,2,-1
 900 205 l 1,3,4
 873 145 873 145 825.5 93 c 128,-1,5
 778 41 778 41 710 10 c 128,-1,6
 642 -21 642 -21 551 -21 c 0,7,8
 415 -21 415 -21 311 50 c 128,-1,9
 207 121 207 121 149 247.5 c 128,-1,10
 91 374 91 374 91 542 c 256,11,12
 91 710 91 710 149.5 836.5 c 128,-1,13
 208 963 208 963 312 1033.5 c 128,-1,14
 416 1104 416 1104 551 1104 c 0,15,16
 642 1104 642 1104 711.5 1073 c 128,-1,17
 781 1042 781 1042 828.5 990.5 c 128,-1,18
 876 939 876 939 902 881 c 1,19,-1
 910 881 l 1,20,-1
 910 1087 l 1,21,-1
 1039 1087 l 1,22,-1
 1039 -418 l 1,0,-1
568 99 m 0,23,24
 675 99 675 99 752 155 c 128,-1,25
 829 211 829 211 870.5 311.5 c 128,-1,26
 912 412 912 412 912 543 c 0,27,28
 912 675 912 675 871 774.5 c 128,-1,29
 830 874 830 874 753 929.5 c 128,-1,30
 676 985 676 985 568 985 c 0,31,32
 464 985 464 985 387 929.5 c 128,-1,33
 310 874 310 874 268 774.5 c 128,-1,34
 226 675 226 675 226 543 c 0,35,36
 226 410 226 410 267.5 310.5 c 128,-1,37
 309 211 309 211 387 155 c 128,-1,38
 465 99 465 99 568 99 c 0,23,24
EndSplineSet
Substitution2: "'sups' Superscript in Latin lookup 39 subtable" q.sups
Substitution2: "'subs' Subscript in Latin lookup 38 subtable" q.subs
Substitution2: "'sinf' Scientific Inferiors in Latin lookup 18 subtable" q.subs
AlternateSubs2: "'aalt' Access All Alternates in Latin lookup 1 subtable" q.sups q.subs
EndChar

StartChar: uni02A0
Encoding: 672 672 852
Width: 1189
GlyphClass: 2
Flags: W
AnchorPoint: "Anchor-1" 594 1087 basechar 0
AnchorPoint: "Anchor-0" 974 -417 basechar 0
LayerCount: 2
Fore
SplineSet
904 866 m 1,0,-1
 904 1251 l 2,1,2
 904 1367 904 1367 970 1425.5 c 128,-1,3
 1036 1484 1036 1484 1160 1484 c 0,4,5
 1188 1484 1188 1484 1211 1483.5 c 128,-1,6
 1234 1483 1234 1483 1252 1482 c 1,7,-1
 1252 1367 l 1,8,9
 1236 1368 1236 1368 1212.5 1368 c 128,-1,10
 1189 1368 1189 1368 1175 1368 c 0,11,12
 1102 1368 1102 1368 1069 1340.5 c 128,-1,13
 1036 1313 1036 1313 1036 1251 c 2,14,-1
 1036 866 l 1,15,-1
 904 866 l 1,0,-1
1039 -418 m 1,16,-1
 907 -418 l 1,17,-1
 907 205 l 1,18,-1
 900 205 l 1,19,20
 873 145 873 145 825.5 93 c 128,-1,21
 778 41 778 41 710 10 c 128,-1,22
 642 -21 642 -21 551 -21 c 0,23,24
 415 -21 415 -21 311 50 c 128,-1,25
 207 121 207 121 149 247.5 c 128,-1,26
 91 374 91 374 91 542 c 256,27,28
 91 710 91 710 149.5 836.5 c 128,-1,29
 208 963 208 963 312 1033.5 c 128,-1,30
 416 1104 416 1104 551 1104 c 0,31,32
 642 1104 642 1104 711.5 1073 c 128,-1,33
 781 1042 781 1042 828.5 990.5 c 128,-1,34
 876 939 876 939 902 881 c 1,35,-1
 910 881 l 1,36,-1
 910 1087 l 1,37,-1
 1039 1087 l 1,38,-1
 1039 -418 l 1,16,-1
568 99 m 0,39,40
 675 99 675 99 752 155 c 128,-1,41
 829 211 829 211 870.5 311.5 c 128,-1,42
 912 412 912 412 912 543 c 0,43,44
 912 675 912 675 871 774.5 c 128,-1,45
 830 874 830 874 753 929.5 c 128,-1,46
 676 985 676 985 568 985 c 0,47,48
 464 985 464 985 387 929.5 c 128,-1,49
 310 874 310 874 268 774.5 c 128,-1,50
 226 675 226 675 226 543 c 0,51,52
 226 410 226 410 267.5 310.5 c 128,-1,53
 309 211 309 211 387 155 c 128,-1,54
 465 99 465 99 568 99 c 0,39,40
EndSplineSet
EndChar

StartChar: qrthook
Encoding: 587 587 853
Width: 1189
GlyphClass: 2
Flags: W
AnchorPoint: "Anchor-4" 1039 0 basechar 0
AnchorPoint: "Anchor-1" 577 1087 basechar 0
AnchorPoint: "Anchor-0" 579 0 basechar 0
LayerCount: 2
Fore
SplineSet
1160 -420 m 0,0,1
 1036 -420 1036 -420 972.5 -361.5 c 128,-1,2
 909 -303 909 -303 909 -186 c 2,3,-1
 909 220 l 1,4,-1
 1039 220 l 1,5,-1
 1039 -186 l 2,6,7
 1039 -249 1039 -249 1070.5 -277 c 128,-1,8
 1102 -305 1102 -305 1175 -305 c 0,9,10
 1189 -305 1189 -305 1212.5 -304.5 c 128,-1,11
 1236 -304 1236 -304 1252 -303 c 1,12,-1
 1252 -418 l 1,13,14
 1234 -419 1234 -419 1211 -419.5 c 128,-1,15
 1188 -420 1188 -420 1160 -420 c 0,0,1
551 -21 m 0,16,17
 416 -21 416 -21 312 50 c 128,-1,18
 208 121 208 121 149.5 247.5 c 128,-1,19
 91 374 91 374 91 542 c 256,20,21
 91 710 91 710 149.5 836.5 c 128,-1,22
 208 963 208 963 312 1033.5 c 128,-1,23
 416 1104 416 1104 552 1104 c 0,24,25
 643 1104 643 1104 712 1072.5 c 128,-1,26
 781 1041 781 1041 828.5 990 c 128,-1,27
 876 939 876 939 902 881 c 1,28,-1
 909 881 l 1,29,-1
 909 1087 l 1,30,-1
 1039 1087 l 1,31,-1
 1039 0 l 1,32,-1
 909 0 l 1,33,-1
 909 205 l 1,34,-1
 902 205 l 1,35,36
 874 145 874 145 826.5 93.5 c 128,-1,37
 779 42 779 42 710 10.5 c 128,-1,38
 641 -21 641 -21 551 -21 c 0,16,17
569 99 m 0,39,40
 676 99 676 99 753 155 c 128,-1,41
 830 211 830 211 871.5 311.5 c 128,-1,42
 913 412 913 412 913 543 c 0,43,44
 913 675 913 675 872 774.5 c 128,-1,45
 831 874 831 874 754 929.5 c 128,-1,46
 677 985 677 985 569 985 c 0,47,48
 465 985 465 985 387.5 929.5 c 128,-1,49
 310 874 310 874 268 775 c 128,-1,50
 226 676 226 676 226 543 c 256,51,52
 226 410 226 410 268 310.5 c 128,-1,53
 310 211 310 211 387.5 155 c 128,-1,54
 465 99 465 99 569 99 c 0,39,40
EndSplineSet
EndChar

StartChar: r
Encoding: 114 114 854
Width: 678
GlyphClass: 2
Flags: W
AnchorPoint: "Anchor-1" 397 1087 basechar 0
AnchorPoint: "Anchor-0" 216 0 basechar 0
LayerCount: 2
Fore
SplineSet
150 0 m 1,0,-1
 150 1087 l 1,1,-1
 277 1087 l 1,2,-1
 277 912 l 1,3,-1
 284 912 l 1,4,5
 317 998 317 998 395 1049.5 c 128,-1,6
 473 1101 473 1101 577 1101 c 0,7,8
 595 1101 595 1101 612 1100 c 128,-1,9
 629 1099 629 1099 640 1099 c 1,10,-1
 640 966 l 1,11,12
 632 968 632 968 610 970.5 c 128,-1,13
 588 973 588 973 562 973 c 0,14,15
 483 973 483 973 419 938.5 c 128,-1,16
 355 904 355 904 318.5 840 c 128,-1,17
 282 776 282 776 282 688 c 2,18,-1
 282 0 l 1,19,-1
 150 0 l 1,0,-1
EndSplineSet
Substitution2: "'smcp' Lowercase to Small Capitals in Latin lookup 69 subtable" r.sc
Substitution2: "'c2sc' Capitals to Small Capitals in Latin lookup 68 subtable" r.sc
Substitution2: "'sups' Superscript in Latin lookup 39 subtable" r.sups
Substitution2: "'subs' Subscript in Latin lookup 38 subtable" r.subs
Substitution2: "'sinf' Scientific Inferiors in Latin lookup 18 subtable" r.subs
AlternateSubs2: "'aalt' Access All Alternates in Latin lookup 1 subtable" r.sc r.sups r.subs
EndChar

StartChar: rrthook
Encoding: 57437 57437 855
Width: 678
GlyphClass: 2
Flags: W
AnchorPoint: "Anchor-1" 397 1087 basechar 0
AnchorPoint: "Anchor-0" 216 0 basechar 0
LayerCount: 2
Fore
SplineSet
403 -420 m 0,0,1
 279 -420 279 -420 214.5 -361.5 c 128,-1,2
 150 -303 150 -303 150 -186 c 2,3,-1
 150 0 l 1,4,-1
 282 0 l 1,5,-1
 282 -186 l 2,6,7
 282 -249 282 -249 313.5 -277 c 128,-1,8
 345 -305 345 -305 418 -305 c 0,9,10
 432 -305 432 -305 455.5 -304.5 c 128,-1,11
 479 -304 479 -304 496 -303 c 1,12,-1
 496 -418 l 1,13,14
 478 -419 478 -419 454 -419.5 c 128,-1,15
 430 -420 430 -420 403 -420 c 0,0,1
150 0 m 1,16,-1
 150 1087 l 1,17,-1
 277 1087 l 1,18,-1
 277 912 l 1,19,-1
 284 912 l 1,20,21
 317 998 317 998 395 1049.5 c 128,-1,22
 473 1101 473 1101 577 1101 c 0,23,24
 595 1101 595 1101 612 1100 c 128,-1,25
 629 1099 629 1099 640 1099 c 1,26,-1
 640 966 l 1,27,28
 632 968 632 968 610 970.5 c 128,-1,29
 588 973 588 973 562 973 c 0,30,31
 483 973 483 973 419 938.5 c 128,-1,32
 355 904 355 904 318.5 840 c 128,-1,33
 282 776 282 776 282 688 c 2,34,-1
 282 0 l 1,35,-1
 150 0 l 1,16,-1
EndSplineSet
EndChar

StartChar: rturn
Encoding: 633 633 857
Width: 678
GlyphClass: 2
Flags: W
AnchorPoint: "Anchor-1" 460 1087 basechar 0
AnchorPoint: "Anchor-0" 349 0 basechar 0
LayerCount: 2
Fore
SplineSet
528 1087 m 1,0,-1
 528 0 l 1,1,-1
 401 0 l 1,2,-1
 401 175 l 1,3,-1
 394 175 l 1,4,5
 361 90 361 90 283 38 c 128,-1,6
 205 -14 205 -14 101 -14 c 0,7,8
 84 -14 84 -14 67.5 -12.5 c 128,-1,9
 51 -11 51 -11 38 -10 c 1,10,-1
 38 121 l 1,11,12
 47 120 47 120 68.5 117 c 128,-1,13
 90 114 90 114 117 114 c 0,14,15
 196 114 196 114 259.5 149 c 128,-1,16
 323 184 323 184 359.5 248 c 128,-1,17
 396 312 396 312 396 399 c 2,18,-1
 396 1087 l 1,19,-1
 528 1087 l 1,0,-1
EndSplineSet
EndChar

StartChar: rturnrthook
Encoding: 635 635 858
Width: 678
GlyphClass: 2
Flags: W
AnchorPoint: "Anchor-1" 460 1087 basechar 0
AnchorPoint: "Anchor-0" 349 0 basechar 0
LayerCount: 2
Fore
SplineSet
645 -420 m 0,0,1
 522 -420 522 -420 459.5 -361.5 c 128,-1,2
 397 -303 397 -303 397 -186 c 2,3,-1
 397 0 l 1,4,-1
 525 0 l 1,5,-1
 525 -186 l 2,6,7
 525 -249 525 -249 556 -277 c 128,-1,8
 587 -305 587 -305 661 -305 c 0,9,10
 674 -305 674 -305 697.5 -304.5 c 128,-1,11
 721 -304 721 -304 737 -303 c 1,12,-1
 737 -418 l 1,13,14
 726 -419 726 -419 711.5 -419.5 c 128,-1,15
 697 -420 697 -420 680.5 -420 c 128,-1,16
 664 -420 664 -420 645 -420 c 0,0,1
528 1087 m 1,17,-1
 528 0 l 1,18,-1
 401 0 l 1,19,-1
 401 175 l 1,20,-1
 394 175 l 1,21,22
 361 90 361 90 283 38 c 128,-1,23
 205 -14 205 -14 101 -14 c 0,24,25
 84 -14 84 -14 67.5 -12.5 c 128,-1,26
 51 -11 51 -11 38 -10 c 1,27,-1
 38 121 l 1,28,29
 47 120 47 120 68.5 117 c 128,-1,30
 90 114 90 114 117 114 c 0,31,32
 196 114 196 114 259.5 149 c 128,-1,33
 323 184 323 184 359.5 248 c 128,-1,34
 396 312 396 312 396 399 c 2,35,-1
 396 1087 l 1,36,-1
 528 1087 l 1,17,-1
EndSplineSet
EndChar

StartChar: rfishhookrev
Encoding: 639 639 859
Width: 655
Flags: W
LayerCount: 2
Fore
SplineSet
505 0 m 1,0,-1
 373 0 l 1,1,-1
 373 725 l 2,2,3
 373 821 373 821 339.5 874.5 c 128,-1,4
 306 928 306 928 247.5 950 c 128,-1,5
 189 972 189 972 115 972 c 0,6,7
 88 972 88 972 70 971.5 c 128,-1,8
 52 971 52 971 38 969 c 1,9,-1
 38 1094 l 1,10,11
 44 1095 44 1095 56 1096 c 128,-1,12
 68 1097 68 1097 85.5 1097.5 c 128,-1,13
 103 1098 103 1098 126 1098 c 0,14,15
 225 1098 225 1098 311 1062.5 c 128,-1,16
 397 1027 397 1027 451 945 c 128,-1,17
 505 863 505 863 505 726 c 2,18,-1
 505 0 l 1,0,-1
EndSplineSet
EndChar

StartChar: uni027E
Encoding: 638 638 860
Width: 655
Flags: W
LayerCount: 2
Fore
SplineSet
150 0 m 1,0,-1
 150 726 l 2,1,2
 150 863 150 863 204 945 c 128,-1,3
 258 1027 258 1027 345 1062.5 c 128,-1,4
 432 1098 432 1098 531 1098 c 0,5,6
 553 1098 553 1098 570.5 1097.5 c 128,-1,7
 588 1097 588 1097 599.5 1096 c 128,-1,8
 611 1095 611 1095 617 1094 c 1,9,-1
 617 969 l 1,10,11
 604 971 604 971 585.5 971.5 c 128,-1,12
 567 972 567 972 540 972 c 0,13,14
 467 972 467 972 409 950 c 128,-1,15
 351 928 351 928 316.5 874.5 c 128,-1,16
 282 821 282 821 282 725 c 2,17,-1
 282 0 l 1,18,-1
 150 0 l 1,0,-1
EndSplineSet
EndChar

StartChar: rdescend
Encoding: 57438 57438 861
Width: 678
GlyphClass: 2
Flags: W
AnchorPoint: "Anchor-1" 397 1087 basechar 0
AnchorPoint: "Anchor-0" 216 0 basechar 0
LayerCount: 2
Fore
SplineSet
150 -418 m 1,0,-1
 150 0 l 1,1,-1
 279 0 l 1,2,-1
 279 -418 l 1,3,-1
 150 -418 l 1,0,-1
150 0 m 1,4,-1
 150 1087 l 1,5,-1
 277 1087 l 1,6,-1
 277 912 l 1,7,-1
 284 912 l 1,8,9
 317 998 317 998 395 1049.5 c 128,-1,10
 473 1101 473 1101 577 1101 c 0,11,12
 595 1101 595 1101 612 1100 c 128,-1,13
 629 1099 629 1099 640 1099 c 1,14,-1
 640 966 l 1,15,16
 632 968 632 968 610 970.5 c 128,-1,17
 588 973 588 973 562 973 c 0,18,19
 483 973 483 973 419 938.5 c 128,-1,20
 355 904 355 904 318.5 840 c 128,-1,21
 282 776 282 776 282 688 c 2,22,-1
 282 0 l 1,23,-1
 150 0 l 1,4,-1
EndSplineSet
EndChar

StartChar: r.sc
Encoding: 60955 60955 871
Width: 1071
Flags: W
LayerCount: 2
Fore
SplineSet
150 0 m 1,0,-1
 150 1087 l 1,1,-1
 577 1087 l 2,2,3
 770 1087 770 1087 874.5 997 c 128,-1,4
 979 907 979 907 979 754 c 0,5,6
 979 602 979 602 873.5 513.5 c 128,-1,7
 768 425 768 425 575 425 c 2,8,-1
 224 425 l 1,9,-1
 224 540 l 1,10,-1
 566 540 l 2,11,12
 705 540 705 540 776.5 594.5 c 128,-1,13
 848 649 848 649 848 754 c 0,14,15
 848 858 848 858 777.5 914 c 128,-1,16
 707 970 707 970 567 970 c 2,17,-1
 282 970 l 1,18,-1
 282 0 l 1,19,-1
 150 0 l 1,0,-1
879 0 m 1,20,-1
 573 491 l 1,21,-1
 720 491 l 1,22,-1
 1032 0 l 1,23,-1
 879 0 l 1,20,-1
EndSplineSet
EndChar

StartChar: rinv.sc
Encoding: 60956 60956 872
Width: 1071
Flags: W
LayerCount: 2
Fore
SplineSet
150 0 m 1,0,-1
 150 1087 l 1,1,-1
 282 1087 l 1,2,-1
 282 118 l 1,3,-1
 567 118 l 2,4,5
 707 118 707 118 777.5 174 c 128,-1,6
 848 230 848 230 848 335 c 0,7,8
 848 438 848 438 776.5 493.5 c 128,-1,9
 705 549 705 549 566 549 c 2,10,-1
 224 549 l 1,11,-1
 224 662 l 1,12,-1
 575 662 l 2,13,14
 768 662 768 662 873.5 574 c 128,-1,15
 979 486 979 486 979 335 c 0,16,17
 979 181 979 181 874.5 90.5 c 128,-1,18
 770 0 770 0 577 0 c 2,19,-1
 150 0 l 1,0,-1
573 596 m 1,20,-1
 879 1087 l 1,21,-1
 1032 1087 l 1,22,-1
 720 596 l 1,23,-1
 573 596 l 1,20,-1
EndSplineSet
EndChar

StartChar: s
Encoding: 115 115 873
Width: 1006
GlyphClass: 2
Flags: W
AnchorPoint: "Anchor-3" 510 0 basechar 0
AnchorPoint: "Anchor-1" 510 1087 basechar 0
AnchorPoint: "Anchor-0" 510 0 basechar 0
LayerCount: 2
Fore
SplineSet
505 -22 m 0,0,1
 393 -22 393 -22 306 14 c 128,-1,2
 219 50 219 50 165 119.5 c 128,-1,3
 111 189 111 189 97 292 c 1,4,-1
 226 307 l 1,5,6
 242 203 242 203 313.5 148.5 c 128,-1,7
 385 94 385 94 503 94 c 0,8,9
 628 94 628 94 702.5 150 c 128,-1,10
 777 206 777 206 777 292 c 0,11,12
 777 360 777 360 729.5 401 c 128,-1,13
 682 442 682 442 594 463 c 2,14,-1
 416 506 l 2,15,16
 273 540 273 540 200 612 c 128,-1,17
 127 684 127 684 127 796 c 0,18,19
 127 887 127 887 176.5 956.5 c 128,-1,20
 226 1026 226 1026 312.5 1065.5 c 128,-1,21
 399 1105 399 1105 511 1105 c 0,22,23
 618 1105 618 1105 698 1068.5 c 128,-1,24
 778 1032 778 1032 827.5 965 c 128,-1,25
 877 898 877 898 892 805 c 1,26,-1
 767 789 l 1,27,28
 751 879 751 879 687.5 934.5 c 128,-1,29
 624 990 624 990 511 990 c 0,30,31
 400 990 400 990 330 936.5 c 128,-1,32
 260 883 260 883 260 800 c 0,33,34
 260 730 260 730 309 687.5 c 128,-1,35
 358 645 358 645 454 622 c 2,36,-1
 628 581 l 2,37,38
 771 547 771 547 841 477.5 c 128,-1,39
 911 408 911 408 911 297 c 0,40,41
 911 202 911 202 859 129.5 c 128,-1,42
 807 57 807 57 715.5 17.5 c 128,-1,43
 624 -22 624 -22 505 -22 c 0,0,1
EndSplineSet
Substitution2: "'sups' Superscript in Latin lookup 39 subtable" s.sups
Substitution2: "'subs' Subscript in Latin lookup 38 subtable" s.subs
Substitution2: "'sinf' Scientific Inferiors in Latin lookup 18 subtable" s.subs
AlternateSubs2: "'aalt' Access All Alternates in Latin lookup 1 subtable" s.sups s.subs
EndChar

StartChar: srthook
Encoding: 642 642 874
Width: 1006
GlyphClass: 2
Flags: W
AnchorPoint: "Anchor-3" 510 0 basechar 0
AnchorPoint: "Anchor-1" 510 1087 basechar 0
AnchorPoint: "Anchor-0" 510 0 basechar 0
LayerCount: 2
Fore
SplineSet
349 -420 m 0,0,1
 226 -420 226 -420 161.5 -361.5 c 128,-1,2
 97 -303 97 -303 97 -186 c 2,3,-1
 97 292 l 1,4,-1
 224 291 l 1,5,-1
 224 -186 l 2,6,7
 224 -249 224 -249 257.5 -277 c 128,-1,8
 291 -305 291 -305 365 -305 c 0,9,10
 374 -305 374 -305 388 -304.5 c 128,-1,11
 402 -304 402 -304 417 -303.5 c 128,-1,12
 432 -303 432 -303 442 -303 c 1,13,-1
 442 -418 l 1,14,15
 431 -419 431 -419 416 -419.5 c 128,-1,16
 401 -420 401 -420 384.5 -420 c 128,-1,17
 368 -420 368 -420 349 -420 c 0,0,1
505 -22 m 0,18,19
 393 -22 393 -22 306 14 c 128,-1,20
 219 50 219 50 165 119.5 c 128,-1,21
 111 189 111 189 97 292 c 1,22,-1
 226 307 l 1,23,24
 242 203 242 203 313.5 148.5 c 128,-1,25
 385 94 385 94 503 94 c 0,26,27
 628 94 628 94 702.5 150 c 128,-1,28
 777 206 777 206 777 292 c 0,29,30
 777 360 777 360 729.5 401 c 128,-1,31
 682 442 682 442 594 463 c 2,32,-1
 416 506 l 2,33,34
 273 540 273 540 200 612 c 128,-1,35
 127 684 127 684 127 796 c 0,36,37
 127 887 127 887 176.5 956.5 c 128,-1,38
 226 1026 226 1026 312.5 1065.5 c 128,-1,39
 399 1105 399 1105 511 1105 c 0,40,41
 618 1105 618 1105 698 1068.5 c 128,-1,42
 778 1032 778 1032 827.5 965 c 128,-1,43
 877 898 877 898 892 805 c 1,44,-1
 767 789 l 1,45,46
 751 879 751 879 687.5 934.5 c 128,-1,47
 624 990 624 990 511 990 c 0,48,49
 400 990 400 990 330 936.5 c 128,-1,50
 260 883 260 883 260 800 c 0,51,52
 260 730 260 730 309 687.5 c 128,-1,53
 358 645 358 645 454 622 c 2,54,-1
 628 581 l 2,55,56
 771 547 771 547 841 477.5 c 128,-1,57
 911 408 911 408 911 297 c 0,58,59
 911 202 911 202 859 129.5 c 128,-1,60
 807 57 807 57 715.5 17.5 c 128,-1,61
 624 -22 624 -22 505 -22 c 0,18,19
EndSplineSet
EndChar

StartChar: uni023F
Encoding: 575 575 875
Width: 1006
GlyphClass: 2
Flags: W
AnchorPoint: "Anchor-3" 510 0 basechar 0
AnchorPoint: "Anchor-1" 510 1087 basechar 0
AnchorPoint: "Anchor-0" 510 0 basechar 0
LayerCount: 2
Fore
SplineSet
223 233 m 1,0,1
 321 60 321 60 382.5 -46.5 c 128,-1,2
 444 -153 444 -153 482.5 -209 c 128,-1,3
 521 -265 521 -265 549.5 -286 c 128,-1,4
 578 -307 578 -307 609 -307 c 0,5,6
 645 -307 645 -307 680 -286.5 c 128,-1,7
 715 -266 715 -266 744 -241 c 1,8,-1
 796 -331 l 1,9,10
 758 -366 758 -366 709 -392 c 128,-1,11
 660 -418 660 -418 610 -418 c 0,12,13
 556 -418 556 -418 512.5 -395 c 128,-1,14
 469 -372 469 -372 431.5 -328 c 128,-1,15
 394 -284 394 -284 356 -221 c 2,16,-1
 132 174 l 1,17,-1
 223 233 l 1,0,1
505 -22 m 0,18,19
 393 -22 393 -22 306 14 c 128,-1,20
 219 50 219 50 165 119.5 c 128,-1,21
 111 189 111 189 97 292 c 1,22,-1
 226 307 l 1,23,24
 242 203 242 203 313.5 148.5 c 128,-1,25
 385 94 385 94 503 94 c 0,26,27
 628 94 628 94 702.5 150 c 128,-1,28
 777 206 777 206 777 292 c 0,29,30
 777 360 777 360 729.5 401 c 128,-1,31
 682 442 682 442 594 463 c 2,32,-1
 416 506 l 2,33,34
 273 540 273 540 200 612 c 128,-1,35
 127 684 127 684 127 796 c 0,36,37
 127 887 127 887 176.5 956.5 c 128,-1,38
 226 1026 226 1026 312.5 1065.5 c 128,-1,39
 399 1105 399 1105 511 1105 c 0,40,41
 618 1105 618 1105 698 1068.5 c 128,-1,42
 778 1032 778 1032 827.5 965 c 128,-1,43
 877 898 877 898 892 805 c 1,44,-1
 767 789 l 1,45,46
 751 879 751 879 687.5 934.5 c 128,-1,47
 624 990 624 990 511 990 c 0,48,49
 400 990 400 990 330 936.5 c 128,-1,50
 260 883 260 883 260 800 c 0,51,52
 260 730 260 730 309 687.5 c 128,-1,53
 358 645 358 645 454 622 c 2,54,-1
 628 581 l 2,55,56
 771 547 771 547 841 477.5 c 128,-1,57
 911 408 911 408 911 297 c 0,58,59
 911 202 911 202 859 129.5 c 128,-1,60
 807 57 807 57 715.5 17.5 c 128,-1,61
 624 -22 624 -22 505 -22 c 0,18,19
EndSplineSet
EndChar

